<svg xmlns="http://www.w3.org/2000/svg" viewBox="0 0 501 292.95"><g id="Calque_2" data-name="Calque 2"><g id="Calque_1-2" data-name="Calque 1"><g id="Sparkle"><g id="Sparkle-2" data-name="Sparkle" style="opacity:0.20000000298023224"><path d="M250,136.22a20.85,20.85,0,0,1-1.31-8.54l-.1-8.87c-.08-4.59-.08-9.27-.07-13.79v-3.93c.06-10.6.21-21.38.36-31.8l.06-3.66q.11-6.25.2-12.51c.12-7.52.25-15.3.42-22.94l.42-17.73q.09-3,.17-6c.06-1.94.12-3.92.18-5.91.06,2,.11,4,.17,5.91s.11,4,.18,6L251,30.18c.17,7.64.3,15.42.42,22.94q.09,6.26.21,12.51l.05,3.66c.15,10.42.31,21.2.36,31.8V105c0,4.52,0,9.19-.06,13.78l-.11,8.87a20.85,20.85,0,0,1-1.31,8.54Z" style="fill:#ba68c8"/><path d="M249.9,136.28a21,21,0,0,1-2.78-8.18l-1.64-8.72c-.88-4.53-1.68-9.14-2.47-13.61l-.67-3.83c-1.78-10.43-3.5-21.06-5.16-31.33L236.59,67q-1-6.16-2-12.34c-1.19-7.43-2.42-15.12-3.58-22.69l-2.67-17.53c-.28-2-.58-4-.87-5.94s-.57-3.9-.86-5.88c.4,1.92.8,3.84,1.18,5.72s.83,4,1.24,6l3.49,17.39c1.49,7.46,2.95,15.05,4.37,22.4.8,4.14,1.59,8.27,2.4,12.41l.7,3.65c1.95,10.22,4,20.79,5.86,31.19l.68,3.83c.8,4.47,1.62,9.08,2.34,13.64l1.44,8.75a20.92,20.92,0,0,1,.19,8.64Z" style="fill:#ba68c8"/><path d="M249.86,136.35a20.79,20.79,0,0,1-4.15-7.57l-3.13-8.3c-1.66-4.31-3.26-8.73-4.8-13l-1.33-3.65c-3.56-10-7.1-20.12-10.51-29.94l-1.22-3.51q-2.06-6-4.12-11.93c-2.45-7.07-5-14.39-7.42-21.61l-5.67-16.8c-.63-1.91-1.27-3.82-1.9-5.73s-1.24-3.72-1.86-5.61q1.09,2.74,2.16,5.45l2.25,5.66,6.45,16.51c2.78,7.11,5.54,14.36,8.22,21.36,1.5,3.92,3,7.83,4.5,11.75l1.29,3.39c3.71,9.75,7.55,19.83,11.22,29.78l1.35,3.69c1.55,4.25,3.16,8.64,4.65,13l2.94,8.36a20.89,20.89,0,0,1,1.69,8.48Z" style="fill:#ba68c8"/><path d="M249.83,136.43a20.79,20.79,0,0,1-5.4-6.74l-4.53-7.63c-2.37-4-4.7-8-7-11.93L231,106.74C225.73,97.53,220.47,88.1,215.38,79l-1.76-3.16q-3-5.47-6.08-10.94c-3.65-6.57-7.43-13.37-11.11-20.08l-8.5-15.56-2.87-5.32c-.93-1.71-1.86-3.45-2.8-5.2l3.08,5c1.06,1.73,2.13,3.45,3.19,5.17l9.22,15.15c4,6.52,8,13.18,11.82,19.62L216,74.44l1.87,3.13c5.35,9,10.87,18.21,16.22,27.37l1.95,3.37c2.27,3.92,4.62,8,6.86,12l4.34,7.73a20.86,20.86,0,0,1,3.14,8Z" style="fill:#ba68c8"/><path d="M249.81,136.51a21,21,0,0,1-6.49-5.7l-5.78-6.73c-3-3.48-6-7.07-8.92-10.54l-2.52-3c-6.74-8.12-13.52-16.44-20.08-24.49l-2.39-2.93-7.92-9.77c-4.73-5.82-9.62-11.84-14.39-17.8L170.24,41.7l-3.79-4.79-3.62-4.58,3.92,4.4,4,4.53,11.71,13.31c5,5.73,10.12,11.6,15,17.27l8.24,9.49,2.44,2.83c6.8,7.87,13.83,16,20.67,24.06l2.5,3c2.92,3.47,5.94,7.06,8.84,10.64l5.62,6.86a20.9,20.9,0,0,1,4.49,7.38Z" style="fill:#ba68c8"/><path d="M249.81,136.59a20.9,20.9,0,0,1-7.38-4.49l-6.86-5.62c-3.57-2.9-7.15-5.91-10.61-8.82l-3-2.53c-8.09-6.85-16.25-13.91-24.14-20.73L195.06,92l-9.47-8.22c-5.68-4.92-11.55-10-17.29-15L155,57l-4.53-4-4.4-3.91,4.59,3.63,4.79,3.78,13.84,11.08c6,4.77,12,9.66,17.8,14.39l9.77,7.92,2.84,2.32c8.08,6.58,16.43,13.38,24.58,20.15l3,2.53c3.47,2.9,7.05,5.9,10.52,8.91l6.72,5.78a20.94,20.94,0,0,1,5.71,6.5Z" style="fill:#ba68c8"/><path d="M249.83,136.67a21,21,0,0,1-8.05-3.14l-7.73-4.34c-4-2.24-8.07-4.58-12-6.85l-3.39-2c-9.17-5.36-18.44-10.89-27.41-16.24l-3.09-1.85q-5.35-3.23-10.73-6.43C171,92,164.31,88,157.78,84L142.63,74.8q-2.55-1.59-5.12-3.16l-5-3.12,5.21,2.81L143,74.19l15.56,8.51c6.7,3.67,13.49,7.44,20.05,11.09q5.47,3.06,11,6.1l3.3,1.84c9.06,5.06,18.44,10.29,27.61,15.52l3.37,2c3.93,2.26,8,4.6,11.95,7l7.62,4.52a20.89,20.89,0,0,1,6.75,5.41Z" style="fill:#ba68c8"/><path d="M249.09,136.76a22.15,22.15,0,0,1-7.7-1.71L233,132.12c-4.36-1.5-8.75-3.11-13-4.66l-3.68-1.35c-10-3.68-20.06-7.52-29.82-11.24l-3.36-1.27-11.71-4.49c-7-2.68-14.27-5.45-21.39-8.23l-16.52-6.45-5.65-2.25L122.44,90c1.88.61,3.75,1.24,5.59,1.85l5.75,1.9,16.8,5.68c7.22,2.44,14.54,5,21.62,7.42L184.12,111l3.49,1.21c9.84,3.42,20,7,30,10.52l3.7,1.34c4.25,1.54,8.64,3.14,12.94,4.78L242.5,132a20.9,20.9,0,0,1,7.58,4.15l-.22.62C249.6,136.76,249.34,136.76,249.09,136.76Z" style="fill:#ba68c8"/><path d="M246.49,137.19a31.13,31.13,0,0,1-5.23-.57l-8.75-1.44c-4.53-.72-9.12-1.54-13.56-2.32l-3.91-.7c-10.42-1.89-21-3.91-31.23-5.87l-3.61-.69-12.35-2.39c-7.37-1.42-15-2.89-22.46-4.38L128,115.34l-5.93-1.23-5.77-1.19,5.8.85,6,.88,17.52,2.67c7.55,1.16,15.21,2.38,22.62,3.57l12.41,2,3.58.58c10.3,1.66,21,3.38,31.41,5.17l3.87.68c4.45.78,9.06,1.59,13.57,2.46l8.72,1.64a21,21,0,0,1,8.18,2.77l-.11.65A14.55,14.55,0,0,1,246.49,137.19Z" style="fill:#ba68c8"/><path d="M214.82,138.35c-10.62,0-21.41-.21-31.85-.36l-3.61-.06-12.55-.2c-7.51-.12-15.27-.25-22.9-.42l-17.73-.42-6.06-.17-5.89-.17,5.89-.18,6.06-.17,17.73-.42c7.63-.17,15.39-.3,22.9-.41l12.55-.21,3.74-.06c10.4-.15,21.15-.3,31.72-.36h7.71c2.94,0,6.44,0,10,.07l8.87.1a20.82,20.82,0,0,1,8.54,1.31v.65a20.8,20.8,0,0,1-8.53,1.31l-8.88.11c-3.57.06-7.06.07-10,.07Z" style="fill:#ba68c8"/><path d="M116.3,160.17,122,159l6-1.24,17.39-3.49c7.49-1.49,15.12-3,22.49-4.39l12.32-2.38,3.61-.69c10.23-2,20.81-4,31.23-5.87l3.88-.69c4.45-.79,9.05-1.61,13.59-2.33l8.75-1.44a31.13,31.13,0,0,1,5.23-.57,14.55,14.55,0,0,1,3.41.38l.11.64a21,21,0,0,1-8.18,2.78l-8.72,1.64c-4.52.88-9.13,1.68-13.59,2.46l-3.85.68c-10.48,1.79-21.15,3.51-31.47,5.18l-3.52.57-12.37,2c-7.42,1.18-15.1,2.41-22.66,3.57l-17.53,2.67-6,.88Z" style="fill:#ba68c8"/><path d="M122.43,183.08l5.46-2.17,5.66-2.25,16.51-6.45c7.13-2.78,14.4-5.56,21.42-8.24l11.69-4.48,3.29-1.25c9.78-3.72,19.9-7.57,29.88-11.26l3.67-1.34c4.25-1.55,8.65-3.16,13-4.66l8.36-2.94a22.26,22.26,0,0,1,7.71-1.71c.25,0,.51,0,.77,0l.22.62a20.94,20.94,0,0,1-7.57,4.15l-8.3,3.13c-4.29,1.64-8.69,3.23-12.94,4.77l-3.7,1.35c-9.94,3.56-20.09,7.09-29.9,10.5l-3.55,1.23-11.91,4.12c-7.08,2.45-14.41,5-21.63,7.42l-16.8,5.68c-1.93.63-3.86,1.28-5.79,1.92Z" style="fill:#ba68c8"/><path d="M132.46,204.57l5-3.1,5.14-3.18,15.15-9.22c6.52-4,13.18-7.95,19.61-11.81l10.78-6.46,3.18-1.9c8.94-5.34,18.18-10.85,27.32-16.19l3.4-2c3.92-2.26,8-4.61,12-6.84l7.73-4.34a20.86,20.86,0,0,1,8.05-3.14l.33.57a20.79,20.79,0,0,1-6.74,5.4l-7.63,4.53c-3.94,2.36-8,4.69-11.89,6.94l-3.43,2c-9.14,5.21-18.48,10.42-27.51,15.47l-3.4,1.89-11,6.12c-6.55,3.64-13.32,7.41-20,11.07L143,198.9l-5.34,2.87Z" style="fill:#ba68c8"/><path d="M146.06,224l4.38-3.9L155,216l13.31-11.71c5.75-5.05,11.63-10.14,17.32-15.07q4.73-4.09,9.44-8.2l2.75-2.37c7.89-6.82,16.05-13.88,24.14-20.73l3-2.5c3.48-2.92,7.07-5.94,10.65-8.85l6.86-5.62a21,21,0,0,1,7.38-4.49l.43.51a21,21,0,0,1-5.7,6.49l-6.73,5.78c-3.47,3-7.05,6-10.52,8.91l-3,2.53c-8.16,6.78-16.53,13.6-24.63,20.19l-2.79,2.28q-4.89,3.94-9.76,7.91c-5.82,4.74-11.85,9.63-17.81,14.4l-13.85,11.08-4.81,3.81Z" style="fill:#ba68c8"/><path d="M162.83,240.76l3.63-4.59,3.78-4.79,11.08-13.84c4.77-6,9.66-12,14.4-17.81q4-4.87,7.91-9.76l2.41-3c6.55-8,13.32-16.35,20.06-24.46l2.52-3c2.9-3.47,5.91-7,8.92-10.53l5.78-6.72a21,21,0,0,1,6.49-5.71l.51.43a21,21,0,0,1-4.49,7.38l-5.62,6.86c-2.91,3.58-5.92,7.17-8.84,10.64l-2.51,3C222,172.93,215,181.06,208.2,188.93l-2.44,2.83-8.24,9.49c-4.91,5.67-10,11.53-15,17.27l-11.72,13.31-4,4.5C165.47,237.79,164.16,239.28,162.83,240.76Z" style="fill:#ba68c8"/><path d="M182.26,254.36c.93-1.75,1.87-3.48,2.79-5.19l2.88-5.33,8.5-15.56c3.67-6.71,7.45-13.5,11.11-20.07q3-5.47,6.08-11l1.77-3.17c5.08-9.11,10.34-18.53,15.6-27.74l1.95-3.38c2.26-3.93,4.59-8,7-11.94l4.52-7.62a20.89,20.89,0,0,1,5.41-6.75l.57.33a20.86,20.86,0,0,1-3.14,8l-4.34,7.73c-2.24,4-4.58,8.07-6.85,12l-2,3.39c-5.36,9.18-10.9,18.45-16.25,27.42L216,198.65q-3.24,5.39-6.46,10.78c-3.86,6.44-7.84,13.09-11.81,19.61l-9.22,15.15q-1.59,2.56-3.17,5.15Z" style="fill:#ba68c8"/><path d="M203.75,264.38l1.85-5.6c.64-1.91,1.27-3.83,1.91-5.74l5.67-16.8c2.44-7.22,5-14.55,7.43-21.63l4.11-11.9,1.23-3.56c3.41-9.81,6.94-20,10.51-29.9l1.32-3.66c1.55-4.26,3.14-8.67,4.79-13l3.13-8.3a20.92,20.92,0,0,1,4.16-7.58l.61.22a20.89,20.89,0,0,1-1.69,8.48l-2.93,8.36c-1.5,4.36-3.11,8.75-4.67,13l-1.34,3.67c-3.68,10-7.52,20.05-11.23,29.81l-1.28,3.37c-1.51,3.91-3,7.83-4.5,11.74-2.68,7-5.45,14.25-8.22,21.36l-6.45,16.52-2.25,5.65C205.2,260.72,204.48,262.55,203.75,264.38Z" style="fill:#ba68c8"/><path d="M226.65,270.52q.43-3,.86-5.88c.29-2,.59-4,.87-5.95l2.67-17.52c1.16-7.57,2.39-15.26,3.58-22.7q1-6.16,2-12.33l.59-3.64c1.66-10.28,3.38-20.91,5.16-31.35l.68-3.83c.78-4.47,1.58-9.09,2.46-13.61l1.64-8.72a21,21,0,0,1,2.78-8.18l.64.11a20.92,20.92,0,0,1-.19,8.64l-1.44,8.75c-.72,4.56-1.54,9.17-2.34,13.64l-.68,3.83C244,182.19,242,192.76,240,203l-.7,3.63c-.81,4.14-1.6,8.28-2.4,12.41-1.42,7.35-2.88,14.94-4.37,22.4l-3.49,17.39-1.23,6C227.45,266.68,227.05,268.6,226.65,270.52Z" style="fill:#ba68c8"/><path d="M250.28,272.59c-.07-2-.12-4-.18-5.91s-.11-4-.17-6l-.42-17.73c-.17-7.64-.3-15.42-.42-22.94q-.09-6.25-.2-12.51l-.06-3.66c-.15-10.42-.31-21.2-.36-31.8v-3.93c0-4.52,0-9.19.07-13.79l.1-8.87a20.85,20.85,0,0,1,1.31-8.54h.65a20.85,20.85,0,0,1,1.31,8.54l.11,8.87c.07,4.59.07,9.26.06,13.78V172c-.05,10.6-.21,21.38-.36,31.8l-.06,3.66q-.1,6.25-.2,12.51c-.12,7.52-.25,15.3-.42,22.94l-.42,17.73c-.06,2-.12,4-.17,6S250.34,270.6,250.28,272.59Z" style="fill:#ba68c8"/><path d="M273.9,270.52c-.4-1.92-.8-3.84-1.18-5.73s-.82-4-1.24-6L268,241.43C266.5,234,265,226.38,263.62,219q-1.19-6.19-2.4-12.41l-.69-3.63c-2-10.23-4-20.8-5.87-31.21L254,168c-.79-4.47-1.62-9.08-2.34-13.64l-1.44-8.75a20.92,20.92,0,0,1-.19-8.64l.65-.11a21,21,0,0,1,2.77,8.18l1.64,8.72c.88,4.52,1.68,9.14,2.47,13.61l.67,3.83c1.79,10.44,3.5,21.07,5.16,31.35l.59,3.64q1,6.17,2,12.33c1.19,7.44,2.42,15.13,3.58,22.7l2.67,17.53.87,5.94Q273.46,267.55,273.9,270.52Z" style="fill:#ba68c8"/><path d="M296.81,264.38c-.74-1.83-1.46-3.66-2.17-5.45l-2.25-5.65-6.45-16.52c-2.77-7.11-5.54-14.35-8.22-21.36q-2.24-5.86-4.5-11.74l-1.28-3.38c-3.71-9.75-7.55-19.84-11.23-29.8l-1.34-3.68c-1.56-4.25-3.16-8.64-4.66-13l-2.94-8.37a20.89,20.89,0,0,1-1.69-8.48l.62-.22a20.94,20.94,0,0,1,4.15,7.57l3.13,8.3c1.65,4.31,3.24,8.72,4.79,13l1.33,3.66c3.56,9.94,7.09,20.09,10.5,29.9l1.23,3.56,4.11,11.89c2.45,7.09,5,14.41,7.43,21.64l5.68,16.8c.63,1.91,1.26,3.83,1.9,5.74S296.18,262.5,296.81,264.38Z" style="fill:#ba68c8"/><path d="M318.3,254.36c-1.06-1.7-2.1-3.4-3.13-5.07l-3.15-5.1-9.22-15.14c-4-6.53-7.95-13.18-11.81-19.62q-3.23-5.4-6.46-10.78l-1.84-3.07c-5.35-9-10.89-18.25-16.25-27.43l-2-3.45c-2.26-3.9-4.59-7.92-6.81-11.93L253.29,145a21,21,0,0,1-3.14-8l.57-.33a21,21,0,0,1,5.41,6.74l4.52,7.63c2.37,3.95,4.71,8,7,11.94l1.95,3.38c5.25,9.21,10.51,18.63,15.59,27.74l1.78,3.17q3,5.48,6.07,10.94c3.66,6.57,7.44,13.37,11.11,20.08l8.51,15.56c1,1.79,1.93,3.58,2.89,5.38S317.37,252.63,318.3,254.36Z" style="fill:#ba68c8"/><path d="M337.72,240.76l-4-4.46-4-4.47-11.72-13.31c-5-5.73-10.12-11.6-15-17.27l-8.24-9.49-2.44-2.83c-6.8-7.87-13.83-16-20.66-24.06l-2.51-3c-2.92-3.47-5.93-7.06-8.84-10.64l-5.62-6.86a20.9,20.9,0,0,1-4.49-7.38l.51-.43a21,21,0,0,1,6.49,5.7L263,149c3,3.48,6,7.06,8.92,10.53l2.52,3C281.19,170.66,288,179,294.51,187l2.41,2.95q3.94,4.89,7.92,9.76c4.73,5.83,9.62,11.85,14.39,17.81l11.08,13.85,3.78,4.78Z" style="fill:#ba68c8"/><path d="M354.49,224l-4.56-3.61-4.82-3.8L331.27,205.5c-6-4.77-12-9.67-17.82-14.4q-4.86-4-9.75-7.91l-2.79-2.28c-8.1-6.59-16.47-13.41-24.63-20.19l-3-2.53c-3.46-2.9-7.05-5.9-10.52-8.91L256,143.5a21,21,0,0,1-5.71-6.49l.43-.51a21,21,0,0,1,7.38,4.49l6.86,5.62c3.58,2.91,7.18,5.93,10.65,8.85l3,2.5c8.09,6.85,16.25,13.91,24.14,20.73l2.75,2.37q4.71,4.11,9.44,8.2c5.69,4.92,11.57,10,17.32,15.07L345.56,216l4.55,4.05Z" style="fill:#ba68c8"/><path d="M368.09,204.57l-5.18-2.8-5.34-2.87L342,190.39c-6.69-3.66-13.46-7.43-20-11.07l-11-6.12-3.35-1.87c-9.05-5.05-18.41-10.27-27.56-15.5l-3.42-2c-3.92-2.25-8-4.58-11.9-6.94l-7.62-4.52a20.89,20.89,0,0,1-6.75-5.41l.33-.57a20.86,20.86,0,0,1,8,3.14l7.73,4.34c4,2.23,8.07,4.58,12,6.84l3.4,2c9.14,5.34,18.38,10.85,27.32,16.19l3.18,1.9,10.78,6.46c6.44,3.86,13.09,7.84,19.61,11.81l15.15,9.22,5.15,3.18Z" style="fill:#ba68c8"/><path d="M378.12,183.08l-5.55-1.84-5.8-1.92L350,173.64c-7.22-2.44-14.54-5-21.62-7.42l-11.91-4.12-3.55-1.23c-9.82-3.41-20-6.94-29.91-10.5l-3.7-1.35c-4.25-1.54-8.64-3.13-12.93-4.77l-8.3-3.13a20.9,20.9,0,0,1-7.58-4.15l.23-.62c.25,0,.51,0,.76,0a22.21,22.21,0,0,1,7.71,1.71l8.37,2.93c4.35,1.51,8.75,3.11,13,4.67l3.66,1.34c10,3.69,20.1,7.54,29.88,11.26l3.3,1.25L329.07,164c7,2.68,14.3,5.46,21.42,8.24L367,178.66l5.65,2.25Z" style="fill:#ba68c8"/><path d="M384.25,160.17l-5.82-.85-6-.88-17.53-2.67c-7.56-1.16-15.24-2.39-22.66-3.57l-12.37-2-3.52-.57c-10.32-1.67-21-3.39-31.47-5.18L281,143.8c-4.46-.78-9.07-1.58-13.59-2.46l-8.71-1.64a21,21,0,0,1-8.19-2.78l.11-.64a14.55,14.55,0,0,1,3.41-.38,31.13,31.13,0,0,1,5.23.57l8.75,1.44c4.55.72,9.15,1.54,13.61,2.33l3.86.69c10.44,1.89,21,3.92,31.28,5.88l3.56.68,12.32,2.38c7.37,1.43,15,2.9,22.49,4.39l17.39,3.49c2,.41,4,.83,6,1.23Z" style="fill:#ba68c8"/><path d="M278,138.36c-2.94,0-6.43,0-10-.07l-8.87-.11a20.85,20.85,0,0,1-8.54-1.31v-.65a20.76,20.76,0,0,1,8.51-1.31l8.9-.11c3.57-.06,7.07-.06,10-.06h7.71c10.57,0,21.32.21,31.71.36l3.74.06,12.55.2c7.51.12,15.27.25,22.9.42l17.73.42,6.07.17,5.88.18-5.88.17-6.07.17-17.73.42c-7.63.17-15.39.3-22.9.42l-12.55.2-3.61.06c-10.44.15-21.23.31-31.85.36Z" style="fill:#ba68c8"/><path d="M254.07,137.19a14.57,14.57,0,0,1-3.42-.38l-.11-.64a21,21,0,0,1,8.18-2.78l8.72-1.64c4.51-.87,9.12-1.68,13.57-2.46l3.87-.68c10.46-1.79,21.11-3.51,31.41-5.17l3.58-.58,12.41-2c7.41-1.19,15.07-2.41,22.62-3.57l17.53-2.67,6-.88,5.8-.85-5.77,1.2-5.93,1.22-17.39,3.49c-7.48,1.49-15.09,3-22.45,4.38l-12.36,2.39-3.56.68c-10.25,2-20.84,4-31.28,5.88l-3.89.69c-4.45.79-9,1.61-13.58,2.33l-8.75,1.44A31.12,31.12,0,0,1,254.07,137.19Z" style="fill:#ba68c8"/><path d="M251.46,136.76c-.25,0-.51,0-.77,0l-.22-.61a20.75,20.75,0,0,1,7.58-4.15l8.29-3.13c4.3-1.65,8.69-3.25,13-4.79l3.69-1.34c10-3.57,20.13-7.1,30-10.52l3.5-1.21,11.91-4.12c7.08-2.45,14.4-5,21.62-7.42l16.8-5.68,5.75-1.9L378.11,90l-5.45,2.16L367,94.43l-16.52,6.45c-7.12,2.78-14.37,5.55-21.39,8.23l-11.71,4.49L314,114.87c-9.76,3.72-19.86,7.56-29.82,11.24l-3.68,1.35c-4.25,1.55-8.64,3.16-13,4.66l-8.37,2.93A22.26,22.26,0,0,1,251.46,136.76Z" style="fill:#ba68c8"/><path d="M250.39,136.1a20.73,20.73,0,0,1,6.75-5.4l7.62-4.53c4-2.37,8-4.71,11.95-7l3.37-1.94c9.19-5.25,18.58-10.49,27.66-15.56L311,99.89q5.49-3,11-6.1c6.57-3.65,13.35-7.42,20.05-11.09l15.56-8.51,5.32-2.86,5.2-2.81c-1.69,1-3.38,2.1-5,3.12l-5.12,3.16L342.78,84c-6.54,4-13.21,8-19.66,11.84l-10.74,6.43-3.09,1.85c-9,5.35-18.24,10.88-27.4,16.24l-3.4,2c-3.91,2.27-8,4.61-12,6.85l-7.73,4.34a21,21,0,0,1-8.06,3.14Z" style="fill:#ba68c8"/><path d="M250.31,136.08a21,21,0,0,1,5.7-6.49l6.73-5.78c3.47-3,7.05-6,10.52-8.91l3-2.53c8.15-6.77,16.5-13.57,24.58-20.15l2.84-2.32L313.47,82c5.82-4.73,11.84-9.62,17.8-14.39l13.85-11.08,4.78-3.78,4.59-3.63L350.09,53l-4.53,4L332.25,68.76c-5.74,5-11.61,10.13-17.29,15L305.49,92l-2.74,2.37c-7.9,6.82-16.06,13.87-24.15,20.73l-3,2.53c-3.46,2.91-7,5.92-10.61,8.82l-6.86,5.62a20.81,20.81,0,0,1-7.38,4.49Z" style="fill:#ba68c8"/><path d="M250.23,136.08a21,21,0,0,1,4.49-7.38l5.62-6.86c2.91-3.58,5.93-7.17,8.85-10.64l2.5-3c6.83-8.06,13.86-16.19,20.66-24.06l2.44-2.83q4.13-4.74,8.24-9.49c4.91-5.67,10-11.53,15-17.27l11.72-13.31,4-4.49,4-4.44-3.62,4.58-3.79,4.8L319.23,55.55c-4.77,6-9.66,12-14.39,17.8l-7.92,9.77-2.39,2.93c-6.56,8-13.34,16.37-20.08,24.49l-2.52,3C269,117,266,120.6,263,124.08l-5.78,6.72a20.9,20.9,0,0,1-6.49,5.71Z" style="fill:#ba68c8"/><path d="M250.15,136.1a21,21,0,0,1,3.14-8l4.35-7.73c2.22-4,4.56-8,6.81-11.94l2-3.44c5.35-9.16,10.88-18.42,16.22-27.37l1.87-3.13q3.24-5.39,6.46-10.77c3.86-6.44,7.84-13.1,11.81-19.62L312,28.9l3.16-5.12,3.12-5.05c-.93,1.73-1.86,3.46-2.78,5.15l-2.89,5.37-8.51,15.56c-3.67,6.71-7.45,13.51-11.11,20.09q-3,5.46-6.07,10.93L285.17,79c-5.09,9.11-10.34,18.54-15.6,27.75l-2,3.39c-2.25,3.92-4.59,8-7,11.93l-4.52,7.62a20.89,20.89,0,0,1-5.41,6.75Z" style="fill:#ba68c8"/><path d="M250.08,136.13a20.81,20.81,0,0,1,1.69-8.47l2.94-8.37c1.5-4.35,3.1-8.74,4.65-13l1.35-3.69c3.68-10,7.51-20,11.22-29.78l1.29-3.4c1.51-3.91,3-7.82,4.5-11.74,2.68-7,5.45-14.25,8.22-21.36l6.45-16.52,2.25-5.65q1.07-2.7,2.16-5.45L295,14.32q-1,2.87-1.9,5.73l-5.68,16.8c-2.44,7.22-5,14.54-7.42,21.62q-2.07,6-4.12,11.92l-1.22,3.51c-3.41,9.82-6.94,20-10.51,29.94l-1.32,3.65c-1.55,4.26-3.15,8.68-4.8,13l-3.13,8.29a20.9,20.9,0,0,1-4.15,7.58Z" style="fill:#ba68c8"/><path d="M250,136.17a20.92,20.92,0,0,1,.19-8.64l1.44-8.75c.72-4.56,1.55-9.17,2.34-13.64l.68-3.83c1.89-10.4,3.91-21,5.86-31.18l.7-3.66q1.21-6.21,2.4-12.41c1.42-7.35,2.88-14.94,4.38-22.4l3.48-17.39q.63-3,1.24-6c.39-1.88.78-3.8,1.18-5.72-.29,2-.58,4-.86,5.88l-.87,5.94L269.5,31.92c-1.16,7.57-2.39,15.26-3.58,22.69q-1,6.18-2,12.34l-.59,3.66c-1.66,10.27-3.37,20.9-5.16,31.33l-.67,3.83c-.78,4.47-1.59,9.08-2.47,13.61l-1.64,8.71a20.86,20.86,0,0,1-2.77,8.19Z" style="fill:#ba68c8"/></g></g><g id="Stars"><g id="Stars-2" data-name="Stars"><path d="M163.27,25.62,167,28.44l4.4-1.44a.57.57,0,0,1,.71.73l-1.54,4.37,2.73,3.75a.57.57,0,0,1-.48.9l-4.63-.12-2.72,3.75a.57.57,0,0,1-1-.17l-1.32-4.44-4.41-1.43a.57.57,0,0,1-.14-1l3.81-2.63V26.07A.57.57,0,0,1,163.27,25.62Z" style="fill:#e0e0e0"/><path d="M337.21,158.56l-.24,4.62,3.68,2.83a.56.56,0,0,1-.2,1L336,168.2l-1.54,4.37a.57.57,0,0,1-1,.12l-2.53-3.88-4.63-.13a.56.56,0,0,1-.42-.92l2.91-3.6-1.32-4.44a.57.57,0,0,1,.75-.69l4.33,1.66,3.82-2.63A.56.56,0,0,1,337.21,158.56Z" style="fill:#e0e0e0"/><path d="M340.68,44l-.24,4.63,3.68,2.82a.57.57,0,0,1-.2,1l-4.47,1.2L337.9,58a.56.56,0,0,1-1,.12l-2.52-3.88-4.64-.12a.56.56,0,0,1-.42-.92l2.91-3.61-1.31-4.44a.56.56,0,0,1,.74-.69L336,46.09l3.82-2.63A.56.56,0,0,1,340.68,44Z" style="fill:#e0e0e0"/><path d="M126.14,212.21l4.41,1.4,3.66-2.84a.56.56,0,0,1,.91.44l0,4.64,3.84,2.6a.56.56,0,0,1-.14,1l-4.4,1.46-1.29,4.45a.56.56,0,0,1-1,.18l-2.75-3.73-4.64.15a.56.56,0,0,1-.47-.89L127,217.3l-1.57-4.36A.57.57,0,0,1,126.14,212.21Z" style="fill:#e0e0e0"/><path d="M368.32,263.22l4.42,1.4,3.65-2.84a.57.57,0,0,1,.92.44l0,4.63,3.83,2.6a.57.57,0,0,1-.14,1l-4.39,1.46-1.29,4.45a.57.57,0,0,1-1,.18l-2.75-3.73L367,273a.57.57,0,0,1-.48-.9l2.7-3.76L367.62,264A.56.56,0,0,1,368.32,263.22Z" style="fill:#e0e0e0"/><path d="M253.93,263.62l-.24,4.63,3.68,2.82a.57.57,0,0,1-.2,1l-4.47,1.2-1.55,4.37a.57.57,0,0,1-1,.12l-2.52-3.89-4.64-.12a.56.56,0,0,1-.42-.92l2.91-3.61-1.31-4.44a.56.56,0,0,1,.74-.69l4.33,1.66,3.82-2.62A.56.56,0,0,1,253.93,263.62Z" style="fill:#e0e0e0"/><path d="M136,127a1.41,1.41,0,0,1-1.41,1.42,1.42,1.42,0,1,1,0-2.83A1.41,1.41,0,0,1,136,127Z" style="fill:#e0e0e0"/><circle cx="117.06" cy="79.63" r="1.41" style="fill:#e0e0e0"/><path d="M207.07,200.56a1.42,1.42,0,1,1-1.42-1.41A1.42,1.42,0,0,1,207.07,200.56Z" style="fill:#e0e0e0"/><path d="M303.82,249.91a1.42,1.42,0,1,1-1.42-1.41A1.42,1.42,0,0,1,303.82,249.91Z" style="fill:#e0e0e0"/><circle cx="387.61" cy="122.41" r="1.41" style="fill:#e0e0e0"/><circle cx="376.54" cy="59" r="1.41" style="fill:#e0e0e0"/><path d="M280.59,34.28a1.42,1.42,0,1,1-2.83,0,1.42,1.42,0,0,1,2.83,0Z" style="fill:#e0e0e0"/><circle cx="204.72" cy="34.55" r="1.41" style="fill:#e0e0e0"/></g></g><g id="Diplomas"><g id="Diploma"><path d="M325.13,120.52l21.23-19.15,2.83-2.83,21-23,.34-.37a3.7,3.7,0,0,1,3.72-.61,11.7,11.7,0,0,1,7.5,7.51,3.73,3.73,0,0,1-.61,3.72l-23.36,21.3-2.81,2.81-19.32,21.31,0,0a3.78,3.78,0,0,1-3.7.59,11.8,11.8,0,0,1-7.5-7.52,3.7,3.7,0,0,1,.62-3.72l.11-.11Z" style="fill:#ba68c8"/><path d="M325.13,120.52l21.23-19.15,2.83-2.83,21-23,.34-.37a3.7,3.7,0,0,1,3.72-.61,11.7,11.7,0,0,1,7.5,7.51,3.73,3.73,0,0,1-.61,3.72l-23.36,21.3-2.81,2.81-19.32,21.31,0,0a3.78,3.78,0,0,1-3.7.59,11.8,11.8,0,0,1-7.5-7.52,3.7,3.7,0,0,1,.62-3.72l.11-.11Z" style="fill:#fff;opacity:0.4000000059604645;isolation:isolate"/><path d="M371.25,74.69a2.46,2.46,0,0,0-.75.52l-.34.37-21,23-2.83,2.83-21.23,19.15h0l-.11.11a3.71,3.71,0,0,0-.62,3.72,11.61,11.61,0,0,0,4.51,6l44.54-44.46S368.93,79.88,371.25,74.69Z" style="fill:#ba68c8;opacity:0.30000001192092896;isolation:isolate"/><path d="M374.22,74.6a3.24,3.24,0,0,0-4.34,4.33,11.77,11.77,0,0,0,7.51,7.52,3.24,3.24,0,0,0,4.34-4.34A11.76,11.76,0,0,0,374.22,74.6Z" style="fill:#ba68c8"/><path d="M324.77,120.86l.35-.35h0l21.23-19.14,2.83-2.83,21-23c-3.11,3.76,1,9.59,1,9.59l-45.74,45.65S321,124.58,324.77,120.86Z" style="fill:#ba68c8"/><path d="M324.77,120.86l.35-.35h0l21.23-19.14,2.83-2.83,21-23c-3.11,3.76,1,9.59,1,9.59l-45.74,45.65S321,124.58,324.77,120.86Z" style="fill:#fff;opacity:0.6000000238418579;isolation:isolate"/><path d="M374.22,74.6a3.24,3.24,0,0,0-4.34,4.33,11.77,11.77,0,0,0,7.51,7.52,3.24,3.24,0,0,0,4.34-4.34A11.76,11.76,0,0,0,374.22,74.6Z" style="fill:#fff;opacity:0.25;isolation:isolate"/><path d="M377,81.92c3.58.73,2.62-3.71-.94-6.57h0a8.26,8.26,0,0,0-1.85-.75,3.24,3.24,0,0,0-4.34,4.33,11.64,11.64,0,0,0,4.25,5.86Z" style="fill:#ba68c8;opacity:0.5;isolation:isolate"/><path d="M378.84,81.63l-3.79,3.79a8.31,8.31,0,0,1-.92-.63L377,81.92A2.23,2.23,0,0,0,378.84,81.63Z" style="fill:#ba68c8"/><path d="M378.84,81.63l-3.79,3.79a8.31,8.31,0,0,1-.92-.63L377,81.92A2.23,2.23,0,0,0,378.84,81.63Z" style="opacity:0.10000000149011612;isolation:isolate"/><path d="M355.21,109.67c4.62,2,8.12,5.94,10.94,11a12.41,12.41,0,0,0-.21-4.5,13.82,13.82,0,0,1,3.53,1.19,31.22,31.22,0,0,0-10.9-10.92l-.81.73Z" style="fill:#ba68c8"/><path d="M357.23,110.73l.73-1.47,2.3-1.82c-.55-.36-1.11-.72-1.69-1l-.81.73-2.55,2.54A18.46,18.46,0,0,1,357.23,110.73Z" style="opacity:0.20000000298023224;isolation:isolate"/><path d="M346.36,101.37a3,3,0,0,0-.48,3,9.5,9.5,0,0,0,6.06,6.07,3.08,3.08,0,0,0,3-.46l0,0,2.82-2.81a3,3,0,0,1-3,.49,9.46,9.46,0,0,1-6.05-6.07,3,3,0,0,1,.49-3l-2.81,2.81Z" style="fill:#ba68c8"/><path d="M350.39,104.63a8.67,8.67,0,0,1-1.4-2.23l-2.81,2.81a9.09,9.09,0,0,0,1.39,2.23Zm-4.51-.27v0l2.81-2.81v0a4.22,4.22,0,0,1-.17-1.26l-2.81,2.81A4.53,4.53,0,0,0,345.88,104.36Z" style="fill:#fff;opacity:0.15000000596046448;isolation:isolate"/><path d="M350,109.59a7.94,7.94,0,0,0,1.9.84,3.05,3.05,0,0,0,3-.46l0,0,2.82-2.81a3,3,0,0,1-3,.49,7.16,7.16,0,0,1-1.89-.84Z" style="opacity:0.10000000149011612;isolation:isolate"/></g><g id="Diploma-2" data-name="Diploma"><path d="M124.73,140l26.45,14.89,3.8,1.89,30.21,13.33.49.22a4,4,0,0,1,1.87,3.54,12.45,12.45,0,0,1-5,10.09,4,4,0,0,1-3.95.65l-29.33-16.31-3.78-1.88-28-12.23,0,0a4,4,0,0,1-1.84-3.52,12.51,12.51,0,0,1,5-10.1,4,4,0,0,1,4-.63l.15.07Z" style="fill:#ba68c8"/><path d="M124.73,140l26.45,14.89,3.8,1.89,30.21,13.33.49.22a4,4,0,0,1,1.87,3.54,12.45,12.45,0,0,1-5,10.09,4,4,0,0,1-3.95.65l-29.33-16.31-3.78-1.88-28-12.23,0,0a4,4,0,0,1-1.84-3.52,12.51,12.51,0,0,1,5-10.1,4,4,0,0,1,4-.63l.15.07Z" style="fill:#fff;opacity:0.4000000059604645;isolation:isolate"/><path d="M186.45,170.9a2.69,2.69,0,0,0-.77-.58l-.49-.22L155,156.77l-3.8-1.88L124.73,140v0l-.15-.07a4,4,0,0,0-4,.63,12.47,12.47,0,0,0-4.56,6.59l59.82,29.78S180.44,170.33,186.45,170.9Z" style="fill:#ba68c8;opacity:0.30000001192092896;isolation:isolate"/><path d="M187.55,173.86c-.11-1.8-.82-3-1.87-3.54s-2.46-.36-4,.64a12.46,12.46,0,0,0-5,10.09c.11,1.8.82,3,1.87,3.54s2.46.36,4-.64A12.46,12.46,0,0,0,187.55,173.86Z" style="fill:#ba68c8"/><path d="M124.26,139.75l.48.23v0l26.45,14.89,3.8,1.88,30.21,13.33c-4.83-1.85-9.32,4.24-9.32,4.24l-61.41-30.57S119.26,137.25,124.26,139.75Z" style="fill:#ba68c8"/><path d="M124.26,139.75l.48.23v0l26.45,14.89,3.8,1.88,30.21,13.33c-4.83-1.85-9.32,4.24-9.32,4.24l-61.41-30.57S119.26,137.25,124.26,139.75Z" style="fill:#fff;opacity:0.6000000238418579;isolation:isolate"/><path d="M187.55,173.86c-.11-1.8-.82-3-1.87-3.54s-2.46-.36-4,.64a12.46,12.46,0,0,0-5,10.09c.11,1.8.82,3,1.87,3.54s2.46.36,4-.64A12.46,12.46,0,0,0,187.55,173.86Z" style="fill:#fff;opacity:0.25;isolation:isolate"/><path d="M181.13,179.15c.48,3.84,4.62,1.37,6.29-3.17h0a9.05,9.05,0,0,0,.13-2.12c-.11-1.8-.82-3-1.87-3.54s-2.46-.36-4,.64a12.27,12.27,0,0,0-4.46,6.26Z" style="fill:#ba68c8;opacity:0.5;isolation:isolate"/><path d="M182,180.89l-5.1-2.54a9.05,9.05,0,0,1,.32-1.13l3.87,1.93A2.37,2.37,0,0,0,182,180.89Z" style="fill:#ba68c8"/><path d="M182,180.89l-5.1-2.54a9.05,9.05,0,0,1,.32-1.13l3.87,1.93A2.37,2.37,0,0,0,182,180.89Z" style="opacity:0.10000000149011612;isolation:isolate"/><path d="M145.83,166.6c-.49,5.33-3.23,10.17-7.33,14.72a13.49,13.49,0,0,0,4.46-1.74,15.34,15.34,0,0,1,0,3.95,33.08,33.08,0,0,0,7.29-14.66l-1-.57Z" style="fill:#ba68c8"/><path d="M145.45,169l1.72.23,2.6,1.71c.19-.68.35-1.37.48-2.06l-1-.57-3.42-1.7A21.23,21.23,0,0,1,145.45,169Z" style="opacity:0.20000000298023224;isolation:isolate"/><path d="M151.18,154.88a3.23,3.23,0,0,0-3.17.53,10,10,0,0,0-4,8.15,3.21,3.21,0,0,0,1.47,2.83l0,0,3.79,1.88a3.2,3.2,0,0,1-1.51-2.86,10,10,0,0,1,4-8.15,3.23,3.23,0,0,1,3.2-.52l-3.78-1.88Z" style="fill:#ba68c8"/><path d="M149.26,160a9.25,9.25,0,0,1,1.78-2.16L147.26,156a9.5,9.5,0,0,0-1.78,2.16ZM148,155.41h0l3.78,1.89,0,0a5,5,0,0,1,1.22-.59l-3.78-1.88A4.69,4.69,0,0,0,148,155.41Z" style="fill:#fff;opacity:0.15000000596046448;isolation:isolate"/><path d="M144.16,161.37a7.55,7.55,0,0,0-.2,2.19,3.21,3.21,0,0,0,1.47,2.83l0,0,3.79,1.88a3.2,3.2,0,0,1-1.51-2.86,7.52,7.52,0,0,1,.2-2.19Z" style="opacity:0.10000000149011612;isolation:isolate"/></g><g id="Diploma-3" data-name="Diploma"><path d="M242.89,190.49l21.42,15.42,3.1,2,24.82,14.44.4.24a3.44,3.44,0,0,1,1.28,3.23,10.84,10.84,0,0,1-5.32,8.24,3.43,3.43,0,0,1-3.47.18l-23.78-16.92-3.08-2-23-13.27,0,0a3.46,3.46,0,0,1-1.24-3.22,10.83,10.83,0,0,1,5.31-8.24,3.47,3.47,0,0,1,3.48-.17l.12.08Z" style="fill:#ba68c8"/><path d="M242.89,190.49l21.42,15.42,3.1,2,24.82,14.44.4.24a3.44,3.44,0,0,1,1.28,3.23,10.84,10.84,0,0,1-5.32,8.24,3.43,3.43,0,0,1-3.47.18l-23.78-16.92-3.08-2-23-13.27,0,0a3.46,3.46,0,0,1-1.24-3.22,10.83,10.83,0,0,1,5.31-8.24,3.47,3.47,0,0,1,3.48-.17l.12.08Z" style="fill:#fff;opacity:0.4000000059604645;isolation:isolate"/><path d="M293.24,223.15a2.36,2.36,0,0,0-.61-.57l-.4-.24L267.41,207.9l-3.1-2-21.42-15.42h0l-.12-.08a3.47,3.47,0,0,0-3.48.17,10.83,10.83,0,0,0-4.58,5.25l48.82,31.51S288.1,222.07,293.24,223.15Z" style="fill:#ba68c8;opacity:0.30000001192092896;isolation:isolate"/><path d="M293.91,225.81a3,3,0,0,0-4.76-3.07,10.87,10.87,0,0,0-5.32,8.24,3.46,3.46,0,0,0,1.28,3.24,3.42,3.42,0,0,0,3.48-.17A10.85,10.85,0,0,0,293.91,225.81Z" style="fill:#ba68c8"/><path d="M242.5,190.23l.39.25h0l21.42,15.42,3.1,2,24.82,14.44c-4-2.07-8.46,2.76-8.46,2.76l-50.13-32.34S238.42,187.59,242.5,190.23Z" style="fill:#ba68c8"/><path d="M242.5,190.23l.39.25h0l21.42,15.42,3.1,2,24.82,14.44c-4-2.07-8.46,2.76-8.46,2.76l-50.13-32.34S238.42,187.59,242.5,190.23Z" style="fill:#fff;opacity:0.6000000238418579;isolation:isolate"/><path d="M293.91,225.81a3,3,0,0,0-4.76-3.07,10.87,10.87,0,0,0-5.32,8.24,3.46,3.46,0,0,0,1.28,3.24,3.42,3.42,0,0,0,3.48-.17A10.85,10.85,0,0,0,293.91,225.81Z" style="fill:#fff;opacity:0.25;isolation:isolate"/><path d="M287.85,229.76c0,3.37,3.86,1.64,5.74-2.13h0a7.82,7.82,0,0,0,.32-1.82,3,3,0,0,0-4.76-3.07,10.71,10.71,0,0,0-4.46,5Z" style="fill:#ba68c8;opacity:0.5;isolation:isolate"/><path d="M288.46,231.36l-4.15-2.69a6.37,6.37,0,0,1,.38-.94l3.16,2A2.06,2.06,0,0,0,288.46,231.36Z" style="fill:#ba68c8"/><path d="M288.46,231.36l-4.15-2.69a6.37,6.37,0,0,1,.38-.94l3.16,2A2.06,2.06,0,0,0,288.46,231.36Z" style="opacity:0.10000000149011612;isolation:isolate"/><path d="M258.55,215.51c-.93,4.57-3.77,8.49-7.75,12a11.41,11.41,0,0,0,4-1.07,13.05,13.05,0,0,1-.38,3.41,28.8,28.8,0,0,0,7.72-12l-.82-.59Z" style="fill:#ba68c8"/><path d="M258,217.55l1.47.36,2.08,1.73c.23-.57.44-1.15.62-1.73l-.82-.59-2.79-1.81A15.76,15.76,0,0,1,258,217.55Z" style="opacity:0.20000000298023224;isolation:isolate"/><path d="M264.31,205.91a2.79,2.79,0,0,0-2.79.15,8.72,8.72,0,0,0-4.29,6.65,2.81,2.81,0,0,0,1,2.59l0,0,3.09,2a2.81,2.81,0,0,1-1-2.62,8.77,8.77,0,0,1,4.29-6.65,2.77,2.77,0,0,1,2.81-.14l-3.08-2Z" style="fill:#ba68c8"/><path d="M262.15,210.18a8.22,8.22,0,0,1,1.74-1.7l-3.08-2a8.23,8.23,0,0,0-1.74,1.7Zm-.63-4.12h0l3.09,2h0a4.28,4.28,0,0,1,1.11-.4l-3.09-2A4.22,4.22,0,0,0,261.52,206.06Z" style="fill:#fff;opacity:0.15000000596046448;isolation:isolate"/><path d="M257.61,210.83a6.76,6.76,0,0,0-.38,1.88,2.81,2.81,0,0,0,1,2.59l0,0,3.09,2a2.81,2.81,0,0,1-1-2.62,6.78,6.78,0,0,1,.39-1.88Z" style="opacity:0.10000000149011612;isolation:isolate"/></g></g><g id="Graduation_Hat_3" data-name="Graduation Hat 3"><g id="Graduation_Hat" data-name="Graduation Hat"><path d="M363,250.29c-2.1,3.66-6.6,6-13,6-13,.17-28.87-8.73-35.5-19.87-3.26-5.48-3.67-10.47-1.72-14.16l.09-.19,12-21.37c-2.07,3.71-1.7,8.79,1.62,14.36,6.64,11.15,22.53,20.05,35.5,19.87,6.49-.09,11-2.42,13.09-6.13L363.07,250.2Z" style="fill:#37474f"/><path d="M367.38,242.48c-2.1,3.65-6.6,6-13,6-13,.17-28.87-8.73-35.5-19.87-3.26-5.48-3.67-10.48-1.72-14.17l.09-.18,1.26-2.25c-2.07,3.71-1.7,8.79,1.62,14.36,6.63,11.15,22.53,20.05,35.5,19.87,6.49-.09,11-2.42,13.09-6.13l-1.25,2.24A.47.47,0,0,0,367.38,242.48Z" style="fill:#ba68c8"/><path d="M325.25,228.88c-5.3-2.52-9.45,3.1-7.24,12.37a31.86,31.86,0,0,1-3.53-4.79c-3.26-5.48-3.68-10.47-1.72-14.16l.09-.19,12-21.37c-2.07,3.71-1.7,8.79,1.62,14.36,6.63,11.15,22.53,20.05,35.5,19.87h0C346.27,236.31,332.32,232.23,325.25,228.88Z" style="opacity:0.20000000298023224;isolation:isolate"/><ellipse cx="349.91" cy="214.78" rx="16.61" ry="28.77" transform="translate(-8.41 415.21) rotate(-60.76)" style="fill:#263238"/><polygon points="391.8 238.52 363.36 190.77 307.79 191.5 305.94 194.8 334.37 242.56 389.95 241.82 391.8 238.52" style="fill:#37474f"/><polygon points="334.37 242.56 336.22 239.26 391.8 238.52 389.95 241.82 334.37 242.56" style="fill:#fff;opacity:0.20000000298023224;isolation:isolate"/><polygon points="336.22 239.26 390.65 239.16 389.95 241.82 391.8 238.52 336.22 239.26" style="fill:#fff;opacity:0.20000000298023224;isolation:isolate"/><polygon points="363.36 190.77 307.79 191.5 336.22 239.26 391.8 238.52 363.36 190.77" style="fill:#455a64"/><path d="M367,164.55c0-.52-.76-1.09-1.08-.5a55.51,55.51,0,0,0-2.5,5.77,48.26,48.26,0,0,1-2.81,5.56,51.36,51.36,0,0,1-7.26,9.1,27.57,27.57,0,0,0-6.36,9.63,24.62,24.62,0,0,0-1.39,10.35,25.43,25.43,0,0,0,1.24,6,13.13,13.13,0,0,0,3.28,5.54c.38.33,1.05.29.92-.37a16.48,16.48,0,0,0-.88-2.4c-.32-.85-.62-1.71-.9-2.57a22.69,22.69,0,0,1-1.07-5.34,23.1,23.1,0,0,1,7.11-18.91,53.69,53.69,0,0,0,7.6-9.35,35.34,35.34,0,0,0,2.85-5.87,28,28,0,0,0,1-3.23A11.79,11.79,0,0,0,367,164.55Z" style="fill:#ba68c8"/><path d="M357.57,139a85.11,85.11,0,0,1,5,12.6c2.66,8.46,1.22,12.32,3.57,12.53,2.14.18,4.92-7,5.9-15.28a26.09,26.09,0,0,0-1.63-13,.84.84,0,0,0-1-.49.71.71,0,0,0-.53.72c-.27-.66-.45-1.13-1.16-1a.81.81,0,0,0-.59,1c.6,2.26,1.86,7.78,1.06,12.19a37.8,37.8,0,0,0-3.31-13.1.84.84,0,0,0-1-.48h0a.83.83,0,0,0-.55,1.13c1,2.51,3.91,9.13,3.37,17.19a43.2,43.2,0,0,0-4.16-15.58,1,1,0,0,0-1.23-.55h0a.9.9,0,0,0-.41,1.29,40.6,40.6,0,0,1,3.66,12.44c-.14-.4-3.28-8.24-5.34-12.46a.83.83,0,0,0-1-.44l-.15,0A.85.85,0,0,0,357.57,139Zm11.78,15.11c.64-3.84,1.64-10.32,0-16.34C371.74,145.08,370.53,149.75,369.35,154.09Z" style="fill:#ba68c8"/><path d="M364.19,165.54a2.9,2.9,0,1,0,.62-4A2.89,2.89,0,0,0,364.19,165.54Z" style="fill:#ba68c8"/><path d="M364.19,165.54a2.9,2.9,0,1,0,.62-4A2.89,2.89,0,0,0,364.19,165.54Z" style="opacity:0.20000000298023224;isolation:isolate"/><path d="M346.78,213a1.82,1.82,0,0,1,1.65-.77,5.69,5.69,0,0,1,4.49,2.51,1.8,1.8,0,0,1,.2,1.81l-.58,1a1.79,1.79,0,0,1-1.65.77,5.66,5.66,0,0,1-4.48-2.51,1.8,1.8,0,0,1-.21-1.81Z" style="fill:#263238"/><path d="M351.47,217.28c1.64,0,2.28-1.18,1.45-2.59a5.69,5.69,0,0,0-4.49-2.51c-1.63,0-2.28,1.18-1.44,2.59A5.66,5.66,0,0,0,351.47,217.28Z" style="fill:#37474f"/></g></g><g id="Graduation_Hat_2" data-name="Graduation Hat 2"><g id="Graduation_Hat-2" data-name="Graduation Hat"><path d="M163.18,263.18c1.23,4,5.1,7.28,11.35,8.79,12.6,3.06,30.08-2.06,39-11.45,4.39-4.61,5.91-9.39,4.83-13.42,0-.07,0-.13-.05-.2l-6.89-23.5c1.19,4.07-.31,8.94-4.78,13.64-9,9.38-26.43,14.51-39,11.45-6.31-1.54-10.2-4.82-11.39-8.9l6.89,23.48A.36.36,0,0,0,163.18,263.18Z" style="fill:#37474f"/><path d="M160.66,254.6c1.23,4,5.1,7.27,11.35,8.78,12.6,3.06,30.08-2.06,39-11.45,4.39-4.61,5.91-9.39,4.83-13.42l0-.2-.72-2.48c1.19,4.08-.31,8.95-4.78,13.64-9,9.39-26.44,14.52-39,11.46-6.31-1.54-10.2-4.82-11.39-8.9l.72,2.46A.76.76,0,0,0,160.66,254.6Z" style="fill:#ba68c8"/><path d="M204.75,250.73c5.73-1.28,8.52,5.13,4.31,13.67a32.22,32.22,0,0,0,4.51-3.88c4.39-4.61,5.91-9.39,4.83-13.42,0-.07,0-.13-.05-.2l-6.89-23.5c1.19,4.07-.31,8.94-4.78,13.64-9,9.38-26.43,14.51-39,11.45h0C182.61,253.29,197.12,252.42,204.75,250.73Z" style="opacity:0.20000000298023224;isolation:isolate"/><ellipse cx="183.85" cy="231.5" rx="28.77" ry="16.61" transform="translate(-57.73 61.11) rotate(-16.35)" style="fill:#263238"/><polygon points="137.73 245.28 176.1 205.08 230.11 218.18 231.18 221.82 192.81 262.04 138.8 248.92 137.73 245.28" style="fill:#37474f"/><polygon points="192.81 262.04 191.75 258.4 137.73 245.28 138.8 248.92 192.81 262.04" style="fill:#fff;opacity:0.20000000298023224;isolation:isolate"/><polygon points="191.75 258.4 138.71 246.17 138.8 248.92 137.73 245.28 191.75 258.4" style="fill:#fff;opacity:0.20000000298023224;isolation:isolate"/><polygon points="176.1 205.08 230.11 218.18 191.75 258.4 137.73 245.28 176.1 205.08" style="fill:#455a64"/><path d="M150.49,266.3a25.61,25.61,0,0,1,1-2.87,23,23,0,0,0,.85-3.16,42.61,42.61,0,0,0,.47-6.59,26.54,26.54,0,0,1,2.75-10.91,24.34,24.34,0,0,1,16.09-12.89,23.65,23.65,0,0,1,6.16-.6,19,19,0,0,1,2.93.33,7.45,7.45,0,0,1,3.06,1c.47.36,0,1.36-.5,1.36a26.92,26.92,0,0,1-2.83-.32c-.9-.1-1.8-.15-2.7-.17a22.44,22.44,0,0,0-5,.52,20.56,20.56,0,0,0-8.9,4.23,23.78,23.78,0,0,0-8.39,17.09c-.23,4.57-.4,9.77-3.67,13.29C151.41,267,150.3,267.17,150.49,266.3Z" style="fill:#ba68c8"/><path d="M130.43,284.19l.1.11a.85.85,0,0,0,1.08.14c4-2.52,10.74-7.55,11.07-7.81a40.58,40.58,0,0,1-9.63,8.67.91.91,0,0,0-.33,1.32h0a1,1,0,0,0,1.33.17,42.84,42.84,0,0,0,11.71-11.09c-3.76,7.15-9.68,11.29-11.88,12.87a.85.85,0,0,0-.12,1.26l0,0a.85.85,0,0,0,1.1.11,37.69,37.69,0,0,0,9.68-9.42c-1.63,4.17-5.59,8.21-7.29,9.82a.81.81,0,0,0,0,1.19c.54.47.94.16,1.52-.26a.72.72,0,0,0,.07.9.85.85,0,0,0,1.11.1,26.2,26.2,0,0,0,8.18-10.19c3.52-7.6,4.9-15.13,3-16.1-2.11-1.05-2.91,3-9.6,8.8a87.42,87.42,0,0,1-10.89,8.1A.84.84,0,0,0,130.43,284.19ZM140,290.1c4.58-4.25,7.12-10.29,8.59-13.9C147.29,280.51,145.87,285.13,140,290.1Z" style="fill:#ba68c8"/><path d="M150.16,263.74a2.9,2.9,0,1,1-1.59,3.78A2.89,2.89,0,0,1,150.16,263.74Z" style="fill:#ba68c8"/><path d="M150.16,263.74a2.9,2.9,0,1,1-1.59,3.78A2.89,2.89,0,0,1,150.16,263.74Z" style="opacity:0.20000000298023224;isolation:isolate"/><path d="M187.32,230.4a1.8,1.8,0,0,0-1.44-1.12,5.66,5.66,0,0,0-4.93,1.45,1.81,1.81,0,0,0-.6,1.72c.05.19.27.94.33,1.14a1.8,1.8,0,0,0,1.44,1.12,5.66,5.66,0,0,0,4.93-1.45,1.81,1.81,0,0,0,.6-1.72C187.6,231.35,187.37,230.6,187.32,230.4Z" style="fill:#263238"/><path d="M181.79,233.57c-1.6-.39-2-1.66-.84-2.84a5.66,5.66,0,0,1,4.93-1.45c1.59.39,2,1.66.83,2.85A5.66,5.66,0,0,1,181.79,233.57Z" style="fill:#37474f"/></g></g><g id="Graduation_Hat_1" data-name="Graduation Hat 1"><g id="Graduation_Hat-3" data-name="Graduation Hat"><path d="M141.06,48.6l-.23,0a1.28,1.28,0,0,0-1.15,1.18c-.55,7.1-.62,19.9-.59,20.53-2.17-7.16-2-16.32-1.77-19.57A1.37,1.37,0,0,0,136,49.17h0a1.47,1.47,0,0,0-1.42,1.46c-.27,3.39-.65,14.14,2.81,24.29-5.26-11.06-4.89-22-4.81-26.12a1.28,1.28,0,0,0-1.42-1.29h0A1.28,1.28,0,0,0,130,48.74c-.16,4.13-.13,12.51,2.62,20.33-3.58-5.78-4.88-14.26-5.28-17.79a1.24,1.24,0,0,0-1.42-1.12c-1.06.23-1.05,1-1.07,2.08a1.08,1.08,0,0,0-1.15-.72,1.28,1.28,0,0,0-1.13,1.25A39.56,39.56,0,0,0,127.5,72c6,11.18,13.9,19.71,16.82,18.26,3.19-1.61-1-6.25-1.95-19.66A131.58,131.58,0,0,1,142.46,50,1.29,1.29,0,0,0,141.06,48.6ZM125.2,54.8c1,9.41,6,18,9.06,23.06C130.18,72.39,125.87,66.48,125.2,54.8Z" style="fill:#ba68c8"/><path d="M254.6,112.3a46.25,46.25,0,0,0-9.34-11.1,59.57,59.57,0,0,0-10.73-7.67,51.47,51.47,0,0,0-25-6.57,44.43,44.43,0,0,0-13,1.93A62.45,62.45,0,0,0,185.29,94c-3.31,1.82-6.57,3.74-10,5.3-.9.41-1.24.55-2,.85s-1.87.67-2.82.94a22.31,22.31,0,0,1-4.95.89,19.47,19.47,0,0,1-11-2.61,22.69,22.69,0,0,1-5.12-3.92,20.9,20.9,0,0,1-2.29-2.59c-.27-.37-.52-.74-.8-1.1a4.67,4.67,0,0,0-.85-.87,3.16,3.16,0,0,1-1.14-1.49c-.37-.69-1.61-.68-1.41.3s.07,1.94.34,2.87a8.94,8.94,0,0,0,.85,1.86,27.37,27.37,0,0,0,1.77,2.75,21.16,21.16,0,0,0,4.65,4.41,23.14,23.14,0,0,0,10.35,4.18c7.9,1.07,15.21-2.12,22-5.82,3.34-1.82,6.63-3.74,10.07-5.38a40.12,40.12,0,0,1,11.63-3.52A45.78,45.78,0,0,1,229.7,95a60.55,60.55,0,0,1,12.12,7.39,138.18,138.18,0,0,1,11.88,11C254.37,114,255,112.92,254.6,112.3Z" style="fill:#ba68c8"/><path d="M147.91,91.13a4.4,4.4,0,1,1-3.13-5.37A4.39,4.39,0,0,1,147.91,91.13Z" style="fill:#ba68c8"/><path d="M147.91,91.13a4.4,4.4,0,1,1-3.13-5.37A4.39,4.39,0,0,1,147.91,91.13Z" style="opacity:0.20000000298023224;isolation:isolate"/><polygon points="319.12 88.98 257.13 150.9 172.5 128.22 170.96 122.44 232.94 60.5 317.58 83.21 319.12 88.98" style="fill:#37474f"/><polygon points="232.94 60.5 234.49 66.27 319.12 88.98 317.58 83.21 232.94 60.5" style="fill:#fff;opacity:0.20000000298023224;isolation:isolate"/><polygon points="234.49 66.27 317.61 87.55 317.58 83.21 319.12 88.98 234.49 66.27" style="fill:#fff;opacity:0.20000000298023224;isolation:isolate"/><polygon points="257.13 150.9 172.5 128.22 234.49 66.27 319.12 88.98 257.13 150.9" style="fill:#455a64"/><path d="M290.57,100.43C288.78,94,282.79,88.78,273,86.16c-19.76-5.3-47.5,2.12-62,16.58-7.11,7.1-9.68,14.57-8.12,21,0,.1,0,.21.06.31l8.35,31.2c-1.73-6.47.82-14.09,8-21.32,14.46-14.46,42.2-21.88,62-16.58,9.87,2.65,15.88,8,17.61,14.45l-8.34-31.16C290.61,100.55,290.58,100.49,290.57,100.43Z" style="fill:#37474f"/><path d="M294.22,114.06c-1.8-6.39-7.78-11.65-17.57-14.27-19.75-5.3-47.49,2.12-61.95,16.58-7.11,7.1-9.68,14.57-8.12,21,0,.1,0,.21.06.31l1.05,3.94c-1.73-6.47.82-14.09,8.05-21.32,14.46-14.46,42.2-21.88,62-16.58,9.88,2.65,15.88,8,17.62,14.45l-1.05-3.9C294.26,114.18,294.23,114.12,294.22,114.06Z" style="fill:#ba68c8"/><path d="M224.57,118.5c-9.08,1.8-13.24-8.41-6.27-21.71a50.22,50.22,0,0,0-7.25,5.95c-7.11,7.1-9.68,14.57-8.12,21,0,.1,0,.21.06.31l8.35,31.2c-1.73-6.47.81-14.08,8-21.32,14.46-14.46,42.2-21.88,62-16.58h0C257.93,109.19,236.67,116.11,224.57,118.5Z" style="opacity:0.20000000298023224;isolation:isolate"/><ellipse cx="255.15" cy="143.5" rx="45.35" ry="26.18" transform="translate(-28.42 70.83) rotate(-14.98)" style="fill:#263238"/><ellipse cx="255.15" cy="143.5" rx="43.62" ry="24.4" transform="matrix(0.97, -0.26, 0.26, 0.97, -28.42, 70.83)" style="fill:#37474f"/><path d="M252.26,160.62c-14.34-4.87-16.28-25.92-4.46-36.73l-19.94,5.34a49.68,49.68,0,0,0-7,5.57c-14,13.61-10,28.53,8.92,33.33,18.2,4.62,43.58-1.81,57.93-14.43C276.9,159.39,262,163.93,252.26,160.62Z" style="opacity:0.20000000298023224;isolation:isolate"/><path d="M220.9,134.8c-.7.69-1.35,1.38-2,2.07.87.29,1.78.56,2.73.8,18.92,4.8,45.59-2.34,59.59-15.94.7-.69,1.34-1.38,2-2.07-.88-.29-1.78-.56-2.73-.8C261.57,114.06,234.89,121.2,220.9,134.8Z"/></g></g><rect x="0.5" y="0.5" width="500" height="291.95" style="fill:none;stroke:#282828;stroke-miterlimit:10"/></g></g></svg>