<svg id="Calque_1" data-name="Calque 1" xmlns="http://www.w3.org/2000/svg" viewBox="0 0 500 408.52"><g id="Shadows"><ellipse cx="95.58" cy="327.27" rx="24.63" ry="14.22" style="fill:#e6e6e6"/><path d="M285.26,251.05,123.38,344.51a4,4,0,0,0,0,7l95.14,54.93a15.73,15.73,0,0,0,15.73,0L396.12,313a4,4,0,0,0,0-7L301,251.05A15.73,15.73,0,0,0,285.26,251.05Z" style="fill:#e6e6e6"/><path d="M236.65,252l-64.8,37.42a8.54,8.54,0,0,0,0,14.81L204.48,323a14.18,14.18,0,0,0,14.2,0l64.81-37.41a8.56,8.56,0,0,0,0-14.82L250.85,252A14.18,14.18,0,0,0,236.65,252Z" style="fill:#e6e6e6"/></g><g id="Plant"><path d="M96.88,290.47s-15.22-14.86-6.56-39.76c4.85-14,20.94-24.2,30.1-25.16a42.75,42.75,0,0,0-7.16,12.07l-11.53,7.67,10.6-3.32-2.26,9.08s-9.86,6-11.32,7.26l10.63-2.78S108.56,281.23,96.88,290.47Z" style="fill:#ba68c8"/><path d="M96.88,290.47s-15.22-14.86-6.56-39.76c4.85-14,20.94-24.2,30.1-25.16a42.75,42.75,0,0,0-7.16,12.07l-11.53,7.67,10.6-3.32-2.26,9.08s-9.86,6-11.32,7.26l10.63-2.78S108.56,281.23,96.88,290.47Z" style="opacity:0.4000000059604645;isolation:isolate"/><path d="M96.88,290.47s-7.88-31.1,3.78-49.24C100.66,241.23,87,257.24,96.88,290.47Z" style="fill:#fff"/><path d="M114.3,294.68l-18.63-.23h-.19l-18.62.23s-.21,22.95,6.86,32.28h0c2,2.48,6.52,4.23,11.86,4.23s9.92-1.75,11.87-4.24C114.5,317.61,114.3,294.68,114.3,294.68Z" style="fill:#37474f"/><ellipse cx="95.58" cy="294.68" rx="18.72" ry="10.05" style="fill:#455a64"/><path d="M95.58,292c6.44,0,11.89,2.06,13.81,4.92a4,4,0,0,0,.75-2.26c0-4-6.52-7.18-14.56-7.18S81,290.71,81,294.68a4.08,4.08,0,0,0,.74,2.26C83.68,294.08,89.14,292,95.58,292Z" style="fill:#263238"/><path d="M95.58,292c-6.44,0-11.9,2.06-13.82,4.92,1.92,2.87,7.38,4.93,13.82,4.93s11.89-2.07,13.81-4.93C107.47,294.08,102,292,95.58,292Z" style="fill:#e0e0e0"/><path d="M95.81,298.19s-7.22-.28-13.4-9.86c-2.56-4-3.79-6-3.79-6l10.06-.75-11.26-2.82-5.33-8.14,9.35-.69s-7-2.44-11.93-2.47c0,0-8.63-15.23-11.15-17.41A48.92,48.92,0,0,1,92.43,267C106.6,283.71,97.91,298.62,95.81,298.19Z" style="fill:#ba68c8"/><path d="M95.81,298.19s4.51-27.18-24.28-43.53C71.53,254.66,101.41,269,95.81,298.19Z" style="fill:#fff"/><path d="M95.81,298.19s6.53.42,13-7.64c2.67-3.32,4-5.08,4-5.08l-9-1.62,10.42-1.48,5.57-6.84L111.43,274s6.51-1.55,11-1.11c0,0,9.21-12.93,11.69-14.65a44.36,44.36,0,0,0-32.32,12.06C87.43,284.11,93.87,298.38,95.81,298.19Z" style="fill:#ba68c8"/><path d="M95.81,298.19s6.53.42,13-7.64c2.67-3.32,4-5.08,4-5.08l-9-1.62,10.42-1.48,5.57-6.84L111.43,274s6.51-1.55,11-1.11c0,0,9.21-12.93,11.69-14.65a44.36,44.36,0,0,0-32.32,12.06C87.43,284.11,93.87,298.38,95.81,298.19Z" style="opacity:0.20000000298023224;isolation:isolate"/><path d="M95.81,298.19s-1.52-24.95,26-37C121.81,261.21,93.5,271.34,95.81,298.19Z" style="fill:#fff"/></g><g id="Pictures"><polygon points="128.91 76.91 128.91 126.59 85.88 151.43 85.88 101.75 128.91 76.91" style="fill:#fafafa"/><path d="M124.25,79.6v44.3L85.88,146.06V101.75L124.25,79.6m2.33-4-43,24.84v49.68l2.33,1.34,43-24.84V76.91l-2.33-1.34Z" style="fill:#e0e0e0"/><path d="M126.58,81v44.3L88.21,147.4V103.1L126.58,81m2.33-4-43,24.84v49.68l43-24.84V76.91Z" style="fill:#ebebeb"/><polygon points="122.59 115.23 90.04 134.02 99.66 109 106.32 116.91 113.13 107.22 122.59 115.23" style="fill:#e0e0e0"/><path d="M111.3,99.62a6.54,6.54,0,0,1-3,5.14c-1.64.95-3,.18-3-1.71a6.55,6.55,0,0,1,3-5.14C110,97,111.3,97.73,111.3,99.62Z" style="fill:#e0e0e0"/><polygon points="143.26 15.06 143.26 54.64 108.99 74.43 108.99 34.85 143.26 15.06" style="fill:#fafafa"/><path d="M139.55,17.2V52.5L109,70.14V34.85L139.55,17.2M141.4,14,107.13,33.78V73.36L109,74.43l34.27-19.79V15.06L141.4,14Z" style="fill:#e0e0e0"/><path d="M141.4,18.28V53.57L110.84,71.21V35.92L141.4,18.28m1.86-3.22L109,34.85V74.43l34.27-19.79V15.06Z" style="fill:#ebebeb"/><polygon points="138.23 45.59 112.3 60.55 119.96 40.62 125.27 46.92 130.69 39.2 138.23 45.59" style="fill:#e0e0e0"/><path d="M129.24,33.15a5.24,5.24,0,0,1-2.37,4.1c-1.31.75-2.36.14-2.36-1.37a5.19,5.19,0,0,1,2.36-4.09C128.18,31,129.24,31.64,129.24,33.15Z" style="fill:#e0e0e0"/></g><g id="Character"><path d="M216.15,243.85l13.92,84.88a2.64,2.64,0,0,0,2.61,2.22h0a2.64,2.64,0,0,0,2.63-2.94l-9.76-87.57Z" style="fill:#263238"/><path d="M264.17,215.29l13.91,84.89a2.65,2.65,0,0,0,2.62,2.22h0a2.64,2.64,0,0,0,2.63-2.94l-9.76-87.57Z" style="fill:#263238"/><path d="M194.8,224l-13.73,73.16a2.21,2.21,0,0,1-2.19,1.82,2.24,2.24,0,0,1-2.21-2.56l10.14-67.8Z" style="fill:#263238"/><path d="M243.36,196.71l-13.65,72.7a2.21,2.21,0,0,1-2.19,1.82,2.24,2.24,0,0,1-2.21-2.56l10.06-67.36Z" style="fill:#263238"/><path d="M239.4,191.17a19.46,19.46,0,0,1-11.49-15.87c-2.21-22.28-10.06-68.18-36.64-52.9C158.45,141.26,170.2,196,175,213.59a23.77,23.77,0,0,0,6,10.49c5.93,6,18.2,16.25,39.08,25a12.26,12.26,0,0,0,8.08.48c10.37-2.95,37.46-12,51-29.3a4.72,4.72,0,0,0-.78-6.6C272.88,209.32,260.52,200.58,239.4,191.17Z" style="fill:#ba68c8"/><path d="M239.4,191.17a19.46,19.46,0,0,1-11.49-15.87c-2.21-22.28-10.06-68.18-36.64-52.9C158.45,141.26,170.2,196,175,213.59a23.77,23.77,0,0,0,6,10.49c5.93,6,18.2,16.25,39.08,25a12.26,12.26,0,0,0,8.08.48c10.37-2.95,37.46-12,51-29.3a4.72,4.72,0,0,0-.78-6.6C272.88,209.32,260.52,200.58,239.4,191.17Z" style="opacity:0.5;isolation:isolate"/><path d="M280.11,217.13a4.7,4.7,0,0,1-1,3.14c-.72.92-1.49,1.82-2.28,2.69h0c-.44.48-.88.95-1.34,1.42l0,0c-.45.46-.91.91-1.38,1.36l0,0c-.47.44-.94.88-1.43,1.31l0,0c-.49.44-1,.87-1.49,1.29l0,0c-7.66,6.43-17,11.32-25.26,14.86h0l-1.53.64-.16.07-1.42.57-.25.1-1.32.52-.3.11-1.23.47-.36.13-1.14.41-.41.15-1.05.37-.43.16-1,.33-.46.16-.88.29-.51.16-.78.26-.54.17-.68.21-.58.18-.57.17-.71.21-.36.11-1,.29a12.29,12.29,0,0,1-8.09-.48c-20.87-8.76-33.14-19-39.07-25a23.77,23.77,0,0,1-6-10.49c-4.77-17.56-16.52-72.33,16.3-91.19.58-.33,1.15-.63,1.71-.91l.37-.18c.55-.26,1.1-.5,1.64-.7l.16-.06c.51-.2,1-.36,1.52-.51l.23-.07q.81-.23,1.59-.36l.13,0a15.57,15.57,0,0,1,3.15-.22h.06a13.33,13.33,0,0,1,3,.46h0c-5.24-2.32-11.64-2.21-18,1.43-32.81,18.86-21.06,73.63-16.29,91.19l.81,3a28.57,28.57,0,0,0,10.24,15.31l8.51,6.5h0A134.2,134.2,0,0,0,220,254.34a12.28,12.28,0,0,0,8.11.49c10.36-3,37.46-12,51-29.3a4.58,4.58,0,0,0,1-2.57h0v-5.83Z" style="fill:#ba68c8"/><path d="M280.11,217.13a4.7,4.7,0,0,1-1,3.14c-.72.92-1.49,1.82-2.28,2.69h0c-.44.48-.88.95-1.34,1.42l0,0c-.45.46-.91.91-1.38,1.36l0,0c-.47.44-.94.88-1.43,1.31l0,0c-.49.44-1,.87-1.49,1.29l0,0c-7.66,6.43-17,11.32-25.26,14.86h0l-1.53.64-.16.07-1.42.57-.25.1-1.32.52-.3.11-1.23.47-.36.13-1.14.41-.41.15-1.05.37-.43.16-1,.33-.46.16-.88.29-.51.16-.78.26-.54.17-.68.21-.58.18-.57.17-.71.21-.36.11-1,.29a12.29,12.29,0,0,1-8.09-.48c-20.87-8.76-33.14-19-39.07-25a23.77,23.77,0,0,1-6-10.49c-4.77-17.56-16.52-72.33,16.3-91.19.58-.33,1.15-.63,1.71-.91l.37-.18c.55-.26,1.1-.5,1.64-.7l.16-.06c.51-.2,1-.36,1.52-.51l.23-.07q.81-.23,1.59-.36l.13,0a15.57,15.57,0,0,1,3.15-.22h.06a13.33,13.33,0,0,1,3,.46h0c-5.24-2.32-11.64-2.21-18,1.43-32.81,18.86-21.06,73.63-16.29,91.19l.81,3a28.57,28.57,0,0,0,10.24,15.31l8.51,6.5h0A134.2,134.2,0,0,0,220,254.34a12.28,12.28,0,0,0,8.11.49c10.36-3,37.46-12,51-29.3a4.58,4.58,0,0,0,1-2.57h0v-5.83Z" style="opacity:0.6000000238418579;isolation:isolate"/><path d="M298.21,279.79c-2.24-14.28-5.11-37.12-6.75-50.63-.11-.88-.26-1.76-.45-2.63a28,28,0,0,0-13.21-17.89l-33.66-20-22.85-12s-6.08,17.62,1,28.39c5.88,9,31.84,20.09,39.56,23.84s7.88,4.76,7.72,9.77S269.38,250,278.86,270c2.73,5.74,4.63,10,5.95,13.33A21,21,0,0,0,298.21,279.79Z" style="fill:#ba68c8"/><path d="M298.21,279.79c-2.24-14.28-5.11-37.12-6.75-50.63a28.57,28.57,0,0,0-.76-3.92,27.9,27.9,0,0,0-12.85-16.57L244.14,188.6l-22.85-12s-6.08,17.62,1,28.39c5.88,9,31.84,20.09,39.56,23.83s7.88,4.77,7.72,9.78S269.38,250,278.86,270c2.73,5.74,4.63,10,5.95,13.33A21,21,0,0,0,298.21,279.79Z" style="opacity:0.699999988079071;isolation:isolate"/><path d="M287.8,294.92a3.4,3.4,0,0,0,.41,1.71,23.72,23.72,0,0,0,5.06,6c4.54,4.09,19.57,20.1,24.85,10.16,0,0-15.53-14.87-17.58-21a102.29,102.29,0,0,1-2.33-12,21,21,0,0,1-13.4,3.48C287.72,290.51,287.85,292.87,287.8,294.92Z" style="fill:#ffa8a7"/><path d="M304,294l-.43-1.29a2,2,0,0,0-2.42-1.24l-6.29,1.94a1.93,1.93,0,0,0-1.36,1.85v.63a1.13,1.13,0,0,1-1.13,1.12h0a5.73,5.73,0,0,1-3.65-1.31l-.88-.73v-2.2h0a3.9,3.9,0,0,0-1.75,3.44c.08,1.5.15,3.32.09,4-.1,1.32-1.33,6.82.14,8.45s4.77,1.82,8.85,1.38,8.54,3.57,12.32,5.06,19.44,4.69,19.4-5.32c0-2.55-2.53-3.59-5-4.49s-11.41-4.06-13.7-5.95a21,21,0,0,1-2.55-2.51A8.45,8.45,0,0,1,304,294Z" style="fill:#455a64"/><path d="M307.45,315.09c-3.78-1.49-8.24-5.5-12.32-5.06s-7.38.24-8.85-1.38a3.91,3.91,0,0,1-.7-2.31c-.07,1.54.05,3,.7,3.74,1.47,1.62,4.77,1.82,8.85,1.38s8.54,3.57,12.32,5.06,19.44,4.69,19.4-5.32a3,3,0,0,0-.06-.43C325.8,319.55,311.1,316.52,307.45,315.09Z" style="fill:#263238"/><path d="M267.64,297.14c-2.25-14.29-5.12-37.13-6.76-50.63a28.42,28.42,0,0,0-9.82-18.24l-40.39-34.35-21.59-.37s-4.45,18,2.62,28.77c5.88,9,31.84,20.08,39.55,23.83s7.88,4.76,7.72,9.77-.17,11.39,9.32,31.37c2.72,5.74,4.62,10,6,13.33A21,21,0,0,0,267.64,297.14Z" style="fill:#ba68c8"/><path d="M267.64,297.14c-2.25-14.29-5.12-37.13-6.76-50.63a28.42,28.42,0,0,0-9.82-18.24l-40.39-34.35-21.59-.37s-4.45,18,2.62,28.77c5.88,9,31.84,20.08,39.55,23.83s7.88,4.76,7.72,9.77-.17,11.39,9.32,31.37c2.72,5.74,4.62,10,6,13.33A21,21,0,0,0,267.64,297.14Z" style="opacity:0.699999988079071;isolation:isolate"/><path d="M257.21,311c0,.6-.41,2.37.42,3,1.06.78,2.06,3.32,5.06,6,4.54,4.08,9.33-4.72,7.27-10.84a102.08,102.08,0,0,1-2.32-12,21.06,21.06,0,0,1-13.41,3.48C257.15,307.85,257.27,308.93,257.21,311Z" style="fill:#ffa8a7"/><path d="M230.52,119h0a13.22,13.22,0,0,1,14.61,8.86,57.36,57.36,0,0,1,2.73,13.21c1.16,13.85,1.49,20.78,1.49,20.78l13.91,6.31s-7.51.36-7,11l-17.33-4.37Z" style="fill:#ffa8a7"/><path d="M249.86,153.52c-2.05-15-2.86-22.85-4.62-26.58a13.47,13.47,0,0,0-14.72-7.9l5.24,41.2.67-.07a21.73,21.73,0,0,0,12.48-5.51Z" style="fill:#ba68c8"/><path d="M249.86,153.52c-2.05-15-2.86-22.85-4.62-26.58a13.47,13.47,0,0,0-14.72-7.9l5.24,41.2.67-.07a21.73,21.73,0,0,0,12.48-5.51Z" style="opacity:0.20000000298023224;isolation:isolate"/><path d="M249.35,161.89a9.66,9.66,0,0,0-4.11,2.52s1.68-3.19,4-4.17Z" style="fill:#f28f8f"/><path d="M197.1,131.18l15.56-7.53,12.82-4.43s10.28-3.28,12.91,10.41c2.16,11.26,2.44,54,2.44,54l-.23,4.68s-5.93,16.62-27.12,18-25.32-7.56-25.32-7.56S186,142.18,197.1,131.18Z" style="fill:#ba68c8"/><path d="M246.13,85.48s4.81,12.33-1.83,17.75S240,86.85,240,86.85Z" style="fill:#263238"/><path d="M234.41,402.93a6,6,0,0,1-5.46,0c-1.51-.87-1.51-2.28,0-3.15a6,6,0,0,1,5.46,0C235.92,400.65,235.92,402.06,234.41,402.93Z" style="fill:#455a64"/><rect x="227.83" y="308.31" width="7.72" height="92.96" style="fill:#37474f"/><ellipse cx="143.87" cy="349.79" rx="3.86" ry="2.23" style="fill:#455a64"/><rect x="140.01" y="256.74" width="7.72" height="92.96" style="fill:#263238"/><path d="M378.36,319.53a6,6,0,0,1-5.46,0c-1.5-.87-1.5-2.29,0-3.16a6,6,0,0,1,5.46,0C379.87,317.24,379.87,318.66,378.36,319.53Z" style="fill:#455a64"/><rect x="371.78" y="224.91" width="7.72" height="92.96" style="fill:#37474f"/><path d="M284,249.18a5.42,5.42,0,0,1-4.9,0c-1.35-.78-1.35-2.05,0-2.83a5.42,5.42,0,0,1,4.9,0C285.31,247.13,285.31,248.4,284,249.18Z" style="fill:#455a64"/><rect x="278.05" y="170.11" width="6.93" height="77.58" style="fill:#455a64"/><polygon points="140 241.34 140 259.84 231.69 312.77 231.69 294.28 140 241.34" style="fill:#263238"/><polygon points="379.5 208.94 231.69 294.28 231.69 312.77 379.5 227.44 379.5 208.94" style="fill:#37474f"/><polygon points="287.81 156.01 140 241.34 231.69 294.28 379.5 208.94 287.81 156.01" style="fill:#455a64"/><polygon points="213.66 213.59 247.28 233 303.17 200.68 269.56 180.87 213.66 213.59" style="fill:#ebebeb"/><polygon points="243.66 208.07 256.27 200.79 248.37 196.22 235.76 203.51 243.66 208.07" style="fill:#e0e0e0"/><polygon points="248.71 228.16 231.72 218.16 264.92 198.06 248.71 228.16" style="fill:#e0e0e0"/><path d="M258.22,165.8l13.45,6.31a118.47,118.47,0,0,1,11.88,3.67s9.35,3.82,9.78,6.33-7,8.55-13.57,5.61a21.07,21.07,0,0,0-5.46-2c-1.75-.19-7-1-10.74-4.61l-15.7-4.09S247.07,167.36,258.22,165.8Z" style="fill:#ffa8a7"/><path d="M266.93,184.56c1.55,1.67,6,5.88,7,7.09s3.26-1.91-.75-6.57a37.63,37.63,0,0,1-9.69-5.27A39.08,39.08,0,0,0,266.93,184.56Z" style="fill:#ffa8a7"/><rect x="212.66" y="104.33" width="15.96" height="19.32" style="fill:#ffa8a7"/><path d="M228.63,123.65a25.69,25.69,0,0,1-14.67-14v-5.37h14.67Z" style="fill:#f28f8f"/><path d="M234,78.82s14.52,1.75,11.19,26.55c-1.54,11.48-4.61,17.28-13.45,16.29-10-1.11-23.87-8.89-21.72-28.55S234,78.82,234,78.82Z" style="fill:#ffa8a7"/><polygon points="234.81 100.94 234.29 109.5 239.4 108.27 234.81 100.94" style="fill:#f28f8f"/><path d="M227.21,100.17a1.75,1.75,0,1,0,1.85-1.64A1.75,1.75,0,0,0,227.21,100.17Z" style="fill:#263238"/><path d="M238.76,99.65A1.75,1.75,0,1,0,240.62,98,1.76,1.76,0,0,0,238.76,99.65Z" style="fill:#263238"/><path d="M242.86,96.26,239.57,94s1.39-1.28,2.65-.38A2.39,2.39,0,0,1,242.86,96.26Z" style="fill:#263238"/><path d="M228.42,95.87l-3.55,1.78s-.44-1.84.95-2.5A2.38,2.38,0,0,1,228.42,95.87Z" style="fill:#263238"/><path d="M234.54,113a8.93,8.93,0,0,1-5.53-1.85s-.56,2.93,1.88,3.65S234.54,113,234.54,113Z" style="fill:#f28f8f"/><path d="M212.49,100.74s2.23,4.64,3.61,4.48,0-17.8,2.86-17.91,16.36,6.59,28.3-2.06c4.58-3.33,5.49-11.8,2.74-11s-6.46,3.21-11.47,2.86-22.55-8.47-26.9,3c0,0-9.7-.79-6.06,18.47.91,4.78,3.77,16.65,7.09,17.82Z" style="fill:#263238"/><path d="M213.27,105a9.78,9.78,0,0,0-.78-4.24,4.5,4.5,0,0,0-3.89-3c-4.48-.12-5.09,4.19-5,5.73.16,4,3.43,8.4,9.51,8.56Z" style="fill:#ffa8a7"/><path d="M214.66,191.43l11.44,9.06a39.26,39.26,0,0,1,5.8,1c2.19.66,7.93,2.77,9.45,3.1s-.44,2.94-4.42,2c0,0,8.34,5.72,8.23,8.26s-8.67,6.88-14.45,2.62a21.06,21.06,0,0,0-4.91-3.08c-1.68-.56-6.61-2.46-9.54-6.78l-10-5.21S203.44,190.6,214.66,191.43Z" style="fill:#ffa8a7"/><path d="M202.18,128.72s6.67,5.18,2.57,21.25-6.29,29.92-6.29,29.92l16.2,11.54a14.28,14.28,0,0,0-8.4,11s-25.54-10-26.06-16.49,5.33-34.35,6.22-39.48S191.85,131.15,202.18,128.72Z" style="fill:#ffa8a7"/><path d="M198.46,179.89a15.12,15.12,0,0,0-6.11.06,12.8,12.8,0,0,1,6.25-1.55Z" style="fill:#f28f8f"/><path d="M311,163.64l-5.85,38.26a.07.07,0,0,1,0,.06L247,235.64a.09.09,0,0,1-.13-.09l5.67-37.1a5.53,5.53,0,0,1,2.56-3.86l53.26-32.66A1.71,1.71,0,0,1,311,163.64Z" style="fill:#fafafa"/><path d="M247,235.64l-31-18a4.7,4.7,0,0,1-2.35-4.08h0L247.28,233Z" style="fill:#e0e0e0"/><path d="M277.37,200.51c0,2.73,1.92,3.84,4.28,2.48a9.48,9.48,0,0,0,4.29-7.43c0-2.73-1.92-3.84-4.29-2.47A9.49,9.49,0,0,0,277.37,200.51Z" style="fill:#e0e0e0"/><path d="M213.17,85.73s-2.63-3.9-1-5.16S215,83.32,213.17,85.73Z" style="fill:#263238"/><path d="M213.61,86.54S209,86,209.05,83.92,213,83.58,213.61,86.54Z" style="fill:#263238"/><path d="M212.66,123.65s3.43,9,11.33,7.87,4.64-7.87,4.64-7.87Z" style="fill:#ffa8a7"/><path d="M202.18,128.72s5.2,2.49,4.4,13-4.93,31.54-4.93,31.54-18.61,7.53-20.39-3.09c-.45-2.75,4.24-28.18,8.25-33.57A19,19,0,0,1,202.18,128.72Z" style="fill:#ba68c8"/><path d="M202.18,128.72s5.2,2.49,4.4,13-4.93,31.54-4.93,31.54-18.61,7.53-20.39-3.09c-.45-2.75,4.24-28.18,8.25-33.57A19,19,0,0,1,202.18,128.72Z" style="opacity:0.20000000298023224;isolation:isolate"/><path d="M257.63,311.49a5.05,5.05,0,0,0,3,2.13c1.13.17-1.15-2.76,1.57-3.93s8.95-2.79,9.51-.45l.69,2.92a17.31,17.31,0,0,0,3.84,7.45,36.34,36.34,0,0,0,6.16,5.88c3.56,2.3,9.41,7.85,1.9,12.57s-16.74.74-18.54-4.64-3.72-6.92-4.68-7.82a10.17,10.17,0,0,1-4.06-5.92,56.26,56.26,0,0,1-1-7.19,2.7,2.7,0,0,1,1.24-2.49h0Z" style="fill:#455a64"/><path d="M284.34,338.06c-7.5,4.73-16.73.74-18.54-4.63s-3.72-6.93-4.68-7.82a10.77,10.77,0,0,1-3.74-4.88c0,.15,0,.3,0,.45.29,4.65,3.14,5.74,4.11,6.63s2.54,2.37,4.34,7.74,11.33,8.73,18.84,4c3.64-2.3,4.13-4.78,3.27-7C288.11,334.37,287.19,336.27,284.34,338.06Z" style="fill:#263238"/><path d="M248.26,266.68l-23.92,13.81-30.2-17.43,24-13.84a2.05,2.05,0,0,1,2.06,0l28.09,16.22A.71.71,0,0,1,248.26,266.68Z" style="fill:#ba68c8"/><path d="M248.26,266.68l-23.92,13.81-30.2-17.43,24-13.84a2.05,2.05,0,0,1,2.06,0l28.09,16.22A.71.71,0,0,1,248.26,266.68Z" style="opacity:0.699999988079071;isolation:isolate"/><path d="M246.6,266.17,224.34,279l-28.11-16.22,22.31-12.89a1.92,1.92,0,0,1,1.91,0L246.6,265A.66.66,0,0,1,246.6,266.17Z" style="fill:#fff"/><polygon points="224.34 279.03 224.34 276.52 246.94 263.47 246.94 265.61 224.34 279.03" style="fill:#fff"/><polygon points="224.34 279.03 224.34 276.52 196.23 260.3 196.23 262.8 224.34 279.03" style="fill:#e0e0e0"/><path d="M248.26,262.71l-23.92,13.81-30.2-17.43,24-13.84a2.05,2.05,0,0,1,2.06,0l28.09,16.22A.71.71,0,0,1,248.26,262.71Z" style="fill:#ba68c8"/><path d="M248.26,262.71l-23.92,13.81-30.2-17.43,24-13.84a2.05,2.05,0,0,1,2.06,0l28.09,16.22A.71.71,0,0,1,248.26,262.71Z" style="opacity:0.5;isolation:isolate"/><path d="M221.21,278.69a.52.52,0,0,1-.44,0,.55.55,0,0,1-.29-.48v-2.27a3,3,0,0,1,1.45-2.55l.09-.05a.28.28,0,0,1,.27,0,.25.25,0,0,1,.13.23.47.47,0,1,0,.94,0,1.2,1.2,0,0,0-.61-1.05,1.22,1.22,0,0,0-1.21,0l-.09.05a3.92,3.92,0,0,0-1.91,3.36v2.27a1.49,1.49,0,0,0,.78,1.31,1.57,1.57,0,0,0,.7.17,1.44,1.44,0,0,0,.82-.25.45.45,0,0,0,.19-.26Z" style="fill:#fff"/><path d="M216.74,276.11a.52.52,0,0,1-.44,0,.55.55,0,0,1-.29-.48v-2.27a3,3,0,0,1,1.45-2.55l.09-.05a.28.28,0,0,1,.27,0,.25.25,0,0,1,.13.23.47.47,0,0,0,.94,0,1.19,1.19,0,0,0-.61-1,1.17,1.17,0,0,0-1.21,0L217,270a3.91,3.91,0,0,0-1.91,3.35v2.27a1.49,1.49,0,0,0,.78,1.31,1.49,1.49,0,0,0,1.52-.08.42.42,0,0,0,.19-.26Z" style="fill:#fff"/><path d="M212.27,273.53a.52.52,0,0,1-.44,0,.55.55,0,0,1-.29-.48v-2.27a3,3,0,0,1,1.45-2.55l.09,0a.28.28,0,0,1,.27,0,.25.25,0,0,1,.13.23.47.47,0,0,0,.94,0,1.2,1.2,0,0,0-.61-1.05,1.22,1.22,0,0,0-1.21,0l-.09.06a3.9,3.9,0,0,0-1.91,3.35V273a1.49,1.49,0,0,0,.78,1.31,1.57,1.57,0,0,0,.7.17,1.42,1.42,0,0,0,.82-.25.42.42,0,0,0,.19-.26Z" style="fill:#fff"/><path d="M207.8,271a.52.52,0,0,1-.44,0,.55.55,0,0,1-.29-.48v-2.27a3,3,0,0,1,1.45-2.55l.09-.05a.28.28,0,0,1,.27,0,.25.25,0,0,1,.13.23.47.47,0,0,0,.94,0,1.2,1.2,0,0,0-.61-1.05,1.22,1.22,0,0,0-1.21,0l-.09.06a3.9,3.9,0,0,0-1.91,3.35v2.27a1.49,1.49,0,0,0,.78,1.31,1.57,1.57,0,0,0,.7.17,1.42,1.42,0,0,0,.82-.25.45.45,0,0,0,.19-.26Z" style="fill:#fff"/><path d="M203.34,268.37a.54.54,0,0,1-.74-.5V265.6a3,3,0,0,1,1.45-2.55l.09-.05a.28.28,0,0,1,.27,0,.25.25,0,0,1,.13.23.47.47,0,0,0,.94,0,1.21,1.21,0,0,0-1.82-1l-.09.05a3.92,3.92,0,0,0-1.91,3.36v2.27a1.49,1.49,0,0,0,.78,1.31,1.57,1.57,0,0,0,.7.17,1.42,1.42,0,0,0,.82-.25.45.45,0,0,0,.19-.26Z" style="fill:#fff"/><path d="M198.87,265.79a.54.54,0,0,1-.74-.5V263a3,3,0,0,1,1.45-2.55l.09-.05a.28.28,0,0,1,.27,0,.25.25,0,0,1,.13.23.47.47,0,0,0,.94,0,1.21,1.21,0,0,0-1.82-1l-.09.05a3.92,3.92,0,0,0-1.91,3.36v2.27a1.49,1.49,0,0,0,1.48,1.48,1.44,1.44,0,0,0,.82-.25.45.45,0,0,0,.19-.26Z" style="fill:#fff"/><polygon points="251.34 256.47 225.48 271.4 191.82 251.97 217.69 237.03 251.34 256.47" style="fill:#e6e6e6"/><polygon points="252.83 255.98 225.81 268.69 193.89 246.51 220.92 233.8 252.83 255.98" style="fill:#fafafa"/><path d="M192.5,216.27H170.55l2,23.23h0a4.63,4.63,0,0,0,2.62,3.4,14.07,14.07,0,0,0,12.76,0,4.66,4.66,0,0,0,2.62-3.4h0Z" style="fill:#ba68c8"/><path d="M193.9,215v-1.84h-.43a7.51,7.51,0,0,0-3.19-3.2c-4.83-2.79-12.67-2.79-17.5,0a7.45,7.45,0,0,0-3.19,3.2h-.44V215c0,1.83,1.21,3.66,3.63,5.06,4.83,2.79,12.67,2.79,17.5,0C192.7,218.67,193.91,216.83,193.9,215Z" style="fill:#e0e0e0"/><path d="M190.28,218.32c-4.83,2.79-12.67,2.79-17.5,0s-4.84-7.32,0-10.11,12.67-2.79,17.5,0S195.12,215.53,190.28,218.32Z" style="fill:#ebebeb"/><path d="M191.45,212.5V211h-.35a6,6,0,0,0-2.56-2.57,15.55,15.55,0,0,0-14,0A6,6,0,0,0,172,211h-.35v1.48c0,1.47,1,2.93,2.9,4.05a15.49,15.49,0,0,0,14,0C190.48,215.44,191.45,214,191.45,212.5Z" style="fill:#e0e0e0"/><path d="M188.54,215.16a15.47,15.47,0,0,1-14,0c-3.88-2.24-3.88-5.86,0-8.1a15.53,15.53,0,0,1,14,0C192.41,209.3,192.41,212.92,188.54,215.16Z" style="fill:#f5f5f5"/><path d="M186.92,214a11.93,11.93,0,0,1-10.79,0c-2.89-1.66-3-4.33-.3-6l.3-.19a9.44,9.44,0,0,1,2.08-.85,12.07,12.07,0,0,1,8.71.85C189.91,209.46,189.91,212.26,186.92,214Z" style="fill:#f0f0f0"/><path d="M176.13,208.63a12,12,0,0,1,10.8,0,4.08,4.08,0,0,1,2.19,2.68c.23-1.27-.51-2.59-2.19-3.56a12,12,0,0,0-10.8,0c-1.69,1-2.42,2.29-2.2,3.56A4.07,4.07,0,0,1,176.13,208.63Z" style="fill:#e0e0e0"/><path d="M180.21,208.93,178,210.34l-2.16-1.55v-.86l.3-.19a9.44,9.44,0,0,1,2.08-.85v.64Z" style="fill:#e0e0e0"/></g><g id="Screen"><path d="M440.86,72.47,316.38.6a3,3,0,0,0-3.62,0l-4.31,3,2.94,3.63V107.59c0,3.67,2.24,8,5,9.54l123.25,71.15.23,3.92,4.54-3.11a4.73,4.73,0,0,0,1.46-3.87V82C445.86,78.33,443.62,74.06,440.86,72.47Z" style="fill:#ba68c8"/><path d="M440.86,72.47,316.38.6a3,3,0,0,0-3.62,0l-4.31,3,2.94,3.63V107.59c0,3.67,2.24,8,5,9.54l123.25,71.15.23,3.92,4.54-3.11a4.73,4.73,0,0,0,1.46-3.87V82C445.86,78.33,443.62,74.06,440.86,72.47Z" style="opacity:0.30000001192092896;isolation:isolate"/><path d="M436.62,191.92,312.14,120.05c-2.75-1.59-5-5.87-5-9.54V7.29c0-3.68,2.24-5.37,5-3.77L436.62,75.38c2.76,1.6,5,5.87,5,9.55V188.14C441.62,191.82,439.38,193.51,436.62,191.92Z" style="fill:#ba68c8"/><path d="M436.62,191.92,312.14,120.05c-2.75-1.59-5-5.87-5-9.54V7.29c0-3.68,2.24-5.37,5-3.77L436.62,75.38c2.76,1.6,5,5.87,5,9.55V188.14C441.62,191.82,439.38,193.51,436.62,191.92Z" style="fill:#ba68c8"/><path d="M436.62,75.38,312.14,3.52c-2.75-1.6-5,.09-5,3.77v5.05L441.62,90v-5C441.62,81.25,439.38,77,436.62,75.38Z" style="fill:#455a64"/><path d="M310.16,3.92h0a3.08,3.08,0,0,1,1.48.46L436.12,76.25c2.44,1.41,4.5,5.38,4.5,8.67V188.14c0,2.05-.79,3.37-2,3.37a3,3,0,0,1-1.48-.46L312.64,119.18c-2.43-1.41-4.49-5.38-4.49-8.67V7.29c0-2,.79-3.37,2-3.37m0-1c-1.77,0-3,1.63-3,4.37V110.51c0,3.67,2.24,7.94,5,9.54l124.49,71.87a4,4,0,0,0,2,.59c1.77,0,3-1.63,3-4.37V84.93c0-3.68-2.24-8-5-9.55L312.14,3.52a3.94,3.94,0,0,0-2-.6Z" style="fill:#ba68c8"/><path d="M364.86,57.56a1,1,0,0,1-.53-.14L316.94,30.06a1.06,1.06,0,0,1-.38-1.45,1,1,0,0,1,1.44-.38l47.39,27.35a1.06,1.06,0,0,1,.38,1.45A1,1,0,0,1,364.86,57.56Z" style="fill:#fff"/><path d="M431.53,96.05a1,1,0,0,1-.53-.14L395.9,75.65A1.06,1.06,0,0,1,397,73.81l35.1,20.27a1.06,1.06,0,0,1,.39,1.44A1.07,1.07,0,0,1,431.53,96.05Z" style="fill:#fff"/><path d="M388.82,71.39a1,1,0,0,1-.53-.14L374,63a1.06,1.06,0,1,1,1.06-1.83l14.26,8.23a1.06,1.06,0,0,1,.39,1.44A1.07,1.07,0,0,1,388.82,71.39Z" style="fill:#fff"/><path d="M364.86,123.93a1.1,1.1,0,0,1-.53-.14L316.94,96.43A1.06,1.06,0,0,1,318,94.59L365.39,122a1.06,1.06,0,0,1,.38,1.45A1,1,0,0,1,364.86,123.93Z" style="fill:#fff"/><path d="M431.53,162.42a1,1,0,0,1-.53-.14L395.9,142a1.06,1.06,0,1,1,1.06-1.83l35.1,20.26a1.06,1.06,0,0,1-.53,2Z" style="fill:#fff"/><path d="M388.82,137.76a1,1,0,0,1-.53-.14L374,129.39a1.06,1.06,0,1,1,1.06-1.84l14.26,8.23a1.06,1.06,0,0,1-.53,2Z" style="fill:#fff"/><path d="M364.86,139.53a1,1,0,0,1-.53-.14L316.94,112A1.06,1.06,0,1,1,318,110.2l47.39,27.35a1.06,1.06,0,0,1,.38,1.45A1,1,0,0,1,364.86,139.53Z" style="fill:#fff"/><path d="M416.59,169.4a1.13,1.13,0,0,1-.53-.14L395.9,157.62a1.06,1.06,0,0,1,1.06-1.84l20.16,11.64a1.06,1.06,0,0,1-.53,2Z" style="fill:#fff"/><path d="M388.82,153.37a1,1,0,0,1-.53-.15L374,145a1.06,1.06,0,1,1,1.06-1.83l14.26,8.23a1.06,1.06,0,0,1-.53,2Z" style="fill:#fff"/><path d="M341.23,52.16a1,1,0,0,1-.53-.14L316.94,38.31A1.06,1.06,0,0,1,318,36.47l23.76,13.72a1.06,1.06,0,0,1-.53,2Z" style="fill:#fff"/><path d="M409.66,91.67a1,1,0,0,1-.53-.14L374,71.27a1.06,1.06,0,0,1,1.06-1.84l35.1,20.27a1.05,1.05,0,0,1-.53,2Z" style="fill:#fff"/><path d="M365.19,66a1.13,1.13,0,0,1-.53-.14L350.4,57.62a1.06,1.06,0,1,1,1.06-1.83L365.72,64a1.06,1.06,0,0,1,.38,1.45A1,1,0,0,1,365.19,66Z" style="fill:#fff"/><path d="M364.86,74.05a1,1,0,0,1-.53-.14L316.94,46.55A1.06,1.06,0,1,1,318,44.72l47.39,27.36a1.06,1.06,0,0,1-.53,2Z" style="fill:#fff"/><path d="M405.78,97.68a1.13,1.13,0,0,1-.53-.14l-9.35-5.4A1.06,1.06,0,0,1,397,90.3l9.35,5.4a1.06,1.06,0,0,1-.53,2Z" style="fill:#fff"/><path d="M345.9,71.36a1,1,0,0,1-.53-.15L336,65.82A1.06,1.06,0,0,1,337.08,64l9.35,5.4a1.06,1.06,0,0,1-.53,2Z" style="fill:#fff"/><path d="M388.82,87.89a1.13,1.13,0,0,1-.53-.14L374,79.51a1.06,1.06,0,1,1,1.06-1.83l14.26,8.23a1.06,1.06,0,0,1-.53,2Z" style="fill:#fff"/><path d="M332.66,63.71a1,1,0,0,1-.53-.14L316.94,54.8a1.06,1.06,0,0,1-.38-1.45A1,1,0,0,1,318,53l15.19,8.76a1.06,1.06,0,0,1-.53,2Z" style="fill:#fff"/><path d="M365.19,82.49a1,1,0,0,1-.53-.14L350.4,74.12a1.06,1.06,0,0,1,1.06-1.84l14.26,8.24a1.06,1.06,0,0,1-.53,2Z" style="fill:#fff"/><path d="M364.86,91.15a1.1,1.1,0,0,1-.53-.14L316.94,63.65A1.06,1.06,0,1,1,318,61.81l47.39,27.36a1.06,1.06,0,0,1,.38,1.45A1,1,0,0,1,364.86,91.15Z" style="fill:#fff"/><path d="M431.53,129.64a1,1,0,0,1-.53-.14l-35.1-20.27A1.06,1.06,0,1,1,397,107.4l35.1,20.26a1.06,1.06,0,0,1-.53,2Z" style="fill:#fff"/><path d="M388.82,105a1,1,0,0,1-.53-.14L374,96.61a1.06,1.06,0,0,1,1.06-1.84L389.35,103a1.06,1.06,0,0,1,.39,1.44A1.07,1.07,0,0,1,388.82,105Z" style="fill:#fff"/><path d="M341.23,85.75a1,1,0,0,1-.53-.14L316.94,71.9A1.06,1.06,0,0,1,318,70.06l23.76,13.71a1.06,1.06,0,0,1,.38,1.45A1,1,0,0,1,341.23,85.75Z" style="fill:#fff"/><path d="M409.66,125.26a1,1,0,0,1-.53-.14L374,104.86a1.06,1.06,0,0,1,1.06-1.84l35.1,20.27a1.05,1.05,0,0,1-.53,2Z" style="fill:#fff"/><path d="M365.19,99.59a1,1,0,0,1-.53-.15L350.4,91.21a1.06,1.06,0,1,1,1.06-1.83l14.26,8.23a1.06,1.06,0,0,1,.38,1.45A1,1,0,0,1,365.19,99.59Z" style="fill:#fff"/><path d="M364.86,107.64a1,1,0,0,1-.53-.14L316.94,80.14A1.06,1.06,0,1,1,318,78.31l47.39,27.35a1.06,1.06,0,0,1,.38,1.45A1,1,0,0,1,364.86,107.64Z" style="fill:#fff"/><path d="M405.78,131.27a1,1,0,0,1-.53-.15l-9.35-5.39a1.06,1.06,0,0,1,1.06-1.84l9.35,5.4a1.06,1.06,0,0,1-.53,2Z" style="fill:#fff"/><path d="M345.9,104.94a1,1,0,0,1-.53-.14L336,99.4a1.06,1.06,0,0,1,1.06-1.83l9.35,5.4a1.05,1.05,0,0,1-.53,2Z" style="fill:#fff"/><path d="M388.82,121.48a1,1,0,0,1-.53-.15L374,113.1a1.06,1.06,0,1,1,1.06-1.83l14.26,8.23a1.06,1.06,0,0,1-.53,2Z" style="fill:#fff"/><path d="M332.66,97.3a1.13,1.13,0,0,1-.53-.14l-15.19-8.77A1.06,1.06,0,0,1,318,86.55l15.19,8.77a1.06,1.06,0,0,1-.53,2Z" style="fill:#fff"/><path d="M365.19,116.08a1.13,1.13,0,0,1-.53-.14l-14.26-8.23a1.06,1.06,0,1,1,1.06-1.84l14.26,8.23a1.06,1.06,0,0,1,.38,1.45A1,1,0,0,1,365.19,116.08Z" style="fill:#fff"/><path d="M345.9,120.75a1,1,0,0,1-.53-.14l-9.35-5.4a1.06,1.06,0,1,1,1.06-1.83l9.35,5.39a1.06,1.06,0,0,1-.53,2Z" style="fill:#fff"/><path d="M332.66,113.11a1,1,0,0,1-.53-.15l-15.19-8.76a1.06,1.06,0,0,1-.38-1.45,1,1,0,0,1,1.44-.39l15.19,8.77a1.06,1.06,0,0,1-.53,2Z" style="fill:#fff"/><path d="M365.19,131.89a1,1,0,0,1-.53-.15l-14.26-8.23a1.06,1.06,0,1,1,1.06-1.83l14.26,8.23a1.06,1.06,0,0,1,.38,1.45A1,1,0,0,1,365.19,131.89Z" style="fill:#fff"/><path d="M326.85,40.35V78.69c0,.61-.22,1-.57,1.16h0l-1.47.8v-1.3l-.21-39.43,1.92-1A3.29,3.29,0,0,1,326.85,40.35Z" style="fill:#263238"/><path d="M326.52,39l-1.92,1L278.11,12.68,277,12l1.53-.87.05,0h0a.87.87,0,0,1,.91.06l46,26.49A2.89,2.89,0,0,1,326.52,39Z" style="fill:#37474f"/><path d="M325.19,41.18V79.27a1.26,1.26,0,0,1-.44,1.09l-.09,0a.92.92,0,0,1-.85-.1L278.11,54a3.3,3.3,0,0,1-1.37-2.63V13.26a1.27,1.27,0,0,1,.41-1.07l.14-.08a1,1,0,0,1,.82.11l45.7,26.34a2.69,2.69,0,0,1,1,1.19A3.36,3.36,0,0,1,325.19,41.18Z" style="fill:#455a64"/><text transform="matrix(-0.87, -0.5, 0, 1, 316.95, 65.87)" style="isolation:isolate;font-size:25.79990005493164px;fill:#fafafa;font-family:Montserrat-Bold, Montserrat;font-weight:700">&lt;/&gt;</text><path d="M277.38,12.16a.82.82,0,0,1,.42.13l46,26.49a2.54,2.54,0,0,1,.92,1.09A3.05,3.05,0,0,1,325,41.2V79.52a1,1,0,0,1-.31.87l-.08,0a.42.42,0,0,1-.2,0,.84.84,0,0,1-.41-.14l-46-26.49a3.08,3.08,0,0,1-1.26-2.42V13.11a1.1,1.1,0,0,1,.31-.87l.09-.05.18,0m0-.26a.67.67,0,0,0-.28.06L277,12a1.26,1.26,0,0,0-.41,1.07V51.43a3.31,3.31,0,0,0,1.38,2.64l46,26.49a1,1,0,0,0,.54.17.64.64,0,0,0,.31-.07l.09,0a1.24,1.24,0,0,0,.44-1.09V41.2a3.37,3.37,0,0,0-.36-1.44,2.78,2.78,0,0,0-1-1.2l-46-26.49a1.16,1.16,0,0,0-.55-.17Z" style="fill:#37474f"/><path d="M319.46,13.14c0,1.1-.77,1.54-1.71,1a3.75,3.75,0,0,1-1.71-3c0-1.09.76-1.53,1.71-1A3.8,3.8,0,0,1,319.46,13.14Z" style="fill:#fff"/><path d="M325.82,17.07c0,1.09-.77,1.53-1.72,1a3.8,3.8,0,0,1-1.71-3c0-1.1.77-1.54,1.71-1A3.76,3.76,0,0,1,325.82,17.07Z" style="fill:#fff"/><path d="M332.17,21c0,1.09-.76,1.53-1.71,1a3.78,3.78,0,0,1-1.71-3c0-1.09.77-1.53,1.71-1A3.79,3.79,0,0,1,332.17,21Z" style="fill:#fff"/></g></svg>