<svg xmlns="http://www.w3.org/2000/svg" viewBox="0 0 501 292.95"><g id="Calque_2" data-name="Calque 2"><g id="Calque_1-2" data-name="Calque 1"><g id="Sparkle"><g id="Sparkle-2" data-name="Sparkle" style="opacity:0.20000000298023224"><path d="M253.33,136.22a20.85,20.85,0,0,1-1.31-8.54l-.1-8.87c-.08-4.59-.07-9.27-.07-13.79v-3.93c0-10.6.21-21.38.36-31.8l.05-3.66c.08-4.17.14-8.34.21-12.51.12-7.52.24-15.3.42-22.94l.41-17.73.18-6c0-1.94.11-3.92.17-5.91.06,2,.12,4,.17,5.91l.18,6,.41,17.73c.18,7.64.3,15.42.42,22.94l.21,12.51,0,3.66c.16,10.42.31,21.2.36,31.8V105c0,4.52,0,9.19-.07,13.78l-.1,8.87a20.85,20.85,0,0,1-1.31,8.54Z" style="fill:#ba68c8"/><path d="M253.28,136.28a20.87,20.87,0,0,1-2.77-8.18l-1.64-8.72c-.88-4.53-1.69-9.14-2.47-13.61l-.67-3.83c-1.79-10.43-3.5-21.06-5.16-31.33L240,67q-1-6.16-2-12.34c-1.18-7.43-2.41-15.12-3.57-22.69l-2.67-17.53-.87-5.94c-.29-1.93-.58-3.9-.86-5.88.4,1.92.79,3.84,1.18,5.72s.82,4,1.24,6l3.48,17.39c1.49,7.46,3,15.05,4.37,22.4q1.2,6.21,2.41,12.41l.7,3.65c2,10.22,4,20.79,5.86,31.19l.68,3.83c.79,4.47,1.61,9.08,2.34,13.64l1.43,8.75a20.75,20.75,0,0,1,.2,8.64Z" style="fill:#ba68c8"/><path d="M253.24,136.35a20.94,20.94,0,0,1-4.15-7.57l-3.13-8.3c-1.65-4.31-3.25-8.73-4.8-13l-1.32-3.65c-3.57-10-7.1-20.12-10.52-29.94l-1.22-3.51c-1.36-4-2.74-8-4.11-11.93-2.45-7.07-5-14.39-7.43-21.61l-5.67-16.8q-.94-2.86-1.9-5.73t-1.86-5.61c.73,1.83,1.46,3.65,2.17,5.45s1.49,3.77,2.25,5.66L218,36.33c2.77,7.11,5.54,14.36,8.22,21.36q2.24,5.88,4.49,11.75l1.3,3.39c3.71,9.75,7.54,19.83,11.22,29.78l1.34,3.69c1.56,4.25,3.16,8.64,4.66,13l2.94,8.36a20.89,20.89,0,0,1,1.69,8.48Z" style="fill:#ba68c8"/><path d="M253.21,136.43a21.06,21.06,0,0,1-5.4-6.74l-4.52-7.63c-2.37-4-4.71-8-7-11.93l-2-3.39c-5.26-9.21-10.51-18.64-15.6-27.75L217,75.83l-6.07-10.94c-3.66-6.57-7.44-13.37-11.11-20.08l-8.51-15.56q-1.42-2.67-2.87-5.32l-2.8-5.2c1,1.68,2.07,3.36,3.09,5s2.12,3.45,3.19,5.17l9.22,15.15c4,6.52,8,13.18,11.81,19.62q3.23,5.39,6.46,10.77l1.87,3.13c5.34,9,10.87,18.21,16.21,27.37l2,3.37c2.27,3.92,4.62,8,6.85,12l4.35,7.73a20.84,20.84,0,0,1,3.13,8Z" style="fill:#ba68c8"/><path d="M253.2,136.51a21,21,0,0,1-6.49-5.7l-5.78-6.73c-3-3.48-6-7.07-8.93-10.54l-2.51-3c-6.75-8.12-13.53-16.44-20.08-24.49L207,83.12q-4-4.89-7.93-9.77c-4.73-5.82-9.62-11.84-14.39-17.8L173.62,41.7l-3.79-4.79-3.62-4.58,3.92,4.4,4,4.53,11.71,13.31c5,5.73,10.12,11.6,15,17.27q4.11,4.75,8.23,9.49l2.45,2.83c6.8,7.87,13.83,16,20.66,24.06l2.5,3c2.92,3.47,5.94,7.06,8.85,10.64l5.62,6.86a21,21,0,0,1,4.48,7.38Z" style="fill:#ba68c8"/><path d="M253.2,136.59a20.81,20.81,0,0,1-7.38-4.49L239,126.48c-3.58-2.9-7.15-5.91-10.62-8.82l-3-2.53c-8.09-6.85-16.25-13.91-24.15-20.73L198.45,92,189,83.81c-5.68-4.92-11.55-10-17.29-15L158.37,57l-4.53-4-4.39-3.91L154,52.73l4.78,3.78,13.85,11.08c6,4.77,12,9.66,17.8,14.39l9.76,7.92,2.85,2.32c8.08,6.58,16.43,13.38,24.58,20.15l3,2.53c3.46,2.9,7,5.9,10.51,8.91l6.73,5.78a20.78,20.78,0,0,1,5.7,6.5Z" style="fill:#ba68c8"/><path d="M253.22,136.67a21,21,0,0,1-8.05-3.14l-7.74-4.34c-4-2.24-8.07-4.58-12-6.85l-3.4-2c-9.17-5.36-18.44-10.89-27.4-16.24l-3.09-1.85-10.74-6.43C174.37,92,167.7,88,161.16,84L146,74.8q-2.55-1.59-5.12-3.16l-5-3.12,5.2,2.81,5.32,2.86,15.55,8.51c6.71,3.67,13.49,7.44,20.05,11.09l11,6.1,3.29,1.84c9.07,5.06,18.45,10.29,27.62,15.52l3.37,2c3.93,2.26,8,4.6,11.94,7l7.63,4.52a21,21,0,0,1,6.74,5.41Z" style="fill:#ba68c8"/><path d="M252.47,136.76a22.2,22.2,0,0,1-7.7-1.71l-8.37-2.93c-4.35-1.5-8.74-3.11-13-4.66l-3.69-1.35c-10-3.68-20.05-7.52-29.82-11.24l-3.35-1.27-11.71-4.49c-7-2.68-14.28-5.45-21.39-8.23l-16.52-6.45-5.65-2.25L125.82,90c1.88.61,3.75,1.24,5.59,1.85l5.76,1.9L154,99.45c7.22,2.44,14.54,5,21.62,7.42L187.5,111l3.5,1.21c9.83,3.42,20,7,30,10.52l3.69,1.34c4.25,1.54,8.65,3.14,12.94,4.78l8.3,3.13a20.9,20.9,0,0,1,7.58,4.15l-.23.62C253,136.76,252.73,136.76,252.47,136.76Z" style="fill:#ba68c8"/><path d="M249.87,137.19a31,31,0,0,1-5.22-.57l-8.76-1.44c-4.53-.72-9.12-1.54-13.56-2.32l-3.9-.7c-10.42-1.89-21-3.91-31.23-5.87l-3.62-.69-12.35-2.39c-7.36-1.42-15-2.89-22.45-4.38l-17.39-3.49-5.93-1.23-5.77-1.19,5.8.85,6,.88L149,117.32c7.55,1.16,15.21,2.38,22.62,3.57l12.41,2,3.58.58c10.3,1.66,20.95,3.38,31.4,5.17l3.87.68c4.46.78,9.06,1.59,13.58,2.46l8.71,1.64a21,21,0,0,1,8.19,2.77l-.12.65A14.43,14.43,0,0,1,249.87,137.19Z" style="fill:#ba68c8"/><path d="M218.2,138.35c-10.61,0-21.41-.21-31.85-.36l-3.6-.06-12.55-.2c-7.51-.12-15.27-.25-22.91-.42l-17.73-.42-6.06-.17-5.88-.17,5.88-.18,6.07-.17,17.72-.42c7.64-.17,15.4-.3,22.91-.41l12.55-.21,3.73-.06c10.4-.15,21.15-.3,31.72-.36h7.71c3,0,6.44,0,10,.07l8.86.1a20.84,20.84,0,0,1,8.55,1.31v.65a20.82,20.82,0,0,1-8.53,1.31l-8.88.11c-3.57.06-7.06.07-10,.07Z" style="fill:#ba68c8"/><path d="M119.69,160.17l5.72-1.18,6-1.24,17.39-3.49c7.49-1.49,15.11-3,22.49-4.39l12.32-2.38,3.61-.69c10.23-2,20.81-4,31.23-5.87l3.87-.69c4.45-.79,9-1.61,13.59-2.33l8.75-1.44a31.25,31.25,0,0,1,5.23-.57,14.43,14.43,0,0,1,3.41.38l.12.64a21,21,0,0,1-8.19,2.78l-8.71,1.64c-4.52.88-9.14,1.68-13.6,2.46l-3.85.68c-10.47,1.79-21.14,3.51-31.46,5.18l-3.53.57-12.36,2c-7.43,1.18-15.1,2.41-22.66,3.57l-17.53,2.67-6,.88Z" style="fill:#ba68c8"/><path d="M125.82,183.08c1.83-.74,3.66-1.46,5.46-2.17l5.65-2.25,16.52-6.45c7.12-2.78,14.39-5.56,21.42-8.24l11.68-4.48,3.3-1.25c9.78-3.72,19.89-7.57,29.88-11.26l3.66-1.34c4.26-1.55,8.66-3.16,13-4.66l8.37-2.94a22.21,22.21,0,0,1,7.71-1.71c.25,0,.51,0,.76,0l.23.62a20.9,20.9,0,0,1-7.58,4.15l-8.3,3.13c-4.29,1.64-8.68,3.23-12.93,4.77l-3.7,1.35c-10,3.56-20.09,7.09-29.91,10.5l-3.55,1.23-11.91,4.12c-7.08,2.45-14.4,5-21.62,7.42l-16.8,5.68-5.8,1.92Z" style="fill:#ba68c8"/><path d="M135.85,204.57c1.68-1,3.37-2.08,5-3.1l5.15-3.18,15.14-9.22c6.52-4,13.18-7.95,19.62-11.81l10.78-6.46,3.18-1.9c8.93-5.34,18.17-10.85,27.31-16.19l3.41-2c3.91-2.26,7.95-4.61,12-6.84l7.73-4.34a21,21,0,0,1,8.06-3.14l.32.57a20.79,20.79,0,0,1-6.74,5.4l-7.63,4.53c-3.93,2.36-8,4.69-11.89,6.94l-3.43,2c-9.13,5.21-18.47,10.42-27.51,15.47l-3.4,1.89-11,6.12c-6.55,3.64-13.32,7.41-20,11.07l-15.56,8.51L141,201.77Z" style="fill:#ba68c8"/><path d="M149.45,224l4.38-3.9c1.51-1.35,3-2.69,4.54-4.05l13.32-11.71c5.74-5.05,11.63-10.14,17.31-15.07l9.45-8.2,2.74-2.37c7.9-6.82,16.06-13.88,24.15-20.73l3-2.5c3.47-2.92,7.06-5.94,10.65-8.85l6.86-5.62a20.81,20.81,0,0,1,7.38-4.49l.42.51a20.75,20.75,0,0,1-5.7,6.49l-6.73,5.78c-3.46,3-7.05,6-10.51,8.91l-3,2.53c-8.17,6.78-16.54,13.6-24.63,20.19l-2.8,2.28-9.75,7.91c-5.83,4.74-11.85,9.63-17.81,14.4l-13.85,11.08L154,220.39Z" style="fill:#ba68c8"/><path d="M166.21,240.76c1.22-1.55,2.44-3.08,3.64-4.59l3.78-4.79,11.08-13.84c4.77-6,9.66-12,14.39-17.81L207,190l2.41-3c6.55-8,13.32-16.35,20.06-24.46l2.52-3c2.9-3.47,5.9-7,8.92-10.53l5.78-6.72a20.9,20.9,0,0,1,6.49-5.71l.5.43a21.12,21.12,0,0,1-4.48,7.38l-5.62,6.86c-2.91,3.58-5.93,7.17-8.85,10.64l-2.5,3c-6.83,8.06-13.86,16.19-20.66,24.06l-2.45,2.83q-4.12,4.74-8.23,9.49c-4.92,5.67-10,11.53-15,17.27l-11.71,13.31-4,4.5C168.86,237.79,167.54,239.28,166.21,240.76Z" style="fill:#ba68c8"/><path d="M185.64,254.36l2.8-5.19c1-1.78,1.92-3.55,2.87-5.33l8.51-15.56c3.67-6.71,7.45-13.5,11.11-20.07l6.07-11,1.77-3.17c5.09-9.11,10.34-18.53,15.6-27.74l1.95-3.38c2.26-3.93,4.6-8,7-11.94l4.52-7.62a21,21,0,0,1,5.4-6.75l.57.33a20.84,20.84,0,0,1-3.13,8l-4.35,7.73c-2.23,4-4.57,8.07-6.84,12l-2,3.39c-5.35,9.18-10.89,18.45-16.25,27.42l-1.83,3.08Q216.17,204,213,209.43c-3.86,6.44-7.85,13.09-11.81,19.61l-9.22,15.15c-1.07,1.71-2.12,3.43-3.18,5.15S186.69,252.67,185.64,254.36Z" style="fill:#ba68c8"/><path d="M207.13,264.38c.62-1.88,1.25-3.76,1.86-5.6l1.9-5.74,5.67-16.8c2.45-7.22,5-14.55,7.43-21.63q2.07-6,4.11-11.9l1.24-3.56c3.41-9.81,6.94-20,10.5-29.9l1.33-3.66c1.54-4.26,3.14-8.67,4.79-13l3.13-8.3a20.9,20.9,0,0,1,4.15-7.58l.62.22a20.89,20.89,0,0,1-1.69,8.48l-2.94,8.36c-1.5,4.36-3.11,8.75-4.66,13l-1.34,3.67c-3.68,10-7.52,20.05-11.23,29.81l-1.29,3.37q-2.25,5.86-4.49,11.74c-2.68,7-5.45,14.25-8.22,21.36l-6.45,16.52c-.76,1.88-1.5,3.76-2.25,5.65Z" style="fill:#ba68c8"/><path d="M230,270.52q.42-3,.86-5.88l.87-5.95,2.67-17.52c1.16-7.57,2.39-15.26,3.58-22.7q1-6.16,2-12.33l.59-3.64c1.66-10.28,3.37-20.91,5.16-31.35l.67-3.83c.78-4.47,1.59-9.09,2.47-13.61l1.64-8.72a20.87,20.87,0,0,1,2.77-8.18l.65.11a20.75,20.75,0,0,1-.2,8.64l-1.43,8.75c-.73,4.56-1.55,9.17-2.34,13.64l-.68,3.83c-1.89,10.41-3.91,21-5.87,31.21l-.69,3.63q-1.22,6.21-2.41,12.41c-1.41,7.35-2.88,14.94-4.37,22.4l-3.48,17.39q-.63,3-1.24,6C230.83,266.68,230.44,268.6,230,270.52Z" style="fill:#ba68c8"/><path d="M253.66,272.59c-.06-2-.12-4-.17-5.91l-.18-6-.41-17.73c-.18-7.64-.3-15.42-.42-22.94-.07-4.17-.13-8.34-.21-12.51l-.05-3.66c-.15-10.42-.31-21.2-.36-31.8v-3.93c0-4.52,0-9.19.07-13.79l.1-8.87a20.85,20.85,0,0,1,1.31-8.54H254a20.85,20.85,0,0,1,1.31,8.54l.1,8.87c.08,4.59.07,9.26.07,13.78V172c-.05,10.6-.21,21.38-.36,31.8l0,3.66c-.08,4.17-.14,8.34-.21,12.51-.12,7.52-.24,15.3-.42,22.94L254,260.64l-.18,6C253.78,268.62,253.72,270.6,253.66,272.59Z" style="fill:#ba68c8"/><path d="M277.29,270.52c-.41-1.92-.8-3.84-1.19-5.73l-1.23-6-3.49-17.39c-1.49-7.46-2.95-15.05-4.37-22.4l-2.4-12.41-.7-3.63c-2-10.23-4-20.8-5.87-31.21l-.68-3.83c-.79-4.47-1.61-9.08-2.33-13.64l-1.44-8.75a21.09,21.09,0,0,1-.2-8.64l.65-.11a20.87,20.87,0,0,1,2.77,8.18l1.64,8.72c.88,4.52,1.69,9.14,2.47,13.61l.67,3.83c1.79,10.44,3.51,21.07,5.17,31.35l.58,3.64q1,6.17,2,12.33c1.19,7.44,2.42,15.13,3.57,22.7l2.67,17.53.87,5.94Q276.85,267.55,277.29,270.52Z" style="fill:#ba68c8"/><path d="M300.19,264.38c-.73-1.83-1.45-3.66-2.17-5.45s-1.49-3.77-2.24-5.65l-6.46-16.52c-2.77-7.11-5.54-14.35-8.21-21.36l-4.5-11.74-1.28-3.38c-3.72-9.75-7.55-19.84-11.23-29.8l-1.35-3.68c-1.55-4.25-3.16-8.64-4.66-13l-2.93-8.37a21.06,21.06,0,0,1-1.7-8.48l.62-.22a20.94,20.94,0,0,1,4.15,7.57l3.13,8.3c1.65,4.31,3.25,8.72,4.79,13l1.33,3.66c3.57,9.94,7.09,20.09,10.51,29.9l1.23,3.56q2,5.94,4.11,11.89c2.45,7.09,5,14.41,7.43,21.64l5.67,16.8,1.9,5.74Q299.26,261.56,300.19,264.38Z" style="fill:#ba68c8"/><path d="M321.68,254.36l-3.13-5.07q-1.56-2.55-3.14-5.1l-9.23-15.14c-4-6.53-7.95-13.18-11.8-19.62l-6.47-10.78-1.83-3.07c-5.36-9-10.89-18.25-16.25-27.43l-2-3.45c-2.26-3.9-4.59-7.92-6.81-11.93L256.68,145a20.86,20.86,0,0,1-3.14-8l.57-.33a20.79,20.79,0,0,1,5.4,6.74L264,151c2.37,3.95,4.7,8,7,11.94l1.95,3.38c5.26,9.21,10.52,18.63,15.6,27.74l1.77,3.17q3,5.48,6.08,10.94c3.65,6.57,7.43,13.37,11.11,20.08l8.5,15.56,2.9,5.38Z" style="fill:#ba68c8"/><path d="M341.11,240.76l-4-4.46-4-4.47-11.71-13.31c-5-5.73-10.12-11.6-15-17.27q-4.11-4.75-8.23-9.49l-2.45-2.83c-6.79-7.87-13.82-16-20.66-24.06l-2.5-3c-2.92-3.47-5.94-7.06-8.84-10.64l-5.62-6.86a20.9,20.9,0,0,1-4.49-7.38l.5-.43a20.89,20.89,0,0,1,6.49,5.7l5.78,6.73c3,3.48,6,7.06,8.93,10.53l2.51,3c6.74,8.11,13.52,16.43,20.07,24.47l2.41,2.95q3.94,4.89,7.91,9.76c4.73,5.83,9.63,11.85,14.4,17.81l11.08,13.85,3.78,4.78Z" style="fill:#ba68c8"/><path d="M357.88,224l-4.57-3.61-4.81-3.8L334.65,205.5c-6-4.77-12-9.67-17.81-14.4l-9.75-7.91-2.8-2.28c-8.09-6.59-16.46-13.41-24.63-20.19l-3-2.53c-3.47-2.9-7-5.9-10.52-8.91l-6.73-5.78a21,21,0,0,1-5.7-6.49l.42-.51A20.81,20.81,0,0,1,261.5,141l6.86,5.62c3.59,2.91,7.18,5.93,10.65,8.85l3,2.5c8.09,6.85,16.26,13.91,24.15,20.73l2.75,2.37q4.71,4.11,9.44,8.2c5.69,4.92,11.57,10,17.31,15.07L349,216l4.55,4.05Z" style="fill:#ba68c8"/><path d="M371.48,204.57l-5.19-2.8L361,198.9l-15.56-8.51c-6.69-3.66-13.46-7.43-20-11.07l-11-6.12L311,171.33c-9-5.05-18.4-10.27-27.55-15.5l-3.43-2c-3.91-2.25-8-4.58-11.89-6.94l-7.63-4.52a21,21,0,0,1-6.74-5.41l.33-.57a20.92,20.92,0,0,1,8.05,3.14l7.73,4.34c4,2.23,8.06,4.58,12,6.84l3.41,2c9.14,5.34,18.38,10.85,27.31,16.19l3.19,1.9,10.77,6.46c6.44,3.86,13.1,7.84,19.62,11.81l15.15,9.22,5.14,3.18Z" style="fill:#ba68c8"/><path d="M381.5,183.08,376,181.24c-1.93-.64-3.86-1.29-5.8-1.92l-16.8-5.68c-7.21-2.44-14.54-5-21.62-7.42l-11.91-4.12-3.55-1.23c-9.81-3.41-20-6.94-29.91-10.5L282.67,149c-4.25-1.54-8.65-3.13-12.94-4.77l-8.29-3.13a20.9,20.9,0,0,1-7.58-4.15l.22-.62c.26,0,.52,0,.77,0a22.15,22.15,0,0,1,7.7,1.71l8.37,2.93c4.36,1.51,8.76,3.11,13,4.67L287.6,147c10,3.69,20.1,7.54,29.88,11.26l3.3,1.25L332.46,164c7,2.68,14.29,5.46,21.42,8.24l16.52,6.45,5.65,2.25C377.84,181.62,379.67,182.34,381.5,183.08Z" style="fill:#ba68c8"/><path d="M387.64,160.17l-5.82-.85-6-.88-17.53-2.67c-7.56-1.16-15.23-2.39-22.66-3.57l-12.37-2-3.52-.57c-10.32-1.67-21-3.39-31.46-5.18l-3.85-.68c-4.46-.78-9.08-1.58-13.59-2.46l-8.72-1.64a20.94,20.94,0,0,1-8.18-2.78l.11-.64a14.55,14.55,0,0,1,3.41-.38,31.13,31.13,0,0,1,5.23.57l8.75,1.44c4.54.72,9.15,1.54,13.6,2.33l3.87.69c10.43,1.89,21,3.92,31.28,5.88l3.56.68,12.31,2.38c7.38,1.43,15,2.9,22.5,4.39l17.38,3.49,6,1.23Z" style="fill:#ba68c8"/><path d="M281.4,138.36c-2.95,0-6.43,0-10-.07l-8.87-.11a20.82,20.82,0,0,1-8.54-1.31v-.65a20.73,20.73,0,0,1,8.51-1.31l8.89-.11c3.58-.06,7.07-.06,10-.06h7.71c10.57,0,21.32.21,31.72.36l3.73.06,12.56.2c7.5.12,15.27.25,22.9.42l17.73.42,6.06.17,5.88.18-5.88.17-6.06.17-17.73.42c-7.63.17-15.4.3-22.9.42l-12.56.2L321,138c-10.44.15-21.24.31-31.85.36Z" style="fill:#ba68c8"/><path d="M257.45,137.19a14.49,14.49,0,0,1-3.41-.38l-.11-.64a20.94,20.94,0,0,1,8.18-2.78l8.71-1.64c4.52-.87,9.12-1.68,13.58-2.46l3.87-.68c10.45-1.79,21.1-3.51,31.4-5.17l3.59-.58,12.4-2c7.41-1.19,15.08-2.41,22.62-3.57l17.53-2.67,6-.88,5.81-.85-5.78,1.2-5.93,1.22-17.38,3.49c-7.48,1.49-15.1,3-22.46,4.38l-12.35,2.39-3.56.68c-10.25,2-20.85,4-31.29,5.88l-3.89.69c-4.44.79-9,1.61-13.57,2.33l-8.75,1.44A31.13,31.13,0,0,1,257.45,137.19Z" style="fill:#ba68c8"/><path d="M254.85,136.76c-.26,0-.51,0-.77,0l-.22-.61a20.71,20.71,0,0,1,7.57-4.15l8.3-3.13c4.29-1.65,8.69-3.25,12.94-4.79l3.69-1.34c10-3.57,20.13-7.1,30-10.52l3.5-1.21,11.91-4.12c7.08-2.45,14.41-5,21.62-7.42l16.81-5.68,5.75-1.9L381.5,90,376,92.18l-5.65,2.25-16.51,6.45c-7.12,2.78-14.38,5.55-21.39,8.23l-11.72,4.49-3.35,1.27c-9.77,3.72-19.86,7.56-29.82,11.24l-3.68,1.35c-4.25,1.55-8.65,3.16-13,4.66l-8.37,2.93A22.2,22.2,0,0,1,254.85,136.76Z" style="fill:#ba68c8"/><path d="M253.78,136.1a20.79,20.79,0,0,1,6.74-5.4l7.63-4.53c4-2.37,8-4.71,12-7l3.37-1.94c9.18-5.25,18.58-10.49,27.66-15.56l3.25-1.81,11-6.1c6.56-3.65,13.35-7.42,20-11.09L361,74.19l5.31-2.86,5.21-2.81-5.05,3.12q-2.56,1.58-5.12,3.16L346.16,84c-6.53,4-13.21,8-19.66,11.84q-5.37,3.21-10.73,6.43l-3.09,1.85c-9,5.35-18.24,10.88-27.41,16.24l-3.39,2c-3.92,2.27-8,4.61-12,6.85l-7.73,4.34a20.86,20.86,0,0,1-8.05,3.14Z" style="fill:#ba68c8"/><path d="M253.7,136.08a21,21,0,0,1,5.7-6.49l6.73-5.78c3.47-3,7.05-6,10.51-8.91l3-2.53c8.14-6.77,16.5-13.57,24.58-20.15l2.84-2.32L316.86,82c5.82-4.73,11.84-9.62,17.79-14.39L348.5,56.51l4.79-3.78c1.5-1.2,3-2.41,4.58-3.63-1.47,1.32-2.94,2.63-4.39,3.91l-4.53,4L335.64,68.76c-5.75,5-11.62,10.13-17.3,15L308.88,92l-2.75,2.37c-7.89,6.82-16.05,13.87-24.15,20.73l-3,2.53c-3.46,2.91-7,5.92-10.61,8.82l-6.86,5.62a20.94,20.94,0,0,1-7.39,4.49Z" style="fill:#ba68c8"/><path d="M253.62,136.08a21,21,0,0,1,4.49-7.38l5.62-6.86c2.9-3.58,5.92-7.17,8.84-10.64l2.5-3c6.84-8.06,13.87-16.19,20.66-24.06l2.45-2.83q4.13-4.74,8.23-9.49c4.92-5.67,10-11.53,15-17.27l11.71-13.31,4-4.49,3.95-4.44-3.62,4.58-3.79,4.8L322.62,55.55c-4.77,6-9.66,12-14.39,17.8-2.64,3.25-5.29,6.51-7.92,9.77l-2.39,2.93c-6.56,8-13.34,16.37-20.09,24.49l-2.51,3c-2.91,3.48-5.91,7.06-8.93,10.54l-5.77,6.72a20.94,20.94,0,0,1-6.5,5.71Z" style="fill:#ba68c8"/><path d="M253.54,136.1a20.86,20.86,0,0,1,3.14-8l4.34-7.73c2.23-4,4.56-8,6.82-11.94l2-3.44c5.35-9.16,10.87-18.42,16.22-27.37l1.87-3.13,6.45-10.77c3.86-6.44,7.85-13.1,11.82-19.62l9.22-15.15,3.16-5.12c1-1.66,2.06-3.36,3.11-5.05l-2.77,5.15q-1.46,2.69-2.9,5.37l-8.5,15.56c-3.68,6.71-7.46,13.51-11.12,20.09q-3,5.46-6.07,10.93L288.55,79c-5.08,9.11-10.34,18.54-15.6,27.75L271,110.13c-2.26,3.92-4.59,8-7,11.93l-4.53,7.62a20.73,20.73,0,0,1-5.4,6.75Z" style="fill:#ba68c8"/><path d="M253.46,136.13a20.81,20.81,0,0,1,1.7-8.47l2.93-8.37c1.5-4.35,3.11-8.74,4.66-13l1.35-3.69c3.67-10,7.51-20,11.22-29.78l1.29-3.4q2.25-5.87,4.49-11.74c2.68-7,5.45-14.25,8.22-21.36l6.46-16.52c.75-1.88,1.5-3.77,2.24-5.65l2.17-5.45c-.62,1.88-1.25,3.76-1.86,5.61s-1.27,3.82-1.9,5.73l-5.67,16.8c-2.44,7.22-5,14.54-7.43,21.62-1.37,4-2.75,7.94-4.11,11.92L278,73.9c-3.42,9.82-6.95,20-10.52,29.94l-1.32,3.65c-1.55,4.26-3.14,8.68-4.8,13l-3.13,8.29a20.9,20.9,0,0,1-4.15,7.58Z" style="fill:#ba68c8"/><path d="M253.39,136.17a21.09,21.09,0,0,1,.2-8.64l1.44-8.75c.72-4.56,1.54-9.17,2.33-13.64l.68-3.83c1.89-10.4,3.91-21,5.87-31.18l.7-3.66L267,54.06c1.42-7.35,2.88-14.94,4.37-22.4l3.49-17.39,1.23-6,1.19-5.72c-.29,2-.58,4-.87,5.88l-.87,5.94-2.67,17.53c-1.15,7.57-2.38,15.26-3.57,22.69q-1,6.18-2,12.34l-.59,3.66c-1.65,10.27-3.37,20.9-5.16,31.33l-.67,3.83c-.78,4.47-1.59,9.08-2.46,13.61l-1.65,8.71a20.86,20.86,0,0,1-2.77,8.19Z" style="fill:#ba68c8"/></g></g><g id="Stars"><g id="Stars-2" data-name="Stars"><path d="M166.65,25.62l3.68,2.82L174.74,27a.57.57,0,0,1,.71.73l-1.54,4.37,2.72,3.75a.57.57,0,0,1-.47.9l-4.63-.12-2.72,3.75a.56.56,0,0,1-1-.17l-1.33-4.44-4.4-1.43a.57.57,0,0,1-.15-1l3.82-2.63V26.07A.57.57,0,0,1,166.65,25.62Z" style="fill:#e0e0e0"/><path d="M340.6,158.56l-.24,4.62L344,166a.56.56,0,0,1-.2,1l-4.47,1.2-1.55,4.37a.57.57,0,0,1-1,.12l-2.52-3.88-4.63-.13a.57.57,0,0,1-.43-.92l2.92-3.6-1.32-4.44a.57.57,0,0,1,.75-.69l4.32,1.66,3.82-2.63A.57.57,0,0,1,340.6,158.56Z" style="fill:#e0e0e0"/><path d="M344.07,44l-.24,4.63,3.67,2.82a.57.57,0,0,1-.19,1l-4.48,1.2L341.28,58a.56.56,0,0,1-1,.12l-2.53-3.88-4.63-.12a.57.57,0,0,1-.43-.92l2.92-3.61-1.32-4.44a.57.57,0,0,1,.75-.69l4.32,1.66,3.82-2.63A.57.57,0,0,1,344.07,44Z" style="fill:#e0e0e0"/><path d="M129.52,212.21l4.42,1.4,3.66-2.84a.56.56,0,0,1,.91.44l0,4.64,3.84,2.6a.57.57,0,0,1-.14,1l-4.4,1.46-1.29,4.45a.56.56,0,0,1-1,.18l-2.75-3.73-4.63.15a.56.56,0,0,1-.48-.89l2.7-3.77-1.57-4.36A.56.56,0,0,1,129.52,212.21Z" style="fill:#e0e0e0"/><path d="M371.7,263.22l4.42,1.4,3.66-2.84a.56.56,0,0,1,.91.44l0,4.63,3.84,2.6a.57.57,0,0,1-.14,1l-4.4,1.46-1.29,4.45a.56.56,0,0,1-1,.18L375,272.82l-4.64.15a.57.57,0,0,1-.47-.9l2.69-3.76L371,264A.57.57,0,0,1,371.7,263.22Z" style="fill:#e0e0e0"/><path d="M257.32,263.62l-.24,4.63,3.68,2.82a.57.57,0,0,1-.2,1l-4.48,1.2-1.55,4.37a.56.56,0,0,1-1,.12L251,273.87l-4.63-.12a.57.57,0,0,1-.43-.92l2.92-3.61-1.32-4.44a.57.57,0,0,1,.75-.69l4.32,1.66,3.82-2.62A.57.57,0,0,1,257.32,263.62Z" style="fill:#e0e0e0"/><path d="M139.42,127a1.42,1.42,0,1,1-1.42-1.41A1.42,1.42,0,0,1,139.42,127Z" style="fill:#e0e0e0"/><circle cx="120.45" cy="79.63" r="1.41" style="fill:#e0e0e0"/><path d="M210.45,200.56a1.41,1.41,0,1,1-1.41-1.41A1.42,1.42,0,0,1,210.45,200.56Z" style="fill:#e0e0e0"/><path d="M307.2,249.91a1.42,1.42,0,1,1-1.41-1.41A1.41,1.41,0,0,1,307.2,249.91Z" style="fill:#e0e0e0"/><circle cx="390.99" cy="122.41" r="1.41" style="fill:#e0e0e0"/><circle cx="379.93" cy="59" r="1.41" style="fill:#e0e0e0"/><path d="M284,34.28a1.42,1.42,0,1,1-1.41-1.41A1.42,1.42,0,0,1,284,34.28Z" style="fill:#e0e0e0"/><circle cx="208.11" cy="34.55" r="1.41" style="fill:#e0e0e0"/></g></g><g id="Diplomas"><g id="Diploma"><path d="M328.51,120.52l21.24-19.15,2.82-2.83,21-23,.35-.37a3.69,3.69,0,0,1,3.71-.61,11.71,11.71,0,0,1,7.51,7.51,3.73,3.73,0,0,1-.61,3.72l-23.36,21.3-2.82,2.81L339,131.25l0,0a3.76,3.76,0,0,1-3.69.59,11.79,11.79,0,0,1-7.51-7.52,3.75,3.75,0,0,1,.62-3.72l.11-.11Z" style="fill:#ba68c8"/><path d="M328.51,120.52l21.24-19.15,2.82-2.83,21-23,.35-.37a3.69,3.69,0,0,1,3.71-.61,11.71,11.71,0,0,1,7.51,7.51,3.73,3.73,0,0,1-.61,3.72l-23.36,21.3-2.82,2.81L339,131.25l0,0a3.76,3.76,0,0,1-3.69.59,11.79,11.79,0,0,1-7.51-7.52,3.75,3.75,0,0,1,.62-3.72l.11-.11Z" style="fill:#fff;opacity:0.4000000059604645;isolation:isolate"/><path d="M374.64,74.69a2.34,2.34,0,0,0-.75.52l-.35.37-21,23-2.82,2.83-21.24,19.15h0l-.11.11a3.76,3.76,0,0,0-.62,3.72,11.68,11.68,0,0,0,4.52,6l44.54-44.46S372.32,79.88,374.64,74.69Z" style="fill:#ba68c8;opacity:0.30000001192092896;isolation:isolate"/><path d="M377.61,74.6a3.23,3.23,0,0,0-4.34,4.33,11.74,11.74,0,0,0,7.5,7.52,3.24,3.24,0,0,0,4.34-4.34A11.72,11.72,0,0,0,377.61,74.6Z" style="fill:#ba68c8"/><path d="M328.15,120.86l.35-.35h0l21.24-19.14,2.82-2.83,21-23c-3.1,3.76,1,9.59,1,9.59L328.8,130.82S324.42,124.58,328.15,120.86Z" style="fill:#ba68c8"/><path d="M328.15,120.86l.35-.35h0l21.24-19.14,2.82-2.83,21-23c-3.1,3.76,1,9.59,1,9.59L328.8,130.82S324.42,124.58,328.15,120.86Z" style="fill:#fff;opacity:0.6000000238418579;isolation:isolate"/><path d="M377.61,74.6a3.23,3.23,0,0,0-4.34,4.33,11.74,11.74,0,0,0,7.5,7.52,3.24,3.24,0,0,0,4.34-4.34A11.72,11.72,0,0,0,377.61,74.6Z" style="fill:#fff;opacity:0.25;isolation:isolate"/><path d="M380.4,81.92c3.57.73,2.61-3.71-.94-6.57h0a8.26,8.26,0,0,0-1.85-.75,3.23,3.23,0,0,0-4.34,4.33,11.53,11.53,0,0,0,4.25,5.86Z" style="fill:#ba68c8;opacity:0.5;isolation:isolate"/><path d="M382.23,81.63l-3.8,3.79a8.18,8.18,0,0,1-.91-.63l2.88-2.87A2.25,2.25,0,0,0,382.23,81.63Z" style="fill:#ba68c8"/><path d="M382.23,81.63l-3.8,3.79a8.18,8.18,0,0,1-.91-.63l2.88-2.87A2.25,2.25,0,0,0,382.23,81.63Z" style="opacity:0.10000000149011612;isolation:isolate"/><path d="M358.6,109.67c4.61,2,8.11,5.94,10.94,11a12.63,12.63,0,0,0-.21-4.5,13.82,13.82,0,0,1,3.53,1.19A31.3,31.3,0,0,0,362,106.4l-.82.73Z" style="fill:#ba68c8"/><path d="M360.62,110.73l.72-1.47,2.31-1.82c-.55-.36-1.11-.72-1.69-1l-.82.73-2.54,2.54A18.46,18.46,0,0,1,360.62,110.73Z" style="opacity:0.20000000298023224;isolation:isolate"/><path d="M349.75,101.37a3,3,0,0,0-.48,3,9.46,9.46,0,0,0,6.05,6.07,3.1,3.1,0,0,0,3-.46l0,0,2.81-2.81a3,3,0,0,1-3,.49,9.5,9.5,0,0,1-6.06-6.07,3,3,0,0,1,.5-3l-2.82,2.81Z" style="fill:#ba68c8"/><path d="M353.77,104.63a8.91,8.91,0,0,1-1.39-2.23l-2.81,2.81a8.53,8.53,0,0,0,1.39,2.23Zm-4.5-.27v0l2.82-2.81v0a4.53,4.53,0,0,1-.16-1.26l-2.82,2.81A4.57,4.57,0,0,0,349.27,104.36Z" style="fill:#fff;opacity:0.15000000596046448;isolation:isolate"/><path d="M353.43,109.59a7.88,7.88,0,0,0,1.89.84,3.07,3.07,0,0,0,3-.46l0,0,2.82-2.81a3,3,0,0,1-3,.49,7.22,7.22,0,0,1-1.9-.84Z" style="opacity:0.10000000149011612;isolation:isolate"/></g><g id="Diploma-2" data-name="Diploma"><path d="M128.12,140l26.44,14.89,3.81,1.89,30.2,13.33.49.22c1.06.53,1.76,1.74,1.88,3.54a12.46,12.46,0,0,1-5,10.09,4,4,0,0,1-3.95.65l-29.33-16.31-3.78-1.88-28-12.23,0,0a4,4,0,0,1-1.83-3.52,12.48,12.48,0,0,1,5-10.1c1.5-1,2.9-1.16,4-.63l.15.07Z" style="fill:#ba68c8"/><path d="M128.12,140l26.44,14.89,3.81,1.89,30.2,13.33.49.22c1.06.53,1.76,1.74,1.88,3.54a12.46,12.46,0,0,1-5,10.09,4,4,0,0,1-3.95.65l-29.33-16.31-3.78-1.88-28-12.23,0,0a4,4,0,0,1-1.83-3.52,12.48,12.48,0,0,1,5-10.1c1.5-1,2.9-1.16,4-.63l.15.07Z" style="fill:#fff;opacity:0.4000000059604645;isolation:isolate"/><path d="M189.84,170.9a2.74,2.74,0,0,0-.78-.58l-.49-.22-30.2-13.33-3.81-1.88L128.12,140v0l-.15-.07c-1-.53-2.45-.36-4,.63a12.49,12.49,0,0,0-4.57,6.59l59.82,29.78S183.83,170.33,189.84,170.9Z" style="fill:#ba68c8;opacity:0.30000001192092896;isolation:isolate"/><path d="M190.94,173.86c-.11-1.8-.82-3-1.88-3.54s-2.45-.36-3.95.64a12.44,12.44,0,0,0-5,10.09c.12,1.8.82,3,1.88,3.54s2.45.36,3.95-.64A12.44,12.44,0,0,0,190.94,173.86Z" style="fill:#ba68c8"/><path d="M127.65,139.75l.47.23v0l26.44,14.89,3.81,1.88,30.2,13.33c-4.83-1.85-9.31,4.24-9.31,4.24l-61.42-30.57S122.64,137.25,127.65,139.75Z" style="fill:#ba68c8"/><path d="M127.65,139.75l.47.23v0l26.44,14.89,3.81,1.88,30.2,13.33c-4.83-1.85-9.31,4.24-9.31,4.24l-61.42-30.57S122.64,137.25,127.65,139.75Z" style="fill:#fff;opacity:0.6000000238418579;isolation:isolate"/><path d="M190.94,173.86c-.11-1.8-.82-3-1.88-3.54s-2.45-.36-3.95.64a12.44,12.44,0,0,0-5,10.09c.12,1.8.82,3,1.88,3.54s2.45.36,3.95-.64A12.44,12.44,0,0,0,190.94,173.86Z" style="fill:#fff;opacity:0.25;isolation:isolate"/><path d="M184.52,179.15c.47,3.84,4.61,1.37,6.29-3.17h0a9.63,9.63,0,0,0,.13-2.12c-.11-1.8-.82-3-1.88-3.54s-2.45-.36-3.95.64a12.27,12.27,0,0,0-4.46,6.26Z" style="fill:#ba68c8;opacity:0.5;isolation:isolate"/><path d="M185.42,180.89l-5.09-2.54a9.05,9.05,0,0,1,.32-1.13l3.87,1.93A2.36,2.36,0,0,0,185.42,180.89Z" style="fill:#ba68c8"/><path d="M185.42,180.89l-5.09-2.54a9.05,9.05,0,0,1,.32-1.13l3.87,1.93A2.36,2.36,0,0,0,185.42,180.89Z" style="opacity:0.10000000149011612;isolation:isolate"/><path d="M149.21,166.6c-.48,5.33-3.23,10.17-7.32,14.72a13.44,13.44,0,0,0,4.45-1.74,14.49,14.49,0,0,1,0,3.95,33.1,33.1,0,0,0,7.3-14.66l-1-.57Z" style="fill:#ba68c8"/><path d="M148.83,169l1.72.23,2.61,1.71c.19-.68.35-1.37.48-2.06l-1-.57-3.42-1.7A17.49,17.49,0,0,1,148.83,169Z" style="opacity:0.20000000298023224;isolation:isolate"/><path d="M154.57,154.88a3.23,3.23,0,0,0-3.17.53,10.05,10.05,0,0,0-4.06,8.15,3.21,3.21,0,0,0,1.47,2.83l0,0,3.78,1.88a3.2,3.2,0,0,1-1.51-2.86,10.05,10.05,0,0,1,4.06-8.15,3.21,3.21,0,0,1,3.19-.52l-3.78-1.88Z" style="fill:#ba68c8"/><path d="M152.65,160a9.22,9.22,0,0,1,1.77-2.16L150.64,156a9.22,9.22,0,0,0-1.77,2.16Zm-1.25-4.63h0l3.78,1.89,0,0a5,5,0,0,1,1.21-.59l-3.78-1.88A4.63,4.63,0,0,0,151.4,155.41Z" style="fill:#fff;opacity:0.15000000596046448;isolation:isolate"/><path d="M147.55,161.37a7.93,7.93,0,0,0-.21,2.19,3.21,3.21,0,0,0,1.47,2.83l0,0,3.78,1.88a3.2,3.2,0,0,1-1.51-2.86,7.88,7.88,0,0,1,.2-2.19Z" style="opacity:0.10000000149011612;isolation:isolate"/></g><g id="Diploma-3" data-name="Diploma"><path d="M246.27,190.49l21.42,15.42,3.11,2,24.81,14.44.41.24a3.41,3.41,0,0,1,1.27,3.23,10.83,10.83,0,0,1-5.31,8.24,3.45,3.45,0,0,1-3.48.18l-23.77-16.92-3.09-2-23-13.27,0,0a3.46,3.46,0,0,1-1.25-3.22,10.87,10.87,0,0,1,5.32-8.24,3.47,3.47,0,0,1,3.48-.17l.12.08Z" style="fill:#ba68c8"/><path d="M246.27,190.49l21.42,15.42,3.11,2,24.81,14.44.41.24a3.41,3.41,0,0,1,1.27,3.23,10.83,10.83,0,0,1-5.31,8.24,3.45,3.45,0,0,1-3.48.18l-23.77-16.92-3.09-2-23-13.27,0,0a3.46,3.46,0,0,1-1.25-3.22,10.87,10.87,0,0,1,5.32-8.24,3.47,3.47,0,0,1,3.48-.17l.12.08Z" style="fill:#fff;opacity:0.4000000059604645;isolation:isolate"/><path d="M296.63,223.15a2.53,2.53,0,0,0-.61-.57l-.41-.24L270.8,207.9l-3.11-2-21.42-15.42h0l-.12-.08a3.47,3.47,0,0,0-3.48.17,10.78,10.78,0,0,0-4.58,5.25l48.82,31.51S291.49,222.07,296.63,223.15Z" style="fill:#ba68c8;opacity:0.30000001192092896;isolation:isolate"/><path d="M297.29,225.81a3,3,0,0,0-4.75-3.07,10.82,10.82,0,0,0-5.32,8.24,3,3,0,0,0,4.76,3.07A10.82,10.82,0,0,0,297.29,225.81Z" style="fill:#ba68c8"/><path d="M245.89,190.23l.39.25h0l21.42,15.42,3.11,2,24.81,14.44c-4-2.07-8.46,2.76-8.46,2.76L237,192.76S241.8,187.59,245.89,190.23Z" style="fill:#ba68c8"/><path d="M245.89,190.23l.39.25h0l21.42,15.42,3.11,2,24.81,14.44c-4-2.07-8.46,2.76-8.46,2.76L237,192.76S241.8,187.59,245.89,190.23Z" style="fill:#fff;opacity:0.6000000238418579;isolation:isolate"/><path d="M297.29,225.81a3,3,0,0,0-4.75-3.07,10.82,10.82,0,0,0-5.32,8.24,3,3,0,0,0,4.76,3.07A10.82,10.82,0,0,0,297.29,225.81Z" style="fill:#fff;opacity:0.25;isolation:isolate"/><path d="M291.23,229.76c0,3.37,3.86,1.64,5.75-2.13h0a8.36,8.36,0,0,0,.31-1.82,3,3,0,0,0-4.75-3.07,10.71,10.71,0,0,0-4.46,5Z" style="fill:#ba68c8;opacity:0.5;isolation:isolate"/><path d="M291.85,231.36l-4.16-2.69a7.75,7.75,0,0,1,.39-.94l3.15,2A2.07,2.07,0,0,0,291.85,231.36Z" style="fill:#ba68c8"/><path d="M291.85,231.36l-4.16-2.69a7.75,7.75,0,0,1,.39-.94l3.15,2A2.07,2.07,0,0,0,291.85,231.36Z" style="opacity:0.10000000149011612;isolation:isolate"/><path d="M261.94,215.51c-.94,4.57-3.78,8.49-7.75,12a11.35,11.35,0,0,0,4-1.07,12.64,12.64,0,0,1-.38,3.41,28.8,28.8,0,0,0,7.72-12l-.81-.59Z" style="fill:#ba68c8"/><path d="M261.38,217.55l1.46.36,2.09,1.73c.23-.57.43-1.15.61-1.73l-.81-.59-2.79-1.81A19.79,19.79,0,0,1,261.38,217.55Z" style="opacity:0.20000000298023224;isolation:isolate"/><path d="M267.69,205.91a2.79,2.79,0,0,0-2.79.15,8.77,8.77,0,0,0-4.29,6.65,2.81,2.81,0,0,0,1,2.59l0,0,3.09,2a2.78,2.78,0,0,1-1-2.62,8.72,8.72,0,0,1,4.29-6.65,2.77,2.77,0,0,1,2.81-.14l-3.09-2Z" style="fill:#ba68c8"/><path d="M265.54,210.18a8,8,0,0,1,1.74-1.7l-3.09-2a8.47,8.47,0,0,0-1.74,1.7Zm-.64-4.12h0l3.08,2h0a4.22,4.22,0,0,1,1.1-.4l-3.08-2A4.28,4.28,0,0,0,264.9,206.06Z" style="fill:#fff;opacity:0.15000000596046448;isolation:isolate"/><path d="M261,210.83a6.78,6.78,0,0,0-.39,1.88,2.81,2.81,0,0,0,1,2.59l0,0,3.09,2a2.76,2.76,0,0,1-1-2.62,6.76,6.76,0,0,1,.38-1.88Z" style="opacity:0.10000000149011612;isolation:isolate"/></g></g><g id="Graduation_Hat_3" data-name="Graduation Hat 3"><g id="Graduation_Hat" data-name="Graduation Hat"><path d="M366.39,250.29c-2.1,3.66-6.6,6-13,6-13,.17-28.86-8.73-35.5-19.87-3.26-5.48-3.67-10.47-1.71-14.16,0-.06.05-.13.08-.19l12-21.37c-2.08,3.71-1.7,8.79,1.62,14.36,6.63,11.15,22.52,20.05,35.5,19.87,6.48-.09,11-2.42,13.08-6.13L366.45,250.2Z" style="fill:#37474f"/><path d="M370.76,242.48c-2.1,3.65-6.6,6-13,6-13,.17-28.86-8.73-35.49-19.87-3.26-5.48-3.68-10.48-1.72-14.17a1.51,1.51,0,0,1,.09-.18l1.26-2.25c-2.08,3.71-1.7,8.79,1.62,14.36,6.63,11.15,22.52,20.05,35.5,19.87,6.48-.09,11-2.42,13.08-6.13l-1.25,2.24Z" style="fill:#ba68c8"/><path d="M328.64,228.88c-5.3-2.52-9.45,3.1-7.25,12.37a33.3,33.3,0,0,1-3.53-4.79c-3.26-5.48-3.67-10.47-1.71-14.16,0-.06.05-.13.08-.19l12-21.37c-2.08,3.71-1.7,8.79,1.62,14.36,6.63,11.15,22.52,20.05,35.5,19.87h0C349.65,236.31,335.7,232.23,328.64,228.88Z" style="opacity:0.20000000298023224;isolation:isolate"/><ellipse cx="353.29" cy="214.78" rx="16.61" ry="28.77" transform="translate(-6.68 418.17) rotate(-60.76)" style="fill:#263238"/><polygon points="395.18 238.52 366.75 190.77 311.18 191.5 309.33 194.8 337.76 242.56 393.33 241.82 395.18 238.52" style="fill:#37474f"/><polygon points="337.76 242.56 339.61 239.26 395.18 238.52 393.33 241.82 337.76 242.56" style="fill:#fff;opacity:0.20000000298023224;isolation:isolate"/><polygon points="339.61 239.26 394.03 239.16 393.33 241.82 395.18 238.52 339.61 239.26" style="fill:#fff;opacity:0.20000000298023224;isolation:isolate"/><polygon points="366.75 190.77 311.18 191.5 339.61 239.26 395.18 238.52 366.75 190.77" style="fill:#455a64"/><path d="M370.41,164.55c0-.52-.76-1.09-1.09-.5a57.73,57.73,0,0,0-2.5,5.77,46.64,46.64,0,0,1-2.8,5.56,51.41,51.41,0,0,1-7.27,9.1,27.85,27.85,0,0,0-6.36,9.63A24.62,24.62,0,0,0,349,204.46a25.94,25.94,0,0,0,1.24,6,13.15,13.15,0,0,0,3.29,5.54c.37.33,1.05.29.91-.37a16.48,16.48,0,0,0-.88-2.4c-.31-.85-.61-1.71-.9-2.57a22.69,22.69,0,0,1-1.07-5.34,24.36,24.36,0,0,1,1.28-10,24.76,24.76,0,0,1,5.84-8.93,54.62,54.62,0,0,0,7.6-9.35,35.29,35.29,0,0,0,2.84-5.87,26.16,26.16,0,0,0,1-3.23A12.51,12.51,0,0,0,370.41,164.55Z" style="fill:#ba68c8"/><path d="M361,139a87.46,87.46,0,0,1,5,12.6c2.65,8.46,1.22,12.32,3.57,12.53,2.14.18,4.92-7,5.9-15.28a26.07,26.07,0,0,0-1.64-13,.83.83,0,0,0-1-.49.7.7,0,0,0-.53.72c-.28-.66-.45-1.13-1.16-1a.82.82,0,0,0-.6,1c.61,2.26,1.87,7.78,1.07,12.19a37.8,37.8,0,0,0-3.31-13.1.85.85,0,0,0-1-.48h0a.84.84,0,0,0-.56,1.13c1,2.51,3.92,9.13,3.37,17.19a43,43,0,0,0-4.16-15.58,1,1,0,0,0-1.22-.55h0a.9.9,0,0,0-.4,1.29A40.36,40.36,0,0,1,368,150.65c-.14-.4-3.28-8.24-5.33-12.46a.84.84,0,0,0-1-.44l-.14,0A.84.84,0,0,0,361,139Zm11.77,15.11c.65-3.84,1.65-10.32,0-16.34C375.13,145.08,373.91,149.75,372.73,154.09Z" style="fill:#ba68c8"/><path d="M367.57,165.54a2.9,2.9,0,1,0,.62-4A2.89,2.89,0,0,0,367.57,165.54Z" style="fill:#ba68c8"/><path d="M367.57,165.54a2.9,2.9,0,1,0,.62-4A2.89,2.89,0,0,0,367.57,165.54Z" style="opacity:0.20000000298023224;isolation:isolate"/><path d="M350.17,213a1.81,1.81,0,0,1,1.65-.77,5.67,5.67,0,0,1,4.48,2.51,1.8,1.8,0,0,1,.21,1.81l-.58,1a1.82,1.82,0,0,1-1.66.77,5.69,5.69,0,0,1-4.48-2.51,1.77,1.77,0,0,1-.2-1.81Z" style="fill:#263238"/><path d="M354.85,217.28c1.64,0,2.29-1.18,1.45-2.59a5.67,5.67,0,0,0-4.48-2.51c-1.64,0-2.29,1.18-1.45,2.59A5.69,5.69,0,0,0,354.85,217.28Z" style="fill:#37474f"/></g></g><g id="Graduation_Hat_2" data-name="Graduation Hat 2"><g id="Graduation_Hat-2" data-name="Graduation Hat"><path d="M166.56,263.18c1.23,4,5.11,7.28,11.35,8.79,12.61,3.06,30.09-2.06,39-11.45,4.4-4.61,5.92-9.39,4.83-13.42a1.42,1.42,0,0,0,0-.2l-6.9-23.5c1.2,4.07-.3,8.94-4.78,13.64-8.95,9.38-26.43,14.51-39,11.45-6.3-1.54-10.19-4.82-11.39-8.9l6.89,23.48S166.55,263.15,166.56,263.18Z" style="fill:#37474f"/><path d="M164,254.6c1.23,4,5.11,7.27,11.35,8.78,12.61,3.06,30.09-2.06,39-11.45,4.4-4.61,5.92-9.39,4.83-13.42a1.42,1.42,0,0,0,0-.2l-.73-2.48c1.2,4.08-.3,8.95-4.78,13.64-9,9.39-26.43,14.52-39,11.46-6.3-1.54-10.19-4.82-11.39-8.9l.72,2.46S164,254.56,164,254.6Z" style="fill:#ba68c8"/><path d="M208.14,250.73c5.73-1.28,8.52,5.13,4.3,13.67a32.22,32.22,0,0,0,4.51-3.88c4.4-4.61,5.92-9.39,4.83-13.42a1.42,1.42,0,0,0,0-.2l-6.9-23.5c1.2,4.07-.3,8.94-4.78,13.64-8.95,9.38-26.43,14.51-39,11.45h0C186,253.29,200.5,252.42,208.14,250.73Z" style="opacity:0.20000000298023224;isolation:isolate"/><ellipse cx="187.24" cy="231.5" rx="28.77" ry="16.61" transform="translate(-57.59 62.07) rotate(-16.35)" style="fill:#263238"/><polygon points="141.12 245.28 179.49 205.08 233.5 218.18 234.56 221.82 196.2 262.04 142.19 248.92 141.12 245.28" style="fill:#37474f"/><polygon points="196.2 262.04 195.13 258.4 141.12 245.28 142.19 248.92 196.2 262.04" style="fill:#fff;opacity:0.20000000298023224;isolation:isolate"/><polygon points="195.13 258.4 142.1 246.17 142.19 248.92 141.12 245.28 195.13 258.4" style="fill:#fff;opacity:0.20000000298023224;isolation:isolate"/><polygon points="179.49 205.08 233.5 218.18 195.13 258.4 141.12 245.28 179.49 205.08" style="fill:#455a64"/><path d="M153.88,266.3a22.14,22.14,0,0,1,1-2.87,23,23,0,0,0,.85-3.16,41.4,41.4,0,0,0,.46-6.59,26.86,26.86,0,0,1,2.75-10.91A24.36,24.36,0,0,1,175,229.88a23.65,23.65,0,0,1,6.16-.6,19.32,19.32,0,0,1,2.93.33,7.4,7.4,0,0,1,3.05,1c.47.36,0,1.36-.5,1.36a26.74,26.74,0,0,1-2.82-.32c-.9-.1-1.8-.15-2.7-.17a22.38,22.38,0,0,0-5,.52,20.6,20.6,0,0,0-8.91,4.23,23.85,23.85,0,0,0-8.39,17.09c-.22,4.57-.39,9.77-3.66,13.29C154.8,267,153.68,267.17,153.88,266.3Z" style="fill:#ba68c8"/><path d="M133.81,284.19l.1.11a.85.85,0,0,0,1.08.14c4-2.52,10.75-7.55,11.07-7.81a40.38,40.38,0,0,1-9.62,8.67.92.92,0,0,0-.34,1.32h0a1,1,0,0,0,1.33.17,43.13,43.13,0,0,0,11.71-11.09c-3.76,7.15-9.68,11.29-11.88,12.87a.84.84,0,0,0-.12,1.26v0a.85.85,0,0,0,1.1.11,37.69,37.69,0,0,0,9.69-9.42c-1.63,4.17-5.59,8.21-7.3,9.82a.82.82,0,0,0,0,1.19c.55.47.95.16,1.53-.26a.72.72,0,0,0,.07.9.85.85,0,0,0,1.11.1,26.2,26.2,0,0,0,8.18-10.19c3.52-7.6,4.9-15.13,3-16.1-2.12-1.05-2.92,3-9.61,8.8A86.67,86.67,0,0,1,134,282.9.85.85,0,0,0,133.81,284.19Zm9.55,5.91c4.57-4.25,7.12-10.29,8.58-13.9C150.68,280.51,149.26,285.13,143.36,290.1Z" style="fill:#ba68c8"/><path d="M153.54,263.74a2.9,2.9,0,1,1-1.59,3.78A2.9,2.9,0,0,1,153.54,263.74Z" style="fill:#ba68c8"/><path d="M153.54,263.74a2.9,2.9,0,1,1-1.59,3.78A2.9,2.9,0,0,1,153.54,263.74Z" style="opacity:0.20000000298023224;isolation:isolate"/><path d="M190.7,230.4a1.8,1.8,0,0,0-1.43-1.12,5.65,5.65,0,0,0-4.93,1.45,1.79,1.79,0,0,0-.61,1.72c.06.19.28.94.34,1.14a1.8,1.8,0,0,0,1.43,1.12,5.65,5.65,0,0,0,4.93-1.45,1.79,1.79,0,0,0,.61-1.72C191,231.35,190.76,230.6,190.7,230.4Z" style="fill:#263238"/><path d="M185.17,233.57c-1.59-.39-2-1.66-.83-2.84a5.65,5.65,0,0,1,4.93-1.45c1.59.39,2,1.66.83,2.85A5.68,5.68,0,0,1,185.17,233.57Z" style="fill:#37474f"/></g></g><g id="Graduation_Hat_1" data-name="Graduation Hat 1"><g id="Graduation_Hat-3" data-name="Graduation Hat"><path d="M144.45,48.6l-.23,0a1.29,1.29,0,0,0-1.16,1.18c-.54,7.1-.61,19.9-.59,20.53-2.17-7.16-2-16.32-1.76-19.57a1.37,1.37,0,0,0-1.29-1.59h0A1.46,1.46,0,0,0,138,50.63c-.28,3.39-.66,14.14,2.81,24.29-5.26-11.06-4.89-22-4.82-26.12a1.27,1.27,0,0,0-1.41-1.29h0a1.29,1.29,0,0,0-1.14,1.23c-.15,4.13-.13,12.51,2.62,20.33-3.58-5.78-4.88-14.26-5.28-17.79a1.23,1.23,0,0,0-1.41-1.12c-1.07.23-1,1-1.07,2.08a1.09,1.09,0,0,0-1.15-.72A1.27,1.27,0,0,0,126,52.77,39.64,39.64,0,0,0,130.88,72c6,11.18,13.9,19.71,16.82,18.26,3.2-1.61-1-6.25-1.94-19.66A133.28,133.28,0,0,1,145.84,50,1.28,1.28,0,0,0,144.45,48.6Zm-15.86,6.2c1,9.41,6,18,9.06,23.06C133.57,72.39,129.25,66.48,128.59,54.8Z" style="fill:#ba68c8"/><path d="M258,112.3a45.8,45.8,0,0,0-9.34-11.1,59.22,59.22,0,0,0-10.73-7.67,51.41,51.41,0,0,0-25-6.57,44.53,44.53,0,0,0-13,1.93A62.36,62.36,0,0,0,188.68,94c-3.31,1.82-6.58,3.74-10,5.3-.9.41-1.24.55-2,.85s-1.87.67-2.82.94a22.41,22.41,0,0,1-4.95.89,19.47,19.47,0,0,1-11-2.61,22.74,22.74,0,0,1-5.13-3.92,20.9,20.9,0,0,1-2.29-2.59c-.26-.37-.52-.74-.8-1.1a4.94,4.94,0,0,0-.84-.87c-.7-.57-.62-.51-1.14-1.49-.38-.69-1.61-.68-1.42.3s.08,1.94.35,2.87a8,8,0,0,0,.85,1.86,25.63,25.63,0,0,0,1.76,2.75,21.39,21.39,0,0,0,4.65,4.41,23.19,23.19,0,0,0,10.35,4.18c7.9,1.07,15.21-2.12,22-5.82,3.34-1.82,6.63-3.74,10.07-5.38a40.06,40.06,0,0,1,11.62-3.52A45.82,45.82,0,0,1,233.09,95a60.2,60.2,0,0,1,12.11,7.39,135.28,135.28,0,0,1,11.88,11C257.75,114,258.34,112.92,258,112.3Z" style="fill:#ba68c8"/><path d="M151.3,91.13a4.4,4.4,0,1,1-3.14-5.37A4.4,4.4,0,0,1,151.3,91.13Z" style="fill:#ba68c8"/><path d="M151.3,91.13a4.4,4.4,0,1,1-3.14-5.37A4.4,4.4,0,0,1,151.3,91.13Z" style="opacity:0.20000000298023224;isolation:isolate"/><polygon points="322.51 88.98 260.52 150.9 175.89 128.22 174.34 122.44 236.33 60.5 320.96 83.21 322.51 88.98" style="fill:#37474f"/><polygon points="236.33 60.5 237.87 66.27 322.51 88.98 320.96 83.21 236.33 60.5" style="fill:#fff;opacity:0.20000000298023224;isolation:isolate"/><polygon points="237.87 66.27 321 87.55 320.96 83.21 322.51 88.98 237.87 66.27" style="fill:#fff;opacity:0.20000000298023224;isolation:isolate"/><polygon points="260.52 150.9 175.89 128.22 237.87 66.27 322.51 88.98 260.52 150.9" style="fill:#455a64"/><path d="M294,100.43c-1.79-6.39-7.77-11.65-17.56-14.27-19.75-5.3-47.49,2.12-62,16.58-7.1,7.1-9.67,14.57-8.12,21,0,.1,0,.21.07.31l8.35,31.2c-1.74-6.47.81-14.09,8-21.32,14.47-14.46,42.21-21.88,62-16.58,9.88,2.65,15.89,8,17.62,14.45L294,100.61Z" style="fill:#37474f"/><path d="M297.6,114.06c-1.79-6.39-7.77-11.65-17.56-14.27-19.75-5.3-47.49,2.12-62,16.58-7.1,7.1-9.68,14.57-8.12,21l.06.31,1.06,3.94c-1.73-6.47.81-14.09,8-21.32,14.47-14.46,42.21-21.88,62-16.58,9.88,2.65,15.89,8,17.62,14.45l-1-3.9Z" style="fill:#ba68c8"/><path d="M228,118.5c-9.07,1.8-13.23-8.41-6.27-21.71a50.77,50.77,0,0,0-7.25,5.95c-7.1,7.1-9.67,14.57-8.12,21,0,.1,0,.21.07.31l8.35,31.2c-1.74-6.47.81-14.08,8-21.32,14.47-14.46,42.21-21.88,62-16.58h0C261.31,109.19,240.05,116.11,228,118.5Z" style="opacity:0.20000000298023224;isolation:isolate"/><ellipse cx="258.53" cy="143.5" rx="45.35" ry="26.18" transform="translate(-28.31 71.71) rotate(-14.98)" style="fill:#263238"/><ellipse cx="258.53" cy="143.5" rx="43.62" ry="24.4" transform="matrix(0.97, -0.26, 0.26, 0.97, -28.31, 71.71)" style="fill:#37474f"/><path d="M255.64,160.62c-14.34-4.87-16.28-25.92-4.45-36.73l-19.94,5.34a49.11,49.11,0,0,0-7,5.57c-14,13.61-10,28.53,8.92,33.33,18.2,4.62,43.57-1.81,57.93-14.43C280.29,159.39,265.37,163.93,255.64,160.62Z" style="opacity:0.20000000298023224;isolation:isolate"/><path d="M224.29,134.8c-.71.69-1.35,1.38-2,2.07.88.29,1.78.56,2.73.8,18.92,4.8,45.6-2.34,59.59-15.94.7-.69,1.35-1.38,2-2.07-.87-.29-1.78-.56-2.73-.8C265,114.06,238.28,121.2,224.29,134.8Z"/></g></g><rect x="0.5" y="0.5" width="500" height="291.95" style="fill:none;stroke:#282828;stroke-miterlimit:10"/></g></g></svg>