<?xml version="1.0" encoding="utf-8"?>
<!-- Generator: Adobe Illustrator 27.5.0, SVG Export Plug-In . SVG Version: 6.00 Build 0)  -->
<svg version="1.1" xmlns="http://www.w3.org/2000/svg" xmlns:xlink="http://www.w3.org/1999/xlink" x="0px" y="0px"
	 viewBox="0 0 500 500" style="enable-background:new 0 0 500 500;" xml:space="preserve">
<g id="Sparkle_00000077286014390076080320000009448564880085904270_">
	<g id="Sparkle" style="opacity:0.2;">
		<path style="fill:#BA68C8;" d="M246.495,235.103c-1.854-4.335-2.01-8.676-2.009-13.11l-0.158-13.616
			c-0.121-7.058-0.11-14.234-0.102-21.173l0.006-6.041c0.08-16.271,0.32-32.819,0.554-48.821l0.081-5.612
			c0.115-6.403,0.217-12.808,0.319-19.213c0.184-11.545,0.374-23.483,0.642-35.224l0.636-27.22c0.095-3.086,0.183-6.175,0.271-9.265
			c0.085-2.987,0.172-6.027,0.265-9.078c0.094,3.051,0.181,6.091,0.266,9.078c0.088,3.09,0.176,6.179,0.27,9.269l0.636,27.216
			c0.268,11.74,0.458,23.677,0.642,35.221c0.103,6.406,0.204,12.811,0.319,19.216l0.081,5.615
			c0.233,16.002,0.474,32.547,0.554,48.819l0.006,6.057c0.01,6.934,0.02,14.104-0.101,21.153l-0.159,13.612
			c0.001,4.441-0.154,8.783-2.009,13.116H246.495z"/>
		<path style="fill:#BA68C8;" d="M246.416,235.198c-2.578-3.945-3.485-8.194-4.255-12.562l-2.521-13.382
			c-1.349-6.953-2.589-14.044-3.789-20.903l-1.031-5.881c-2.742-16.013-5.375-32.325-7.92-48.101l-0.907-5.616
			c-0.996-6.315-2.006-12.629-3.017-18.943c-1.825-11.413-3.713-23.214-5.489-34.834l-4.101-26.917
			c-0.439-3.039-0.888-6.08-1.335-9.121c-0.438-2.971-0.882-5.994-1.321-9.03c0.614,2.953,1.22,5.894,1.815,8.787
			c0.63,3.061,1.26,6.122,1.898,9.182l5.352,26.692c2.29,11.454,4.538,23.114,6.712,34.39c1.225,6.352,2.45,12.705,3.688,19.054
			l1.074,5.613c3.001,15.686,6.105,31.905,9.003,47.884l1.042,5.878c1.219,6.854,2.479,13.943,3.589,20.934l2.208,13.433
			c0.771,4.374,1.372,8.677,0.299,13.266L246.416,235.198z"/>
		<path style="fill:#BA68C8;" d="M246.356,235.306c-3.225-3.437-4.855-7.464-6.372-11.632l-4.807-12.74
			c-2.538-6.619-4.993-13.394-7.367-19.946l-2.03-5.595c-5.479-15.287-10.901-30.887-16.145-45.974l-1.875-5.393
			c-2.098-6.103-4.209-12.204-6.319-18.304c-3.76-10.866-7.648-22.101-11.396-33.178l-8.712-25.796
			c-0.967-2.934-1.941-5.869-2.916-8.804c-0.94-2.833-1.897-5.714-2.853-8.61c1.122,2.81,2.232,5.612,3.324,8.365
			c1.148,2.896,2.297,5.792,3.453,8.686l9.905,25.358c4.257,10.914,8.508,22.04,12.62,32.799c2.297,6.011,4.593,12.021,6.902,18.027
			l1.984,5.215c5.695,14.967,11.584,30.444,17.23,45.719l2.067,5.664c2.383,6.521,4.848,13.263,7.148,19.937l4.507,12.846
			c1.52,4.172,2.858,8.305,2.598,13.012L246.356,235.306z"/>
		<path style="fill:#BA68C8;" d="M246.313,235.422c-3.772-2.827-6.078-6.508-8.295-10.349l-6.945-11.712
			c-3.639-6.062-7.224-12.291-10.689-18.315l-3-5.206c-8.074-14.145-16.146-28.609-23.954-42.597l-2.713-4.861
			c-3.1-5.6-6.212-11.194-9.324-16.788c-5.615-10.094-11.421-20.531-17.061-30.836l-13.06-23.891
			c-1.462-2.723-2.933-5.445-4.402-8.168c-1.418-2.625-2.86-5.296-4.303-7.981c1.598,2.58,3.182,5.153,4.74,7.682
			c1.629,2.646,3.259,5.292,4.895,7.934l14.158,23.252c6.091,10.016,12.214,20.241,18.136,30.13
			c3.301,5.513,6.603,11.027,9.915,16.534l2.869,4.806c8.205,13.746,16.689,27.96,24.899,42.018l2.998,5.183
			c3.487,6.02,7.092,12.244,10.523,18.429l6.669,11.869c2.221,3.846,4.257,7.685,4.818,12.363L246.313,235.422z"/>
		<path style="fill:#BA68C8;" d="M246.292,235.544c-4.207-2.128-7.116-5.354-9.966-8.752l-8.874-10.328
			c-4.635-5.337-9.246-10.848-13.706-16.177l-3.86-4.609c-10.355-12.464-20.763-25.241-30.829-37.597l-3.674-4.51
			c-4.047-5.002-8.104-9.998-12.162-14.993c-7.261-8.939-14.77-18.183-22.092-27.325l-17.011-21.261
			c-1.935-2.456-3.878-4.91-5.821-7.364c-1.831-2.313-3.693-4.665-5.559-7.032c2.027,2.271,4.041,4.536,6.021,6.764
			c2.06,2.317,4.118,4.634,6.184,6.946l17.981,20.44c7.734,8.803,15.538,17.807,23.084,26.514c4.211,4.86,8.423,9.719,12.645,14.57
			l3.753,4.344c10.436,12.077,21.227,24.565,31.722,36.947l3.84,4.567c4.483,5.328,9.119,10.837,13.577,16.338l8.629,10.53
			c2.855,3.402,5.526,6.829,6.892,11.339L246.292,235.544z"/>
		<path style="fill:#BA68C8;" d="M246.292,235.668c-4.512-1.366-7.938-4.037-11.334-6.888l-10.531-8.63
			c-5.489-4.448-10.983-9.071-16.297-13.543l-4.613-3.878c-12.424-10.529-24.956-21.359-37.076-31.833l-4.214-3.642
			c-4.839-4.21-9.687-8.412-14.535-12.613c-8.719-7.556-17.733-15.369-26.548-23.114l-20.443-17.984
			c-2.313-2.065-4.632-4.127-6.952-6.189c-2.223-1.975-4.482-3.984-6.748-6.006c2.37,1.868,4.727,3.733,7.043,5.568
			c2.448,1.938,4.896,3.876,7.35,5.809l21.257,17.008c9.143,7.322,18.386,14.831,27.325,22.092
			c4.995,4.058,9.991,8.116,14.995,12.164l4.368,3.559c12.402,10.104,25.227,20.551,37.738,30.945l4.639,3.885
			c5.319,4.451,10.819,9.053,16.143,13.678l10.325,8.872c3.402,2.852,6.629,5.762,8.757,9.969L246.292,235.668z"/>
		<path style="fill:#BA68C8;" d="M246.315,235.79c-4.68-0.562-8.518-2.598-12.358-4.816l-11.871-6.67
			c-6.179-3.428-12.395-7.028-18.404-10.509l-5.212-3.015c-14.075-8.219-28.31-16.715-42.074-24.932l-4.749-2.834
			c-5.486-3.301-10.981-6.591-16.477-9.881c-9.907-5.932-20.151-12.066-30.187-18.17l-23.255-14.161
			c-2.616-1.62-5.239-3.235-7.862-4.851c-2.552-1.572-5.147-3.17-7.75-4.782c2.688,1.444,5.362,2.888,7.99,4.307
			c2.719,1.469,5.438,2.937,8.161,4.399l23.888,13.058c10.287,5.63,20.706,11.426,30.782,17.031
			c5.612,3.122,11.225,6.244,16.844,9.355l5.061,2.825c13.922,7.771,28.317,15.806,42.396,23.842l5.174,2.981
			c6.034,3.472,12.273,7.063,18.342,10.706l11.71,6.944c3.847,2.22,7.529,4.525,10.355,8.297L246.315,235.79z"/>
		<path style="fill:#BA68C8;" d="M245.178,235.939c-4.256,0-8.023-1.244-11.827-2.629l-12.85-4.507
			c-6.681-2.303-13.429-4.77-19.954-7.156l-5.651-2.063c-15.295-5.652-30.795-11.55-45.783-17.254l-5.15-1.96
			c-5.991-2.303-11.988-4.595-17.985-6.887c-10.772-4.116-21.912-8.373-32.84-12.635l-25.36-9.907
			c-2.887-1.153-5.78-2.3-8.673-3.447c-2.758-1.094-5.563-2.206-8.377-3.329c2.887,0.951,5.759,1.905,8.582,2.843
			c2.945,0.978,5.89,1.956,8.838,2.927l25.793,8.711c11.082,3.75,22.322,7.64,33.193,11.401c6.095,2.109,12.19,4.218,18.29,6.314
			l5.369,1.867c15.095,5.247,30.703,10.672,45.999,16.154l5.669,2.057c6.526,2.365,13.275,4.811,19.867,7.339l12.736,4.805
			c4.174,1.518,8.201,3.149,11.639,6.374l-0.345,0.947C245.961,235.928,245.568,235.939,245.178,235.939z"/>
		<path style="fill:#BA68C8;" d="M241.181,236.594c-2.805,0-5.61-0.454-8.021-0.879l-13.438-2.208
			c-6.955-1.105-14.004-2.357-20.82-3.569l-5.997-1.063c-15.999-2.903-32.242-6.011-47.95-9.017l-5.546-1.061
			c-6.318-1.232-12.642-2.451-18.965-3.67c-11.305-2.18-22.995-4.434-34.478-6.729l-26.696-5.353
			c-3.031-0.631-6.066-1.256-9.103-1.881c-2.917-0.601-5.885-1.212-8.862-1.832c2.995,0.434,5.977,0.873,8.907,1.304
			c3.082,0.453,6.164,0.907,9.248,1.353l26.913,4.1c11.585,1.771,23.351,3.654,34.729,5.474c6.349,1.016,12.697,2.031,19.048,3.033
			l5.501,0.888c15.813,2.552,32.163,5.19,48.217,7.939l5.941,1.043c6.838,1.196,13.908,2.433,20.837,3.777l13.379,2.52
			c4.374,0.771,8.623,1.678,12.568,4.256l-0.175,0.993C244.75,236.403,243.034,236.594,241.181,236.594z"/>
		<path style="fill:#BA68C8;" d="M192.559,238.371c-16.297-0.08-32.871-0.321-48.899-0.555l-5.534-0.08
			c-6.423-0.116-12.848-0.218-19.273-0.32c-11.524-0.184-23.442-0.374-35.162-0.641l-27.22-0.635
			c-3.101-0.096-6.204-0.184-9.309-0.272c-2.973-0.085-5.996-0.171-9.032-0.264c3.037-0.093,6.062-0.179,9.034-0.264
			c3.103-0.088,6.207-0.177,9.311-0.272l27.216-0.635c11.72-0.268,23.638-0.458,35.162-0.641c6.426-0.103,12.851-0.204,19.275-0.32
			l5.732-0.083c15.963-0.232,32.469-0.472,48.702-0.552l11.832-0.011c4.524,0,9.89,0.013,15.377,0.107l13.613,0.159
			c4.462,0,8.787,0.156,13.116,2.008v1.009c-4.33,1.853-8.664,2.009-13.091,2.009l-13.636,0.159
			c-5.484,0.094-10.841,0.107-15.358,0.107L192.559,238.371z"/>
		<path style="fill:#BA68C8;" d="M41.305,271.873c2.955-0.615,5.899-1.222,8.792-1.817c3.06-0.629,6.119-1.259,9.177-1.896
			l26.694-5.352c11.501-2.3,23.21-4.557,34.534-6.74c6.304-1.215,12.607-2.431,18.909-3.659l5.544-1.061
			c15.708-3.006,31.951-6.114,47.952-9.017l5.947-1.054c6.832-1.215,13.897-2.471,20.865-3.577l13.434-2.208
			c2.416-0.426,5.224-0.88,8.028-0.88c1.851,0,3.568,0.191,5.237,0.581l0.175,0.993c-3.944,2.578-8.193,3.485-12.563,4.255
			l-13.382,2.521c-6.942,1.347-14.025,2.586-20.874,3.783l-5.91,1.037c-16.081,2.753-32.463,5.397-48.306,7.954l-5.411,0.874
			c-6.329,0.999-12.658,2.011-18.987,3.023c-11.397,1.823-23.184,3.708-34.788,5.482l-26.917,4.102
			c-3.072,0.444-6.146,0.897-9.221,1.349C47.298,270.998,44.309,271.438,41.305,271.873z"/>
		<path style="fill:#BA68C8;" d="M50.722,307.043c2.815-1.124,5.622-2.237,8.381-3.331c2.893-1.147,5.787-2.295,8.678-3.449
			l25.356-9.905c10.944-4.269,22.102-8.531,32.891-12.654c5.98-2.285,11.961-4.57,17.936-6.867l5.059-1.925
			c15.018-5.716,30.548-11.625,45.875-17.29l5.629-2.054c6.532-2.388,13.287-4.857,19.973-7.162l12.846-4.507
			c3.811-1.387,7.577-2.63,11.835-2.63c0.389,0,0.781,0.01,1.178,0.032l0.345,0.947c-3.438,3.225-7.465,4.856-11.633,6.372
			l-12.74,4.806c-6.591,2.527-13.336,4.972-19.86,7.335l-5.68,2.062c-15.268,5.472-30.848,10.888-45.915,16.125l-5.453,1.896
			c-6.096,2.096-12.188,4.204-18.281,6.313c-10.873,3.763-22.116,7.653-33.2,11.403l-25.797,8.713
			c-2.965,0.977-5.932,1.962-8.897,2.946C56.441,305.151,53.588,306.098,50.722,307.043z"/>
		<path style="fill:#BA68C8;" d="M66.115,340.037c2.591-1.604,5.175-3.195,7.715-4.76c2.635-1.623,5.271-3.246,7.902-4.876
			l23.251-14.158c10.013-6.089,20.234-12.209,30.12-18.129c5.517-3.304,11.034-6.607,16.545-9.922l4.886-2.916
			c13.72-8.189,27.907-16.658,41.938-24.851l5.23-3.026c6.004-3.477,12.212-7.074,18.381-10.497l11.869-6.668
			c3.846-2.221,7.684-4.257,12.363-4.818l0.504,0.874c-2.825,3.772-6.508,6.078-10.35,8.294l-11.712,6.945
			c-6.043,3.628-12.253,7.202-18.259,10.659l-5.262,3.032c-14.025,8.006-28.368,16.012-42.239,23.754l-5.219,2.913
			c-5.638,3.121-11.27,6.254-16.902,9.388c-10.057,5.594-20.455,11.379-30.722,16.998l-23.892,13.06
			c-2.73,1.466-5.461,2.94-8.191,4.415C71.454,337.162,68.791,338.6,66.115,340.037z"/>
		<path style="fill:#BA68C8;" d="M86.996,369.862c2.258-2.016,4.511-4.018,6.725-5.986c2.329-2.07,4.658-4.141,6.982-6.216
			l20.44-17.982c8.825-7.755,17.853-15.577,26.582-23.143c4.837-4.191,9.674-8.383,14.502-12.585l4.22-3.646
			c12.118-10.472,24.648-21.3,37.071-31.829l4.557-3.831c5.331-4.486,10.844-9.125,16.349-13.585l10.53-8.629
			c3.401-2.855,6.827-5.527,11.338-6.892l0.648,0.773c-2.127,4.206-5.354,7.116-8.752,9.966l-10.328,8.874
			c-5.327,4.628-10.829,9.231-16.149,13.683l-4.637,3.884c-12.533,10.413-25.383,20.88-37.809,31.002l-4.297,3.501
			c-4.996,4.041-9.983,8.093-14.972,12.145c-8.946,7.267-18.197,14.781-27.348,22.109l-21.26,17.011
			c-2.464,1.941-4.926,3.891-7.388,5.84C91.698,366.149,89.354,368.004,86.996,369.862z"/>
		<path style="fill:#BA68C8;" d="M112.74,395.608c1.87-2.374,3.739-4.733,5.575-7.053c1.938-2.447,3.875-4.894,5.806-7.345
			l17.009-21.258c7.326-9.147,14.839-18.396,22.104-27.341c4.054-4.99,8.107-9.98,12.15-14.979l3.701-4.543
			c10.057-12.345,20.456-25.109,30.803-37.564l3.863-4.612c4.458-5.328,9.067-10.837,13.7-16.17l8.871-10.326
			c2.855-3.402,5.764-6.628,9.97-8.756l0.772,0.648c-1.365,4.509-4.037,7.936-6.888,11.334l-8.631,10.532
			c-4.46,5.503-9.096,11.012-13.578,16.339l-3.842,4.57c-10.492,12.379-21.283,24.866-31.719,36.942l-3.756,4.348
			c-4.22,4.849-8.431,9.708-12.642,14.566c-7.547,8.708-15.351,17.713-23.087,26.517l-17.982,20.443
			c-2.053,2.298-4.103,4.604-6.151,6.909C116.8,391.05,114.777,393.327,112.74,395.608z"/>
		<path style="fill:#BA68C8;" d="M142.567,416.486c1.44-2.681,2.88-5.348,4.296-7.969c1.473-2.726,2.944-5.452,4.41-8.182
			l13.058-23.888c5.638-10.302,11.442-20.734,17.055-30.823c3.114-5.599,6.229-11.197,9.332-16.802l2.718-4.869
			c7.805-13.984,15.876-28.446,23.95-42.59l2.991-5.192c3.469-6.027,7.056-12.261,10.695-18.324l6.943-11.71
			c2.22-3.845,4.525-7.527,8.298-10.354l0.874,0.504c-0.562,4.678-2.598,8.517-4.815,12.358l-6.67,11.871
			c-3.428,6.179-7.028,12.393-10.51,18.404l-3.015,5.212c-8.225,14.083-16.727,28.326-24.948,42.1l-2.819,4.724
			c-3.314,5.509-6.617,11.026-9.921,16.543c-5.92,9.886-12.04,20.107-18.129,30.12l-14.16,23.255
			c-1.628,2.628-3.251,5.264-4.874,7.898C145.761,411.313,144.17,413.897,142.567,416.486z"/>
		<path style="fill:#BA68C8;" d="M175.563,431.875c0.953-2.892,1.909-5.77,2.849-8.598c0.975-2.939,1.952-5.879,2.921-8.821
			l8.711-25.792c3.752-11.087,7.643-22.331,11.405-33.206c2.107-6.091,4.216-12.183,6.311-18.278l1.895-5.451
			c5.237-15.067,10.653-30.647,16.126-45.917l2.039-5.62c2.371-6.543,4.823-13.309,7.356-19.916l4.806-12.737
			c1.518-4.173,3.149-8.2,6.374-11.637l0.946,0.345c0.261,4.708-1.078,8.84-2.596,13.006l-4.508,12.849
			c-2.304,6.684-4.771,13.434-7.157,19.961l-2.061,5.645c-5.649,15.286-11.544,30.776-17.244,45.757l-1.97,5.177
			c-2.309,6.007-4.607,12.021-6.905,18.034c-4.11,10.757-8.36,21.88-12.616,32.791l-9.907,25.36c-1.152,2.887-2.3,5.78-3.447,8.674
			C177.797,426.257,176.686,429.062,175.563,431.875z"/>
		<path style="fill:#BA68C8;" d="M210.73,441.297c0.439-3.034,0.885-6.055,1.321-9.023c0.448-3.043,0.896-6.087,1.337-9.132
			l4.1-26.913c1.777-11.623,3.665-23.427,5.491-34.843c1.01-6.311,2.019-12.621,3.016-18.935l0.9-5.581
			c2.548-15.786,5.182-32.109,7.927-48.137l1.031-5.881c1.199-6.857,2.439-13.949,3.788-20.897l2.52-13.379
			c0.771-4.374,1.678-8.623,4.256-12.568l0.993,0.175c1.073,4.588,0.473,8.892-0.298,13.26l-2.208,13.437
			c-1.11,6.995-2.371,14.084-3.59,20.94l-1.042,5.877c-2.9,15.988-6.007,32.221-9.01,47.918l-1.067,5.578
			c-1.238,6.35-2.463,12.704-3.688,19.058c-2.174,11.274-4.422,22.934-6.711,34.386l-5.353,26.695
			c-0.637,3.055-1.267,6.114-1.895,9.174C211.952,435.4,211.345,438.343,210.73,441.297z"/>
		<path style="fill:#BA68C8;" d="M246.999,444.477c-0.093-3.052-0.18-6.091-0.265-9.078c-0.088-3.09-0.176-6.179-0.271-9.269
			l-0.636-27.217c-0.268-11.74-0.458-23.678-0.642-35.223c-0.103-6.405-0.204-12.81-0.319-19.215l-0.081-5.614
			c-0.233-16.001-0.474-32.548-0.554-48.819l-0.006-6.039c-0.009-6.939-0.02-14.116,0.102-21.171l0.158-13.613
			c-0.001-4.44,0.154-8.781,2.009-13.116h1.009c1.854,4.333,2.01,8.675,2.009,13.11l0.159,13.616
			c0.12,7.052,0.11,14.222,0.101,21.155l-0.006,6.06c-0.08,16.268-0.32,32.813-0.553,48.813l-0.082,5.621
			c-0.115,6.403-0.217,12.809-0.319,19.214c-0.184,11.545-0.374,23.482-0.642,35.222l-0.636,27.221
			c-0.095,3.086-0.183,6.175-0.27,9.265C247.18,438.386,247.093,441.425,246.999,444.477z"/>
		<path style="fill:#BA68C8;" d="M283.27,441.297c-0.615-2.954-1.222-5.897-1.817-8.791c-0.629-3.06-1.259-6.119-1.897-9.177
			l-5.352-26.693c-2.289-11.451-4.537-23.11-6.711-34.385c-1.226-6.353-2.45-12.708-3.688-19.06l-1.067-5.576
			c-3.003-15.697-6.109-31.93-9.01-47.92l-1.042-5.875c-1.219-6.856-2.48-13.945-3.589-20.938l-2.208-13.434
			c-0.771-4.374-1.372-8.677-0.299-13.266l0.993-0.175c2.578,3.945,3.485,8.194,4.255,12.563l2.52,13.382
			c1.349,6.951,2.589,14.043,3.788,20.9l1.032,5.884c2.744,16.025,5.378,32.348,7.926,48.134l0.901,5.583
			c0.996,6.312,2.005,12.622,3.015,18.933c1.826,11.416,3.714,23.22,5.491,34.843l4.101,26.917c0.44,3.041,0.888,6.085,1.336,9.128
			C282.385,435.242,282.831,438.263,283.27,441.297z"/>
		<path style="fill:#BA68C8;" d="M318.437,431.875c-1.123-2.813-2.234-5.618-3.328-8.375c-1.147-2.893-2.295-5.787-3.449-8.678
			l-9.905-25.356c-4.256-10.911-8.506-22.034-12.616-32.791c-2.298-6.014-4.596-12.027-6.906-18.036l-1.969-5.175
			c-5.7-14.98-11.595-30.471-17.245-45.759l-2.06-5.644c-2.386-6.527-4.854-13.277-7.156-19.958l-4.507-12.846
			c-1.52-4.172-2.858-8.304-2.598-13.012l0.946-0.345c3.225,3.438,4.855,7.464,6.372,11.632l4.807,12.741
			c2.534,6.609,4.986,13.375,7.357,19.918l2.04,5.622c5.472,15.268,10.888,30.848,16.125,45.915l1.895,5.453
			c2.094,6.089,4.199,12.176,6.306,18.262c3.765,10.88,7.657,22.13,11.41,33.221l8.712,25.796c0.968,2.938,1.944,5.878,2.92,8.817
			C316.528,426.106,317.484,428.983,318.437,431.875z"/>
		<path style="fill:#BA68C8;" d="M351.433,416.486c-1.618-2.613-3.224-5.22-4.802-7.782c-1.608-2.612-3.217-5.224-4.832-7.833
			L327.64,377.62c-6.089-10.013-12.209-20.234-18.129-30.12c-3.304-5.517-6.608-11.034-9.922-16.545l-2.818-4.722
			c-8.222-13.773-16.724-28.017-24.949-42.102l-3.068-5.305c-3.464-5.979-7.045-12.163-10.453-18.307l-6.669-11.869
			c-2.221-3.847-4.257-7.686-4.818-12.363l0.874-0.504c3.772,2.827,6.078,6.508,8.295,10.349l6.945,11.712
			c3.641,6.065,7.228,12.299,10.696,18.326l2.993,5.194c8.072,14.142,16.144,28.603,23.948,42.588l2.719,4.871
			c3.102,5.602,6.216,11.199,9.329,16.797c5.613,10.09,11.418,20.523,17.057,30.826l13.06,23.892c1.477,2.75,2.962,5.5,4.446,8.25
			C348.579,411.188,350.006,413.83,351.433,416.486z"/>
		<path style="fill:#BA68C8;" d="M381.26,395.608c-2.053-2.299-4.092-4.593-6.097-6.849c-2.033-2.288-4.066-4.576-6.105-6.859
			l-17.982-20.44c-7.735-8.804-15.539-17.809-23.086-26.517c-4.211-4.858-8.422-9.718-12.643-14.567l-3.755-4.347
			c-10.435-12.076-21.227-24.563-31.72-36.944l-3.841-4.568c-4.483-5.327-9.118-10.836-13.576-16.337l-8.629-10.53
			c-2.854-3.402-5.526-6.829-6.892-11.338l0.773-0.648c4.206,2.128,7.115,5.354,9.966,8.751l8.874,10.328
			c4.633,5.334,9.242,10.843,13.7,16.17l3.866,4.616c10.346,12.452,20.745,25.218,30.802,37.563l3.701,4.542
			c4.042,4.998,8.096,9.988,12.15,14.978c7.266,8.944,14.778,18.193,22.104,27.341l17.011,21.261
			c1.929,2.448,3.866,4.895,5.804,7.342C377.521,390.875,379.389,393.234,381.26,395.608z"/>
		<path style="fill:#BA68C8;" d="M407.003,369.862c-2.357-1.858-4.702-3.714-7.007-5.539c-2.462-1.949-4.923-3.898-7.39-5.841
			l-21.257-17.009c-9.15-7.328-18.401-14.843-27.349-22.11c-4.987-4.052-9.976-8.104-14.972-12.145l-4.292-3.496
			c-12.427-10.124-25.277-20.592-37.814-31.008l-4.634-3.881c-5.32-4.452-10.823-9.056-16.148-13.682l-10.325-8.872
			c-3.403-2.854-6.63-5.764-8.757-9.97l0.648-0.773c4.511,1.365,7.936,4.037,11.334,6.888l10.531,8.631
			c5.508,4.462,11.021,9.101,16.352,13.587l4.559,3.832c12.422,10.529,24.953,21.357,37.071,31.83l4.219,3.646
			c4.826,4.2,9.663,8.392,14.499,12.582c8.73,7.565,17.758,15.39,26.584,23.146l20.443,17.982c2.321,2.073,4.65,4.144,6.979,6.214
			C402.493,365.844,404.746,367.847,407.003,369.862z"/>
		<path style="fill:#BA68C8;" d="M427.885,340.037c-2.677-1.438-5.339-2.875-7.957-4.289c-2.73-1.475-5.461-2.949-8.195-4.417
			l-23.888-13.058c-10.268-5.619-20.666-11.404-30.723-16.999c-5.632-3.133-11.265-6.266-16.903-9.388l-5.148-2.873
			c-13.893-7.755-28.259-15.774-42.31-23.795l-5.26-3.03c-6.006-3.457-12.216-7.03-18.256-10.657l-11.71-6.944
			c-3.847-2.219-7.529-4.525-10.355-8.297l0.504-0.874c4.68,0.561,8.518,2.597,12.358,4.815l11.871,6.671
			c6.172,3.424,12.38,7.02,18.384,10.497l5.232,3.027c14.028,8.191,28.216,16.66,41.935,24.85l4.888,2.917
			c5.509,3.313,11.026,6.617,16.543,9.921c9.886,5.92,20.107,12.04,30.12,18.129l23.255,14.16c2.628,1.628,5.264,3.251,7.898,4.874
			C422.71,336.842,425.294,338.434,427.885,340.037z"/>
		<path style="fill:#BA68C8;" d="M443.278,307.043c-2.866-0.945-5.719-1.893-8.523-2.824c-2.966-0.984-5.933-1.97-8.901-2.947
			l-25.793-8.712c-11.084-3.75-22.327-7.641-33.2-11.403c-6.093-2.108-12.186-4.217-18.283-6.313l-5.451-1.896
			c-15.067-5.237-30.647-10.653-45.917-16.126l-5.678-2.061c-6.524-2.364-13.27-4.809-19.858-7.334l-12.736-4.805
			c-4.174-1.518-8.201-3.149-11.638-6.374l0.345-0.948c0.396-0.022,0.789-0.032,1.178-0.032c4.257,0,8.024,1.243,11.828,2.628
			l12.849,4.508c6.689,2.306,13.443,4.775,19.976,7.163l5.631,2.055c15.325,5.664,30.854,11.573,45.873,17.289l5.061,1.926
			c5.974,2.296,11.954,4.581,17.935,6.866c10.789,4.123,21.946,8.386,32.891,12.654l25.36,9.907c2.887,1.152,5.78,2.3,8.674,3.447
			C437.656,304.806,440.462,305.919,443.278,307.043z"/>
		<path style="fill:#BA68C8;" d="M452.693,271.872c-3.002-0.435-5.991-0.874-8.93-1.307c-3.074-0.452-6.148-0.904-9.225-1.35
			l-26.913-4.101c-11.604-1.774-23.391-3.659-34.788-5.482c-6.329-1.012-12.658-2.024-18.989-3.024l-5.409-0.873
			c-15.843-2.556-32.225-5.2-48.309-7.954l-5.907-1.036c-6.849-1.198-13.932-2.436-20.871-3.783l-13.379-2.52
			c-4.374-0.771-8.624-1.678-12.568-4.256l0.175-0.993c1.669-0.391,3.387-0.581,5.237-0.581c2.805,0,5.612,0.454,8.022,0.879
			l13.438,2.208c6.979,1.108,14.051,2.365,20.891,3.581l5.927,1.05c16.024,2.907,32.294,6.02,48.027,9.031l5.469,1.046
			c6.3,1.228,12.603,2.443,18.907,3.659c11.324,2.183,23.033,4.44,34.535,6.74l26.696,5.353c3.055,0.637,6.114,1.267,9.174,1.895
			C446.796,270.651,449.739,271.258,452.693,271.872z"/>
		<path style="fill:#BA68C8;" d="M289.584,238.382c-4.518,0-9.874-0.013-15.355-0.107l-13.613-0.159
			c-4.451,0-8.786-0.156-13.115-2.009v-1.009c4.328-1.852,8.652-2.008,13.068-2.008l13.657-0.159
			c5.49-0.094,10.855-0.107,15.38-0.107l11.835,0.011c16.23,0.08,32.736,0.32,48.699,0.552l5.734,0.083
			c6.423,0.116,12.848,0.218,19.273,0.32c11.524,0.184,23.442,0.374,35.162,0.641l27.22,0.636c3.1,0.095,6.203,0.184,9.307,0.272
			c2.973,0.084,5.997,0.17,9.034,0.264c-3.036,0.093-6.06,0.179-9.032,0.264c-3.104,0.088-6.208,0.176-9.313,0.273l-27.216,0.635
			c-11.72,0.268-23.638,0.457-35.162,0.641c-6.426,0.103-12.851,0.205-19.275,0.32l-5.532,0.08
			c-16.028,0.233-32.603,0.475-48.902,0.555L289.584,238.382z"/>
		<path style="fill:#BA68C8;" d="M252.819,236.594c-1.853,0-3.569-0.191-5.239-0.581l-0.175-0.993
			c3.945-2.578,8.194-3.485,12.563-4.255l13.382-2.521c6.932-1.345,14.002-2.582,20.84-3.777l5.944-1.043
			c16.051-2.749,32.401-5.387,48.214-7.938l5.503-0.888c6.349-1.002,12.697-2.018,19.046-3.033
			c11.379-1.82,23.145-3.702,34.729-5.474l26.917-4.1c3.08-0.445,6.162-0.899,9.244-1.353c2.931-0.431,5.912-0.87,8.907-1.303
			c-2.978,0.62-5.945,1.23-8.862,1.831c-3.036,0.624-6.071,1.249-9.105,1.881l-26.694,5.352c-11.482,2.296-23.172,4.55-34.477,6.729
			c-6.323,1.219-12.647,2.438-18.967,3.67l-5.467,1.046c-15.733,3.011-32.003,6.124-48.029,9.031l-5.973,1.059
			c-6.824,1.213-13.88,2.467-20.84,3.572l-13.434,2.208C258.429,236.14,255.624,236.594,252.819,236.594z"/>
		<path style="fill:#BA68C8;" d="M248.822,235.939c-0.389,0-0.782-0.011-1.179-0.033l-0.345-0.948
			c3.437-3.224,7.464-4.855,11.632-6.371l12.74-4.806c6.594-2.529,13.343-4.975,19.869-7.34l5.671-2.058
			c15.294-5.481,30.902-10.907,45.997-16.153l5.371-1.868c6.098-2.096,12.193-4.205,18.288-6.314
			c10.871-3.762,22.111-7.651,33.193-11.401l25.797-8.712c2.944-0.97,5.889-1.948,8.834-2.926c2.823-0.938,5.695-1.892,8.582-2.843
			c-2.814,1.124-5.619,2.235-8.377,3.329c-2.893,1.147-5.786,2.294-8.677,3.448l-25.357,9.906
			c-10.928,4.262-22.067,8.519-32.84,12.635c-5.997,2.291-11.994,4.583-17.987,6.887l-5.149,1.959
			c-14.988,5.704-30.488,11.602-45.785,17.255l-5.649,2.062c-6.525,2.386-13.273,4.852-19.952,7.155l-12.846,4.506
			C256.844,234.695,253.078,235.939,248.822,235.939z"/>
		<path style="fill:#BA68C8;" d="M247.181,234.917c2.825-3.772,6.508-6.078,10.35-8.294l11.712-6.946
			c6.071-3.645,12.311-7.236,18.345-10.708l5.176-2.982c14.102-8.049,28.521-16.098,42.466-23.881l4.992-2.787
			c5.617-3.109,11.228-6.232,16.841-9.354c10.076-5.605,20.496-11.402,30.783-17.032l23.892-13.059
			c2.719-1.46,5.438-2.929,8.157-4.397c2.628-1.419,5.303-2.863,7.99-4.307c-2.602,1.611-5.198,3.21-7.75,4.782
			c-2.623,1.615-5.246,3.231-7.866,4.853l-23.251,14.159c-10.035,6.103-20.279,12.237-30.186,18.17
			c-5.495,3.29-10.99,6.58-16.479,9.882l-4.747,2.833c-13.765,8.217-27.999,16.713-42.076,24.934l-5.21,3.014
			c-6.01,3.482-12.226,7.082-18.401,10.508l-11.869,6.668c-3.846,2.221-7.684,4.257-12.363,4.819L247.181,234.917z"/>
		<path style="fill:#BA68C8;" d="M247.059,234.896c2.128-4.207,5.354-7.116,8.752-9.965l10.328-8.874
			c5.326-4.628,10.827-9.23,16.147-13.682l4.639-3.885c12.511-10.394,25.337-20.842,37.74-30.947l4.365-3.556
			c5.003-4.046,9.998-8.104,14.993-12.162c8.939-7.262,18.184-14.77,27.326-22.093l21.26-17.009c2.449-1.93,4.897-3.868,7.346-5.806
			c2.316-1.834,4.674-3.701,7.044-5.569c-2.265,2.022-4.525,4.032-6.748,6.007c-2.32,2.062-4.64,4.124-6.955,6.191l-20.44,17.981
			c-8.814,7.746-17.831,15.559-26.55,23.115c-4.848,4.201-9.695,8.402-14.534,12.613l-4.211,3.638
			c-12.12,10.475-24.653,21.306-37.08,31.837l-4.611,3.876c-5.314,4.471-10.808,9.095-16.294,13.541l-10.53,8.628
			c-3.4,2.855-6.826,5.526-11.338,6.892L247.059,234.896z"/>
		<path style="fill:#BA68C8;" d="M246.935,234.896c1.365-4.51,4.037-7.937,6.888-11.335l8.631-10.532
			c4.46-5.502,9.096-11.012,13.578-16.339l3.842-4.57c10.493-12.38,21.284-24.868,31.721-36.945l3.754-4.346
			c4.221-4.85,8.433-9.709,12.643-14.568c7.546-8.708,15.35-17.711,23.085-26.514l17.983-20.443
			c2.047-2.292,4.091-4.591,6.135-6.891c1.994-2.244,4.023-4.528,6.066-6.815c-1.865,2.366-3.728,4.719-5.559,7.031
			c-1.943,2.454-3.887,4.908-5.823,7.367l-17.009,21.258c-7.322,9.143-14.831,18.386-22.092,27.325
			c-4.058,4.995-8.115,9.991-12.163,14.995l-3.671,4.506c-10.066,12.357-20.476,25.134-30.833,37.601l-3.86,4.609
			c-4.459,5.329-9.069,10.839-13.703,16.173l-8.871,10.326c-2.853,3.402-5.763,6.628-9.97,8.756L246.935,234.896z"/>
		<path style="fill:#BA68C8;" d="M246.813,234.918c0.562-4.678,2.598-8.517,4.816-12.358l6.67-11.871
			c3.415-6.156,7.002-12.348,10.47-18.336l3.055-5.28c8.208-14.056,16.692-28.27,24.898-42.016l2.87-4.808
			c3.311-5.505,6.613-11.019,9.914-16.532c5.922-9.889,12.045-20.115,18.136-30.131l14.161-23.255
			c1.62-2.616,3.235-5.239,4.851-7.862c1.572-2.552,3.171-5.148,4.782-7.751c-1.43,2.661-2.858,5.307-4.263,7.909
			c-1.483,2.747-2.967,5.493-4.443,8.244l-13.059,23.888c-5.641,10.306-11.447,20.744-17.064,30.838
			c-3.111,5.593-6.223,11.186-9.323,16.787l-2.712,4.859c-7.808,13.988-15.88,28.453-23.956,42.599l-2.998,5.204
			c-3.466,6.024-7.051,12.253-10.688,18.313l-6.943,11.709c-2.22,3.845-4.525,7.527-8.298,10.354L246.813,234.918z"/>
		<path style="fill:#BA68C8;" d="M246.698,234.961c-0.261-4.707,1.078-8.84,2.596-13.007l4.508-12.849
			c2.302-6.676,4.767-13.419,7.149-19.939l2.068-5.667c5.645-15.272,11.533-30.749,17.228-45.717l1.985-5.217
			c2.309-6.004,4.605-12.015,6.901-18.025c4.112-10.759,8.363-21.885,12.62-32.799l9.907-25.361c1.154-2.89,2.303-5.786,3.451-8.683
			c1.092-2.753,2.202-5.555,3.324-8.365c-0.955,2.896-1.912,5.777-2.852,8.61c-0.975,2.935-1.949,5.87-2.917,8.808l-8.711,25.793
			c-3.749,11.082-7.64,22.323-11.4,33.193c-2.109,6.096-4.219,12.191-6.315,18.291l-1.875,5.392
			c-5.244,15.087-10.666,30.687-16.146,45.976l-2.029,5.593c-2.374,6.552-4.829,13.327-7.366,19.943l-4.806,12.738
			c-1.519,4.173-3.149,8.201-6.374,11.638L246.698,234.961z"/>
		<path style="fill:#BA68C8;" d="M246.59,235.023c-1.073-4.588-0.473-8.892,0.298-13.26l2.208-13.437
			c1.11-6.994,2.371-14.083,3.59-20.937l1.042-5.88c2.898-15.977,6.002-32.196,9.003-47.882l1.074-5.615
			c1.237-6.348,2.463-12.7,3.688-19.052c2.174-11.276,4.422-22.937,6.712-34.39l5.353-26.696c0.637-3.056,1.267-6.117,1.897-9.178
			c0.596-2.892,1.201-5.834,1.815-8.787c-0.44,3.036-0.884,6.059-1.321,9.03c-0.447,3.041-0.896,6.082-1.336,9.124l-4.1,26.914
			c-1.776,11.62-3.664,23.421-5.489,34.834c-1.011,6.314-2.02,12.628-3.018,18.944l-0.906,5.614
			c-2.545,15.775-5.178,32.087-7.921,48.103l-1.03,5.879c-1.2,6.858-2.44,13.95-3.789,20.9l-2.52,13.378
			c-0.77,4.374-1.678,8.623-4.256,12.568L246.59,235.023z"/>
	</g>
</g>
<g id="Stars_00000127020868542791109230000001518773605498085284_">
	<g id="Stars">
		<path style="fill:#E0E0E0;" d="M113.415,65.299l5.649,4.324l6.765-2.202c0.685-0.223,1.328,0.436,1.088,1.115l-2.367,6.709
			l4.185,5.753c0.424,0.582-0.004,1.398-0.724,1.38l-7.112-0.178l-4.179,5.758c-0.423,0.583-1.331,0.428-1.536-0.263l-2.028-6.819
			l-6.767-2.195c-0.685-0.222-0.818-1.133-0.225-1.542l5.858-4.036l-0.004-7.114C112.018,65.269,112.843,64.861,113.415,65.299z"/>
		<path style="fill:#E0E0E0;" d="M380.474,269.398l-0.369,7.105l5.644,4.331c0.571,0.438,0.392,1.341-0.304,1.528l-6.871,1.845
			l-2.375,6.706c-0.24,0.679-1.155,0.787-1.547,0.184l-3.878-5.964l-7.112-0.187c-0.72-0.019-1.105-0.855-0.653-1.415l4.474-5.531
			l-2.02-6.822c-0.204-0.69,0.471-1.316,1.144-1.058l6.643,2.546l5.863-4.029C379.708,268.229,380.511,268.679,380.474,269.398z"/>
		<path style="fill:#E0E0E0;" d="M385.805,93.457l-0.369,7.105l5.644,4.331c0.571,0.438,0.392,1.341-0.304,1.528l-6.871,1.845
			l-2.375,6.706c-0.241,0.679-1.155,0.787-1.547,0.183l-3.878-5.965l-7.112-0.187c-0.72-0.019-1.105-0.855-0.653-1.415l4.474-5.531
			l-2.02-6.821c-0.204-0.69,0.472-1.316,1.144-1.058l6.643,2.546l5.863-4.029C385.038,92.289,385.842,92.738,385.805,93.457z"/>
		<path style="fill:#E0E0E0;" d="M56.404,351.775l6.781,2.152l5.617-4.366c0.568-0.442,1.397-0.04,1.402,0.68l0.048,7.114
			l5.888,3.993c0.596,0.404,0.47,1.316-0.214,1.543l-6.751,2.244l-1.978,6.834c-0.2,0.692-1.107,0.854-1.534,0.274l-4.221-5.727
			l-7.111,0.23c-0.72,0.023-1.154-0.789-0.734-1.374l4.142-5.784l-2.416-6.691C55.08,352.221,55.718,351.557,56.404,351.775z"/>
		<path style="fill:#E0E0E0;" d="M428.234,430.087l6.781,2.152l5.617-4.366c0.569-0.442,1.397-0.04,1.402,0.68l0.048,7.114
			l5.888,3.993c0.596,0.404,0.47,1.316-0.214,1.543l-6.751,2.244l-1.978,6.834c-0.2,0.692-1.107,0.854-1.534,0.274l-4.221-5.727
			l-7.111,0.23c-0.72,0.023-1.154-0.789-0.734-1.374l4.142-5.784l-2.416-6.691C426.91,430.533,427.548,429.869,428.234,430.087z"/>
		<path style="fill:#E0E0E0;" d="M252.617,430.708l-0.369,7.105l5.644,4.331c0.571,0.438,0.392,1.342-0.304,1.528l-6.871,1.845
			l-2.376,6.706c-0.24,0.679-1.155,0.787-1.547,0.183l-3.878-5.965l-7.112-0.187c-0.72-0.019-1.105-0.855-0.653-1.415l4.474-5.531
			l-2.02-6.821c-0.204-0.69,0.472-1.316,1.144-1.058l6.643,2.546l5.863-4.029C251.851,429.539,252.654,429.989,252.617,430.708z"/>
		<path style="fill:#E0E0E0;" d="M71.598,220.877c0,1.2-0.973,2.172-2.172,2.172c-1.2,0-2.172-0.973-2.172-2.172
			c0-1.2,0.973-2.172,2.172-2.172C70.625,218.705,71.598,219.677,71.598,220.877z"/>
		<circle style="fill:#E0E0E0;" cx="42.474" cy="148.216" r="2.172"/>
		<path style="fill:#E0E0E0;" d="M180.664,333.888c0,1.2-0.973,2.172-2.172,2.172c-1.2,0-2.172-0.973-2.172-2.172
			c0-1.2,0.973-2.172,2.172-2.172C179.691,331.716,180.664,332.688,180.664,333.888z"/>
		<path style="fill:#E0E0E0;" d="M329.204,409.661c0,1.2-0.973,2.172-2.172,2.172s-2.172-0.973-2.172-2.172
			c0-1.2,0.973-2.172,2.172-2.172S329.204,408.462,329.204,409.661z"/>
		<circle style="fill:#E0E0E0;" cx="457.848" cy="213.895" r="2.172"/>
		<circle style="fill:#E0E0E0;" cx="440.857" cy="116.539" r="2.172"/>
		<path style="fill:#E0E0E0;" d="M293.535,78.595c0,1.2-0.973,2.172-2.172,2.172c-1.2,0-2.172-0.973-2.172-2.172
			s0.973-2.172,2.172-2.172C292.563,76.423,293.535,77.396,293.535,78.595z"/>
		<circle style="fill:#E0E0E0;" cx="177.062" cy="79.001" r="2.172"/>
	</g>
</g>
<g id="Diplomas">
	<g id="Diploma">
		<g>
			<g>
				<path style="fill:#BA68C8;" d="M361.923,210.994l32.6-29.389l4.337-4.345L431.056,142l0.527-0.571
					c1.203-1.201,3.199-1.608,5.707-0.938c5.023,1.347,10.183,6.516,11.523,11.541c0.673,2.516,0.264,4.512-0.94,5.713
					l-35.86,32.689l-4.322,4.315l-29.664,32.717l-0.044,0.044c-1.211,1.164-3.2,1.563-5.677,0.893
					c-5.015-1.354-10.169-6.516-11.523-11.541c-0.666-2.509-0.249-4.512,0.954-5.713l0.171-0.171L361.923,210.994z"/>
				<path style="opacity:0.4;fill:#FFFFFF;" d="M361.923,210.994l32.6-29.389l4.337-4.345L431.056,142l0.527-0.571
					c1.203-1.201,3.199-1.608,5.707-0.938c5.023,1.347,10.183,6.516,11.523,11.541c0.673,2.516,0.264,4.512-0.94,5.713
					l-35.86,32.689l-4.322,4.315l-29.664,32.717l-0.044,0.044c-1.211,1.164-3.2,1.563-5.677,0.893
					c-5.015-1.354-10.169-6.516-11.523-11.541c-0.666-2.509-0.249-4.512,0.954-5.713l0.171-0.171L361.923,210.994z"/>
				<path style="opacity:0.3;fill:#BA68C8;" d="M432.738,140.638c-0.438,0.203-0.828,0.465-1.154,0.791L431.056,142l-32.196,35.26
					l-4.337,4.345l-32.6,29.389l-0.015-0.015l-0.171,0.171c-1.203,1.201-1.62,3.204-0.954,5.713
					c0.934,3.465,3.675,6.995,6.931,9.296l68.389-68.268C436.104,157.892,429.175,148.609,432.738,140.638z"/>
				<path style="fill:#BA68C8;" d="M437.295,140.493c-2.511-0.675-4.512-0.268-5.717,0.936s-1.616,3.204-0.945,5.716
					c1.342,5.024,6.501,10.19,11.522,11.54c2.511,0.675,4.512,0.268,5.717-0.936c1.206-1.204,1.616-3.204,0.945-5.716
					C447.475,147.009,442.316,141.843,437.295,140.493z"/>
			</g>
			<path style="fill:#BA68C8;" d="M361.366,211.521l0.542-0.541l0.015,0.015l32.6-29.389l4.337-4.345L431.056,142
				c-4.768,5.77,1.517,14.724,1.517,14.724l-70.217,70.092C362.356,226.816,355.641,217.238,361.366,211.521z"/>
			<path style="opacity:0.6;fill:#FFFFFF;" d="M361.366,211.521l0.542-0.541l0.015,0.015l32.6-29.389l4.337-4.345L431.056,142
				c-4.768,5.77,1.517,14.724,1.517,14.724l-70.217,70.092C362.356,226.816,355.641,217.238,361.366,211.521z"/>
			<path style="opacity:0.25;fill:#FFFFFF;" d="M437.295,140.493c-2.511-0.675-4.512-0.268-5.717,0.936s-1.616,3.204-0.945,5.716
				c1.342,5.024,6.501,10.19,11.522,11.54c2.511,0.675,4.512,0.268,5.717-0.936c1.206-1.204,1.616-3.204,0.945-5.716
				C447.475,147.009,442.316,141.843,437.295,140.493z"/>
			<path style="opacity:0.5;fill:#BA68C8;" d="M441.585,151.732c5.485,1.117,4.013-5.696-1.449-10.087l0,0
				c-0.934-0.503-1.89-0.896-2.841-1.152c-2.511-0.675-4.512-0.268-5.717,0.936c-1.206,1.204-1.616,3.204-0.945,5.716
				c0.887,3.322,3.448,6.7,6.53,9.002L441.585,151.732z"/>
			<path style="fill:#BA68C8;" d="M444.39,151.292l-5.823,5.814c-0.495-0.288-0.962-0.609-1.404-0.959l4.422-4.416
				C442.424,151.881,443.635,151.964,444.39,151.292z"/>
			<path style="opacity:0.1;" d="M444.39,151.292l-5.823,5.814c-0.495-0.288-0.962-0.609-1.404-0.959l4.422-4.416
				C442.424,151.881,443.635,151.964,444.39,151.292z"/>
		</g>
		<g>
			<path style="fill:#BA68C8;" d="M408.109,194.34c7.09,3.126,12.462,9.115,16.8,16.827c0.251-2.442,0.246-4.784-0.323-6.905
				c2.055,0.375,3.79,1.046,5.417,1.819c-4.514-7.137-9.941-12.945-16.736-16.762l-1.247,1.116L408.109,194.34z"/>
			<path style="opacity:0.2;" d="M411.214,195.964l1.114-2.252l3.537-2.788c-0.844-0.567-1.707-1.105-2.597-1.605l-1.247,1.115
				l-3.912,3.906C409.185,194.814,410.216,195.362,411.214,195.964z"/>
		</g>
		<g>
			<path style="fill:#BA68C8;" d="M394.522,181.6c-0.953,0.974-1.275,2.577-0.738,4.586c1.083,4.055,5.247,8.226,9.301,9.316
				c1.991,0.535,3.584,0.226,4.562-0.706c0.016-0.015,0.033-0.028,0.049-0.043l4.325-4.318c-0.973,0.971-2.588,1.299-4.615,0.755
				c-4.054-1.089-8.218-5.26-9.301-9.316c-0.541-2.028-0.21-3.643,0.762-4.614l-4.319,4.313
				C394.539,181.581,394.531,181.591,394.522,181.6z"/>
			<path style="opacity:0.15;fill:#FFFFFF;" d="M400.703,186.61c-0.897-1.07-1.637-2.239-2.14-3.431l-4.32,4.313
				c0.503,1.191,1.243,2.36,2.14,3.43L400.703,186.61z M393.785,186.187c0.003,0.011,0.007,0.022,0.01,0.033l4.32-4.313
				c-0.003-0.011-0.007-0.022-0.01-0.033c-0.187-0.699-0.263-1.345-0.251-1.937l-4.321,4.314
				C393.521,184.842,393.598,185.488,393.785,186.187z"/>
			<path style="opacity:0.1;" d="M400.172,194.214c0.948,0.579,1.934,1.025,2.914,1.289c1.991,0.535,3.584,0.226,4.562-0.706
				c0.016-0.015,0.033-0.028,0.049-0.043l4.325-4.318c-0.973,0.971-2.588,1.299-4.615,0.755c-0.98-0.263-1.966-0.71-2.915-1.289
				L400.172,194.214z"/>
		</g>
	</g>
	<g id="Diploma_00000123428524967590938860000004747584665761414789_">
		<g>
			<g>
				<path style="fill:#BA68C8;" d="M54.25,240.899l40.605,22.861l5.84,2.894l46.375,20.469l0.753,0.338
					c1.616,0.804,2.701,2.676,2.875,5.426c0.344,5.51-3.112,12.452-7.715,15.5c-2.304,1.529-4.451,1.792-6.067,0.988l-45.028-25.026
					l-5.805-2.889l-42.959-18.781l-0.06-0.03c-1.581-0.824-2.656-2.691-2.82-5.411c-0.334-5.505,3.116-12.437,7.715-15.5
					c2.299-1.519,4.456-1.777,6.072-0.973l0.229,0.114L54.25,240.899z"/>
				<path style="opacity:0.4;fill:#FFFFFF;" d="M54.25,240.899l40.605,22.861l5.84,2.894l46.375,20.469l0.753,0.338
					c1.616,0.804,2.701,2.676,2.875,5.426c0.344,5.51-3.112,12.452-7.715,15.5c-2.304,1.529-4.451,1.792-6.067,0.988l-45.028-25.026
					l-5.805-2.889l-42.959-18.781l-0.06-0.03c-1.581-0.824-2.656-2.691-2.82-5.411c-0.334-5.505,3.116-12.437,7.715-15.5
					c2.299-1.519,4.456-1.777,6.072-0.973l0.229,0.114L54.25,240.899z"/>
				<path style="opacity:0.3;fill:#BA68C8;" d="M149.01,288.355c-0.353-0.372-0.748-0.676-1.187-0.894l-0.753-0.337l-46.375-20.469
					l-5.84-2.894l-40.605-22.861l0.01-0.02l-0.229-0.114c-1.616-0.804-3.773-0.546-6.072,0.973c-3.171,2.112-5.795,6.064-7.01,10.12
					l91.837,45.722C132.786,297.58,139.783,287.467,149.01,288.355z"/>
				<path style="fill:#BA68C8;" d="M150.698,292.891c-0.17-2.755-1.257-4.631-2.876-5.437c-1.619-0.806-3.771-0.542-6.072,0.983
					c-4.601,3.05-8.055,9.989-7.714,15.499c0.17,2.755,1.257,4.631,2.876,5.437c1.619,0.806,3.771,0.542,6.072-0.983
					C147.585,305.34,151.038,298.401,150.698,292.891z"/>
			</g>
			<path style="fill:#BA68C8;" d="M53.532,240.517l0.728,0.363l-0.01,0.02l40.605,22.861l5.84,2.894l46.375,20.469
				c-7.419-2.846-14.303,6.509-14.303,6.509l-94.291-46.944C38.476,246.688,45.842,236.689,53.532,240.517z"/>
			<path style="opacity:0.6;fill:#FFFFFF;" d="M53.532,240.517l0.728,0.363l-0.01,0.02l40.605,22.861l5.84,2.894l46.375,20.469
				c-7.419-2.846-14.303,6.509-14.303,6.509l-94.291-46.944C38.476,246.688,45.842,236.689,53.532,240.517z"/>
			<path style="opacity:0.25;fill:#FFFFFF;" d="M150.698,292.891c-0.17-2.755-1.257-4.631-2.876-5.437
				c-1.619-0.806-3.771-0.542-6.072,0.983c-4.601,3.05-8.055,9.989-7.714,15.499c0.17,2.755,1.257,4.631,2.876,5.437
				c1.619,0.806,3.771,0.542,6.072-0.983C147.585,305.34,151.038,298.401,150.698,292.891z"/>
			<path style="opacity:0.5;fill:#BA68C8;" d="M140.839,301.012c0.732,5.897,7.09,2.111,9.66-4.871l0,0
				c0.19-1.11,0.262-2.205,0.198-3.249c-0.17-2.755-1.257-4.631-2.876-5.437c-1.619-0.806-3.771-0.542-6.072,0.983
				c-3.043,2.017-5.576,5.736-6.85,9.617L140.839,301.012z"/>
			<path style="fill:#BA68C8;" d="M142.231,303.685l-7.821-3.893c0.122-0.596,0.288-1.174,0.49-1.737l5.94,2.956
				C140.973,301.906,141.299,303.152,142.231,303.685z"/>
			<path style="opacity:0.1;" d="M142.231,303.685l-7.821-3.893c0.122-0.596,0.288-1.174,0.49-1.737l5.94,2.956
				C140.973,301.906,141.299,303.152,142.231,303.685z"/>
		</g>
		<g>
			<path style="fill:#BA68C8;" d="M86.637,281.741c-0.747,8.192-4.956,15.625-11.248,22.599c2.543-0.573,4.898-1.371,6.839-2.661
				c0.318,2.194,0.23,4.168,0.002,6.067c5.655-6.957,9.662-14.384,11.205-22.512l-1.545-0.878L86.637,281.741z"/>
			<path style="opacity:0.2;" d="M86.053,285.415l2.643,0.359l4.002,2.616c0.285-1.041,0.534-2.092,0.736-3.157l-1.544-0.878
				l-5.254-2.615C86.523,282.984,86.321,284.206,86.053,285.415z"/>
		</g>
		<g>
			<path style="fill:#BA68C8;" d="M94.859,263.758c-1.303-0.63-3.024-0.411-4.865,0.809c-3.714,2.462-6.502,8.064-6.227,12.512
				c0.135,2.185,0.985,3.683,2.254,4.351c0.02,0.011,0.039,0.024,0.06,0.034l5.809,2.891c-1.307-0.65-2.183-2.164-2.321-4.389
				c-0.275-4.448,2.512-10.05,6.228-12.512c1.858-1.231,3.594-1.444,4.901-0.794l-5.801-2.888
				C94.884,263.768,94.872,263.764,94.859,263.758z"/>
			<path style="opacity:0.15;fill:#FFFFFF;" d="M91.909,271.672c0.773-1.265,1.699-2.405,2.728-3.314l-5.802-2.888
				c-1.029,0.91-1.954,2.049-2.728,3.314L91.909,271.672z M89.995,264.567c-0.01,0.007-0.02,0.015-0.03,0.022l5.802,2.888
				c0.01-0.007,0.019-0.015,0.029-0.021c0.641-0.424,1.265-0.719,1.864-0.908l-5.803-2.888
				C91.259,263.847,90.635,264.143,89.995,264.567z"/>
			<path style="opacity:0.1;" d="M84.078,273.711c-0.261,1.15-0.378,2.293-0.311,3.368c0.135,2.185,0.985,3.683,2.254,4.351
				c0.02,0.011,0.039,0.024,0.06,0.034l5.809,2.891c-1.307-0.65-2.183-2.164-2.321-4.389c-0.067-1.076,0.049-2.219,0.311-3.369
				L84.078,273.711z"/>
		</g>
	</g>
	<g id="Diploma_00000121262346100823402670000003834212778183108501_">
		<g>
			<g>
				<path style="fill:#BA68C8;" d="M235.653,318.428l32.886,23.671l4.768,3.064l38.103,22.16l0.618,0.364
					c1.319,0.851,2.076,2.572,1.961,4.966c-0.234,4.795-3.889,10.461-8.161,12.651c-2.139,1.099-4.019,1.119-5.338,0.269
					l-36.5-25.968l-4.738-3.057l-35.314-20.372l-0.049-0.031c-1.287-0.865-2.035-2.581-1.915-4.948
					c0.242-4.79,3.892-10.448,8.161-12.651c2.133-1.091,4.022-1.106,5.341-0.255l0.187,0.121L235.653,318.428z"/>
				<path style="opacity:0.4;fill:#FFFFFF;" d="M235.653,318.428l32.886,23.671l4.768,3.064l38.103,22.16l0.618,0.364
					c1.319,0.851,2.076,2.572,1.961,4.966c-0.234,4.795-3.889,10.461-8.161,12.651c-2.139,1.099-4.019,1.119-5.338,0.269
					l-36.5-25.968l-4.738-3.057l-35.314-20.372l-0.049-0.031c-1.287-0.865-2.035-2.581-1.915-4.948
					c0.242-4.79,3.892-10.448,8.161-12.651c2.133-1.091,4.022-1.106,5.341-0.255l0.187,0.121L235.653,318.428z"/>
				<path style="opacity:0.3;fill:#BA68C8;" d="M312.967,368.574c-0.269-0.355-0.581-0.656-0.939-0.887l-0.618-0.364l-38.103-22.16
					l-4.768-3.064l-32.886-23.671l0.01-0.016l-0.187-0.121c-1.319-0.851-3.208-0.836-5.341,0.255
					c-2.944,1.519-5.593,4.682-7.033,8.07l74.956,48.366C298.057,374.983,305.079,366.918,312.967,368.574z"/>
				<path style="fill:#BA68C8;" d="M313.988,372.658c0.118-2.397-0.64-4.123-1.962-4.976c-1.322-0.853-3.207-0.832-5.342,0.264
					c-4.27,2.192-7.924,7.856-8.161,12.65c-0.118,2.397,0.64,4.123,1.962,4.975c1.322,0.853,3.207,0.832,5.342-0.264
					C310.098,383.116,313.752,377.452,313.988,372.658z"/>
			</g>
			<path style="fill:#BA68C8;" d="M235.069,318.029l0.594,0.383l-0.01,0.016l32.886,23.671l4.768,3.064l38.103,22.16
				c-6.137-3.175-12.988,4.246-12.988,4.246l-76.959-49.659C221.463,321.91,228.792,313.98,235.069,318.029z"/>
			<path style="opacity:0.6;fill:#FFFFFF;" d="M235.069,318.029l0.594,0.383l-0.01,0.016l32.886,23.671l4.768,3.064l38.103,22.16
				c-6.137-3.175-12.988,4.246-12.988,4.246l-76.959-49.659C221.463,321.91,228.792,313.98,235.069,318.029z"/>
			<path style="opacity:0.25;fill:#FFFFFF;" d="M313.988,372.658c0.118-2.397-0.64-4.123-1.962-4.976
				c-1.322-0.853-3.207-0.832-5.342,0.264c-4.27,2.192-7.924,7.856-8.161,12.65c-0.118,2.397,0.64,4.123,1.962,4.975
				c1.322,0.853,3.207,0.832,5.342-0.264C310.098,383.116,313.752,377.452,313.988,372.658z"/>
			<path style="opacity:0.5;fill:#BA68C8;" d="M304.686,378.725c0.064,5.167,5.924,2.508,8.818-3.278l0,0
				c0.271-0.941,0.439-1.88,0.484-2.789c0.118-2.397-0.64-4.123-1.962-4.976c-1.322-0.853-3.207-0.832-5.342,0.264
				c-2.824,1.45-5.372,4.42-6.846,7.651L304.686,378.725z"/>
			<path style="fill:#BA68C8;" d="M305.631,381.169l-6.384-4.118c0.163-0.503,0.362-0.987,0.591-1.454l4.848,3.128
				C304.715,379.51,304.877,380.619,305.631,381.169z"/>
			<path style="opacity:0.1;" d="M305.631,381.169l-6.384-4.118c0.163-0.503,0.362-0.987,0.591-1.454l4.848,3.128
				C304.715,379.51,304.877,380.619,305.631,381.169z"/>
		</g>
		<g>
			<path style="fill:#BA68C8;" d="M259.703,356.846c-1.435,7.008-5.789,13.025-11.899,18.446c2.253-0.25,4.365-0.712,6.167-1.641
				c0.063,1.927-0.203,3.624-0.583,5.243c5.558-5.467,9.737-11.499,11.854-18.374l-1.25-0.907L259.703,356.846z"/>
			<path style="opacity:0.2;" d="M258.845,359.965l2.25,0.565l3.206,2.647c0.347-0.872,0.663-1.756,0.941-2.657l-1.25-0.908
				l-4.288-2.766C259.485,357.909,259.193,358.946,258.845,359.965z"/>
		</g>
		<g>
			<path style="fill:#BA68C8;" d="M268.543,342.098c-1.065-0.67-2.574-0.646-4.282,0.23c-3.447,1.77-6.397,6.342-6.588,10.212
				c-0.094,1.901,0.496,3.278,1.529,3.978c0.016,0.011,0.032,0.024,0.048,0.035l4.741,3.059c-1.066-0.688-1.678-2.081-1.583-4.017
				c0.191-3.871,3.14-8.442,6.588-10.212c1.724-0.885,3.246-0.902,4.312-0.214l-4.735-3.055
				C268.563,342.109,268.552,342.104,268.543,342.098z"/>
			<path style="opacity:0.15;fill:#FFFFFF;" d="M265.23,348.653c0.79-1.019,1.7-1.914,2.677-2.601l-4.736-3.055
				c-0.977,0.687-1.887,1.583-2.677,2.601L265.23,348.653z M264.261,342.328c-0.009,0.005-0.018,0.011-0.028,0.016l4.736,3.055
				c0.009-0.005,0.018-0.011,0.027-0.016c0.595-0.305,1.162-0.5,1.698-0.605l-4.736-3.055
				C265.422,341.828,264.855,342.023,264.261,342.328z"/>
			<path style="opacity:0.1;" d="M258.266,349.659c-0.337,0.968-0.547,1.945-0.594,2.881c-0.094,1.901,0.496,3.278,1.529,3.978
				c0.016,0.011,0.032,0.024,0.048,0.035l4.741,3.059c-1.066-0.688-1.678-2.081-1.583-4.017c0.046-0.936,0.257-1.913,0.593-2.881
				L258.266,349.659z"/>
		</g>
	</g>
</g>
<g id="Graduation_Hat_3">
	<g id="Graduation_Hat">
		<g id="XMLID_00000073683880335819546610000012919405394652720042_">
			<path style="fill:#37474F;" d="M420.073,410.244c-3.224,5.606-10.132,9.134-19.999,9.265
				c-19.915,0.265-44.317-13.394-54.503-30.509c-5.004-8.406-5.639-16.078-2.636-21.743c0.047-0.091,0.085-0.188,0.134-0.277
				l18.37-32.818c-3.186,5.691-2.609,13.489,2.483,22.05c10.186,17.117,34.587,30.775,54.504,30.509
				c9.96-0.136,16.909-3.721,20.094-9.412l-18.352,32.785C420.139,410.145,420.103,410.193,420.073,410.244z"/>
			<path style="fill:#BA68C8;" d="M426.785,398.252c-3.223,5.606-10.132,9.134-19.999,9.265
				c-19.915,0.265-44.317-13.394-54.503-30.509c-5.004-8.406-5.639-16.078-2.636-21.743c0.047-0.092,0.085-0.188,0.134-0.277
				l1.938-3.462c-3.186,5.691-2.609,13.489,2.483,22.05c10.186,17.117,34.587,30.775,54.504,30.509
				c9.96-0.136,16.909-3.721,20.094-9.412l-1.919,3.429C426.852,398.153,426.815,398.201,426.785,398.252z"/>
			<path style="opacity:0.2;" d="M362.113,377.361c-8.138-3.868-14.51,4.764-11.126,18.99c-2.076-2.353-3.906-4.813-5.417-7.351
				c-5.004-8.406-5.639-16.078-2.636-21.743c0.047-0.091,0.085-0.188,0.134-0.277l18.37-32.818
				c-3.186,5.691-2.609,13.489,2.483,22.05c10.186,17.117,34.587,30.775,54.504,30.509c0.005,0,0.01,0,0.016-0.001
				c-0.005,0-0.01,0.001-0.015,0.002C394.374,388.775,372.958,382.517,362.113,377.361z"/>
			
				<ellipse transform="matrix(0.4884 -0.8726 0.8726 0.4884 -105.7983 530.9995)" style="fill:#263238;" cx="399.982" cy="355.733" rx="25.5" ry="44.167"/>
		</g>
		<g>
			<polygon style="fill:#37474F;" points="464.283,392.164 420.622,318.856 335.305,319.968 332.464,325.045 376.112,398.375 
				461.441,397.241 			"/>
			<polygon style="opacity:0.2;fill:#FFFFFF;" points="376.112,398.375 378.953,393.298 464.283,392.164 461.441,397.241 			"/>
			<polygon style="opacity:0.2;fill:#FFFFFF;" points="378.953,393.298 462.516,393.152 461.441,397.241 464.283,392.164 			"/>
			<polygon style="fill:#455A64;" points="420.623,318.856 335.306,319.968 378.953,393.298 464.283,392.164 			"/>
		</g>
		<g>
			<path style="fill:#BA68C8;" d="M426.241,278.593c-0.036-0.786-1.161-1.661-1.666-0.76c-1.581,2.819-2.582,5.888-3.835,8.861
				c-1.236,2.931-2.693,5.789-4.309,8.529c-3.086,5.232-7.004,9.592-11.156,13.983c-4.164,4.403-7.681,9.025-9.764,14.772
				c-1.828,5.044-2.578,10.554-2.13,15.9c0.265,3.168,0.889,6.248,1.902,9.262c1.017,3.025,2.635,6.346,5.042,8.507
				c0.574,0.516,1.611,0.455,1.407-0.555c-0.262-1.302-0.894-2.442-1.35-3.685c-0.481-1.309-0.946-2.636-1.386-3.959
				c-0.874-2.633-1.425-5.423-1.639-8.189c-0.402-5.181,0.227-10.417,1.954-15.321c1.873-5.319,5.086-9.683,8.965-13.72
				c4.31-4.486,8.441-8.995,11.67-14.348c1.731-2.869,3.194-5.874,4.368-9.013c0.609-1.629,1.118-3.272,1.512-4.968
				C426.248,282.071,426.326,280.462,426.241,278.593z"/>
			<g>
				<g>
					<path style="fill:#BA68C8;" d="M411.734,239.338c1.557,3.096,4.767,9.967,7.727,19.348c4.069,12.992,1.869,18.911,5.477,19.238
						c3.287,0.279,7.55-10.682,9.057-23.454c1.094-9.184-0.977-16.137-2.506-19.899c-0.245-0.602-0.9-0.924-1.528-0.757
						c-0.346,0.092-0.866,0.468-0.814,1.105c-0.421-1.01-0.694-1.738-1.784-1.562c-0.704,0.114-1.1,0.89-0.915,1.579
						c0.932,3.475,2.863,11.947,1.637,18.72c-0.31-8.383-3.405-16.283-5.083-20.119c-0.259-0.591-0.909-0.903-1.531-0.733
						l-0.033,0.009c-0.752,0.206-1.156,1.022-0.856,1.742c1.598,3.843,6.015,14.015,5.175,26.391
						c-0.508-10.844-4.862-20.829-6.385-23.926c-0.332-0.676-1.132-1.196-1.88-0.847c-0.01,0.005,0,0-0.01,0.005
						c-0.71,0.345-1.045,1.113-0.621,1.983c1.446,2.964,4.99,11.533,5.613,19.09c-0.216-0.607-5.038-12.641-8.19-19.121
						c-0.277-0.569-0.921-0.857-1.528-0.681l-0.222,0.064C411.754,237.74,411.37,238.613,411.734,239.338z M429.811,262.545
						c0.991-5.9,2.526-15.854-0.036-25.087C433.488,248.704,431.627,255.881,429.811,262.545z"/>
					<path style="fill:#BA68C8;" d="M421.888,280.118c1.453,1.981,4.237,2.409,6.218,0.956c1.981-1.453,2.409-4.237,0.956-6.218
						c-1.453-1.981-4.237-2.409-6.218-0.956S420.435,278.137,421.888,280.118z"/>
					<path style="opacity:0.2;" d="M421.888,280.118c1.453,1.981,4.237,2.409,6.218,0.956c1.981-1.453,2.409-4.237,0.956-6.218
						c-1.453-1.981-4.237-2.409-6.218-0.956S420.435,278.137,421.888,280.118z"/>
				</g>
			</g>
		</g>
		<g>
			<path style="fill:#263238;" d="M395.167,352.915c0.402-0.719,1.28-1.172,2.537-1.189c2.514-0.033,5.596,1.691,6.882,3.852
				c0.643,1.081,0.716,2.066,0.313,2.785c-0.15,0.268-0.74,1.322-0.89,1.59c-0.402,0.719-1.28,1.172-2.537,1.189
				c-2.514,0.033-5.596-1.691-6.882-3.852c-0.643-1.081-0.716-2.066-0.313-2.785C394.427,354.237,395.017,353.183,395.167,352.915z"
				/>
			<path style="fill:#37474F;" d="M402.362,359.552c2.514-0.034,3.51-1.812,2.224-3.973c-1.286-2.161-4.367-3.885-6.882-3.852
				c-2.515,0.034-3.51,1.812-2.224,3.973C396.767,357.861,399.848,359.585,402.362,359.552z"/>
		</g>
	</g>
</g>
<g id="Graduation_Hat_2">
	<g id="Graduation_Hat_00000127014148537649347900000000465727538000766122_">
		<g id="XMLID_00000121957533023786957230000007094917229826810265_">
			<path style="fill:#37474F;" d="M113.274,430.034c1.892,6.184,7.839,11.164,17.429,13.492c19.354,4.7,46.188-3.172,59.935-17.583
				c6.753-7.078,9.083-14.415,7.419-20.607c-0.025-0.1-0.041-0.202-0.069-0.3l-10.587-36.089c1.836,6.259-0.466,13.731-7.339,20.941
				c-13.748,14.414-40.58,22.285-59.936,17.583c-9.679-2.354-15.653-7.399-17.489-13.657l10.576,36.052
				C113.231,429.923,113.256,429.978,113.274,430.034z"/>
			<path style="fill:#BA68C8;" d="M109.405,416.848c1.892,6.184,7.839,11.164,17.429,13.492c19.354,4.7,46.188-3.172,59.935-17.583
				c6.753-7.078,9.083-14.415,7.419-20.607c-0.025-0.1-0.041-0.202-0.069-0.301l-1.117-3.807c1.836,6.258-0.466,13.731-7.339,20.941
				c-13.748,14.414-40.58,22.285-59.935,17.583c-9.679-2.354-15.653-7.399-17.489-13.657l1.106,3.771
				C109.362,416.737,109.387,416.791,109.405,416.848z"/>
			<path style="opacity:0.2;" d="M177.108,410.908c8.796-1.956,13.082,7.88,6.61,20.993c2.548-1.83,4.881-3.82,6.92-5.958
				c6.753-7.078,9.083-14.415,7.419-20.607c-0.025-0.1-0.041-0.202-0.069-0.3l-10.587-36.089c1.836,6.259-0.466,13.731-7.339,20.941
				c-13.748,14.414-40.58,22.285-59.936,17.583c-0.005-0.001-0.01-0.003-0.015-0.004c0.005,0.001,0.009,0.003,0.014,0.005
				C143.114,414.839,165.386,413.514,177.108,410.908z"/>
			
				<ellipse transform="matrix(0.9596 -0.2815 0.2815 0.9596 -101.4968 56.247)" style="fill:#263238;" cx="145.017" cy="381.379" rx="44.167" ry="25.5"/>
		</g>
		<g>
			<polygon style="fill:#37474F;" points="74.21,402.549 133.122,340.826 216.042,360.94 217.679,366.523 158.775,428.27 
				75.848,408.132 			"/>
			<polygon style="opacity:0.2;fill:#FFFFFF;" points="158.775,428.27 157.137,422.687 74.21,402.549 75.848,408.132 			"/>
			<polygon style="opacity:0.2;fill:#FFFFFF;" points="157.137,422.687 75.712,403.906 75.848,408.132 74.21,402.549 			"/>
			<polygon style="fill:#455A64;" points="133.121,340.826 216.041,360.94 157.137,422.687 74.21,402.549 			"/>
		</g>
		<g>
			<path style="fill:#BA68C8;" d="M93.796,434.811c0.336-1.543,1.025-2.923,1.543-4.405c0.549-1.571,0.983-3.204,1.305-4.842
				c0.657-3.34,0.577-6.735,0.708-10.124c0.228-5.888,1.635-11.511,4.223-16.751c4.94-10,14.191-17.32,24.711-19.785
				c3.101-0.726,6.278-1.035,9.456-0.918c1.513,0.056,3.019,0.204,4.505,0.504c1.556,0.314,3.39,0.571,4.686,1.56
				c0.719,0.549,0.073,2.094-0.768,2.096c-1.465,0.003-2.882-0.336-4.338-0.496c-1.376-0.152-2.759-0.236-4.143-0.258
				c-2.604-0.042-5.175,0.259-7.727,0.789c-4.934,1.024-9.726,3.24-13.668,6.506c-7.684,6.366-12.383,16.048-12.883,26.232
				c-0.345,7.023-0.601,15.007-5.622,20.41C95.211,435.946,93.503,436.156,93.796,434.811z"/>
			<g>
				<path style="fill:#BA68C8;" d="M62.995,462.278l0.155,0.171c0.425,0.469,1.124,0.561,1.659,0.221
					c6.079-3.867,16.493-11.591,16.994-11.995c-4.49,6.11-11.999,11.552-14.783,13.319c-0.817,0.519-0.935,1.349-0.51,2.015
					c0.006,0.009,0,0,0.006,0.009c0.455,0.689,1.408,0.665,2.045,0.263c2.92-1.84,11.86-8.063,17.974-17.033
					c-5.769,10.981-14.861,17.33-18.235,19.766c-0.632,0.457-0.717,1.363-0.184,1.933l0.024,0.025
					c0.441,0.471,1.158,0.546,1.688,0.178c3.439-2.388,10.214-7.495,14.871-14.473c-2.504,6.411-8.588,12.616-11.202,15.087
					c-0.519,0.49-0.588,1.359-0.048,1.824c0.837,0.721,1.45,0.245,2.338-0.395c-0.379,0.514-0.132,1.107,0.114,1.367
					c0.448,0.471,1.174,0.54,1.698,0.156c3.274-2.404,8.68-7.24,12.561-15.636c5.408-11.668,7.521-23.237,4.575-24.722
					c-3.245-1.612-4.472,4.582-14.745,13.516c-7.436,6.44-13.771,10.61-16.719,12.431C62.58,460.733,62.45,461.677,62.995,462.278z
					 M77.652,471.36c7.02-6.521,10.927-15.804,13.175-21.348C88.883,456.639,86.707,463.727,77.652,471.36z"/>
				<path style="fill:#BA68C8;" d="M93.286,430.893c2.276-0.926,4.871,0.168,5.797,2.443c0.926,2.276-0.168,4.871-2.443,5.797
					c-2.276,0.926-4.871-0.168-5.797-2.443C89.917,434.414,91.011,431.819,93.286,430.893z"/>
				<path style="opacity:0.2;" d="M93.286,430.893c2.276-0.926,4.871,0.168,5.797,2.443c0.926,2.276-0.168,4.871-2.443,5.797
					c-2.276,0.926-4.871-0.168-5.797-2.443C89.917,434.414,91.011,431.819,93.286,430.893z"/>
			</g>
		</g>
		<g>
			<path style="fill:#263238;" d="M150.339,379.705c-0.232-0.791-0.986-1.428-2.208-1.725c-2.444-0.593-5.832,0.401-7.568,2.22
				c-0.868,0.91-1.158,1.854-0.926,2.644c0.086,0.295,0.426,1.453,0.513,1.748c0.232,0.79,0.986,1.428,2.208,1.725
				c2.444,0.593,5.832-0.401,7.568-2.22c0.868-0.91,1.158-1.854,0.926-2.644C150.765,381.159,150.426,380,150.339,379.705z"/>
			<path style="fill:#37474F;" d="M141.845,384.57c-2.444-0.594-3.018-2.55-1.282-4.369c1.736-1.819,5.124-2.814,7.568-2.22
				c2.444,0.594,3.018,2.55,1.282,4.369C147.677,384.169,144.289,385.163,141.845,384.57z"/>
		</g>
	</g>
</g>
<g id="Graduation_Hat_1">
	<g id="Graduation_Hat_00000181047607935225172100000010341496402011438992_">
		<g>
			<path style="fill:#BA68C8;" d="M79.321,100.579l-0.349,0.033c-0.955,0.09-1.703,0.854-1.777,1.811
				c-0.839,10.892-0.942,30.549-0.908,31.525c-3.327-11.004-3.098-25.062-2.708-30.047c0.114-1.463-0.786-2.36-1.979-2.452
				c-0.016-0.001,0,0-0.016-0.001c-1.25-0.075-2.087,1.103-2.18,2.242c-0.424,5.215-1.007,21.72,4.312,37.297
				c-8.073-16.986-7.504-33.791-7.39-40.099c0.021-1.182-1.002-2.109-2.177-1.981l-0.052,0.006
				c-0.972,0.106-1.716,0.908-1.751,1.885c-0.232,6.344-0.199,19.208,4.028,31.203c-5.499-8.869-7.492-21.892-8.111-27.312
				c-0.123-1.075-1.113-1.95-2.169-1.718c-1.636,0.359-1.616,1.537-1.647,3.195c-0.28-0.927-1.222-1.168-1.762-1.105
				c-0.979,0.114-1.723,0.932-1.733,1.918c-0.063,6.158,0.887,17.115,7.54,29.46c9.234,17.174,21.346,30.259,25.826,28.037
				c4.908-2.47-1.491-9.593-2.982-30.18c-1.048-14.878-0.344-26.355,0.129-31.588C81.573,101.481,80.546,100.464,79.321,100.579z
				 M54.973,110.096c1.525,14.446,9.23,27.63,13.911,35.4C62.614,137.109,55.995,128.023,54.973,110.096z"/>
			<path style="fill:#BA68C8;" d="M253.634,198.379c-3.8-6.483-8.73-12.063-14.337-17.042c-5.058-4.491-10.549-8.515-16.478-11.781
				c-11.689-6.439-24.951-10.166-38.334-10.084c-6.746,0.041-13.47,0.947-19.916,2.969c-6.087,1.91-11.773,4.781-17.343,7.852
				c-5.079,2.8-10.095,5.742-15.383,8.14c-1.378,0.625-1.9,0.845-3.116,1.309c-1.423,0.543-2.866,1.031-4.331,1.448
				c-2.744,0.781-5.073,1.212-7.595,1.363c-6.008,0.359-11.59-1.05-16.847-4.003c-2.884-1.62-5.549-3.663-7.868-6.02
				c-1.244-1.265-2.484-2.528-3.514-3.979c-0.405-0.57-0.8-1.141-1.228-1.694c-0.4-0.516-0.783-0.912-1.299-1.337
				c-1.066-0.878-0.945-0.785-1.752-2.279c-0.574-1.062-2.471-1.046-2.166,0.451c0.298,1.465,0.111,2.977,0.523,4.411
				c0.285,0.991,0.796,1.957,1.31,2.85c0.832,1.447,1.698,2.891,2.706,4.225c1.975,2.614,4.488,4.877,7.139,6.78
				c4.668,3.35,10.187,5.649,15.892,6.418c12.133,1.637,23.353-3.264,33.772-8.943c5.13-2.796,10.181-5.736,15.459-8.253
				c5.662-2.701,11.63-4.541,17.847-5.416c13.087-1.842,26.656,0.516,38.641,5.97c6.614,3.01,12.879,6.884,18.599,11.36
				c6.512,5.096,12.378,10.991,18.238,16.804C253.283,200.922,254.189,199.327,253.634,198.379z"/>
			<path style="fill:#BA68C8;" d="M89.839,165.87c-0.947,3.603-4.634,5.756-8.237,4.81c-3.603-0.946-5.756-4.634-4.81-8.237
				c0.947-3.603,4.634-5.756,8.237-4.81C88.632,158.579,90.786,162.268,89.839,165.87z"/>
			<path style="opacity:0.2;" d="M89.839,165.87c-0.947,3.603-4.634,5.756-8.237,4.81c-3.603-0.946-5.756-4.634-4.81-8.237
				c0.947-3.603,4.634-5.756,8.237-4.81C88.632,158.579,90.786,162.268,89.839,165.87z"/>
		</g>
		<g>
			<polygon style="fill:#37474F;" points="352.701,162.573 257.528,257.638 127.595,222.816 125.224,213.955 220.387,118.853 
				350.33,153.712 			"/>
			<polygon style="opacity:0.2;fill:#FFFFFF;" points="220.387,118.853 222.758,127.713 352.702,162.573 350.331,153.712 			"/>
			<polygon style="opacity:0.2;fill:#FFFFFF;" points="222.758,127.713 350.385,160.377 350.331,153.712 352.702,162.573 			"/>
			<polygon style="fill:#455A64;" points="257.529,257.638 127.596,222.816 222.758,127.713 352.702,162.573 			"/>
		</g>
		<g id="XMLID_00000178200807764798937790000016306431564229367428_">
			<path style="fill:#37474F;" d="M308.861,180.159c-2.749-9.818-11.935-17.89-26.962-21.921
				c-30.327-8.136-72.916,3.262-95.125,25.458c-10.909,10.902-14.858,22.377-12.469,32.2c0.035,0.158,0.057,0.32,0.098,0.476
				l12.819,47.901c-2.658-9.933,1.251-21.624,12.354-32.729c22.21-22.2,64.797-33.597,95.126-25.458
				c15.166,4.074,24.392,12.25,27.05,22.183l-12.804-47.843C308.924,180.336,308.887,180.249,308.861,180.159z"/>
			<path style="fill:#BA68C8;" d="M314.461,201.088c-2.749-9.818-11.935-17.89-26.962-21.921
				c-30.327-8.136-72.916,3.262-95.125,25.458c-10.909,10.902-14.858,22.377-12.469,32.2c0.035,0.158,0.057,0.32,0.098,0.476
				l1.617,6.043c-2.658-9.933,1.251-21.624,12.354-32.728c22.21-22.2,64.797-33.597,95.126-25.458
				c15.166,4.074,24.392,12.25,27.05,22.183l-1.602-5.985C314.525,201.265,314.488,201.178,314.461,201.088z"/>
			<path style="opacity:0.2;" d="M207.532,207.903c-13.937,2.752-20.322-12.912-9.628-33.336c-4.085,2.789-7.837,5.837-11.131,9.13
				c-10.909,10.902-14.858,22.377-12.469,32.2c0.035,0.158,0.057,0.32,0.098,0.476l12.819,47.901
				c-2.658-9.933,1.251-21.624,12.354-32.729c22.21-22.2,64.797-33.597,95.126-25.458c0.008,0.002,0.016,0.005,0.024,0.007
				c-0.008-0.003-0.014-0.006-0.022-0.008C258.748,193.609,226.105,204.236,207.532,207.903z"/>
		</g>
		<g>
			
				<ellipse transform="matrix(0.966 -0.2585 0.2585 0.966 -55.0171 74.1651)" style="fill:#263238;" cx="254.49" cy="246.275" rx="69.631" ry="40.201"/>
			
				<ellipse transform="matrix(0.966 -0.2585 0.2585 0.966 -55.0171 74.1651)" style="fill:#37474F;" cx="254.49" cy="246.275" rx="66.965" ry="37.457"/>
			<path style="opacity:0.2;" d="M250.041,272.57c-22.014-7.483-24.993-39.807-6.837-56.398l-30.615,8.193
				c-3.917,2.623-7.519,5.483-10.688,8.565c-21.481,20.891-15.35,43.801,13.694,51.171c27.942,7.09,66.903-2.791,88.947-22.154
				C287.879,270.672,264.983,277.648,250.041,272.57z"/>
			<path d="M201.901,232.93c-1.08,1.051-2.072,2.108-3.013,3.166c1.344,0.447,2.731,0.867,4.192,1.238
				c29.044,7.37,70.002-3.592,91.483-24.483c1.08-1.051,2.072-2.108,3.013-3.166c-1.344-0.447-2.731-0.867-4.192-1.238
				C264.34,201.078,223.382,212.039,201.901,232.93z"/>
		</g>
	</g>
</g>
</svg>
