<svg xmlns="http://www.w3.org/2000/svg" xmlns:xlink="http://www.w3.org/1999/xlink" viewBox="0 0 601 325.28"><defs><linearGradient id="Dégradé_sans_nom_11" x1="481.55" y1="431.37" x2="514.18" y2="431.37" gradientTransform="translate(0 -162)" gradientUnits="userSpaceOnUse"><stop offset="0" stop-color="#e39a65"/><stop offset="1" stop-color="#e95f8d"/></linearGradient><linearGradient id="Dégradé_sans_nom_11-2" x1="436.91" y1="386.67" x2="491.69" y2="386.67" xlink:href="#Dégradé_sans_nom_11"/><linearGradient id="Dégradé_sans_nom_11-3" x1="75.68" y1="405.03" x2="130.46" y2="405.03" xlink:href="#Dégradé_sans_nom_11"/><linearGradient id="Dégradé_sans_nom_11-4" x1="139.5" y1="401.53" x2="431.82" y2="401.53" xlink:href="#Dégradé_sans_nom_11"/><radialGradient id="Dégradé_sans_nom_5" cx="300.95" cy="185.06" r="223.3" gradientTransform="translate(0 -162)" gradientUnits="userSpaceOnUse"><stop offset="0" stop-color="#e39a65"/><stop offset="0.47" stop-color="#a92ffb"/><stop offset="0.59" stop-color="#891cfb"/><stop offset="0.74" stop-color="#6507fa"/><stop offset="0.8" stop-color="#0d0c6f"/></radialGradient><radialGradient id="Dégradé_sans_nom_6" cx="164.37" cy="364.38" r="244.17" gradientTransform="translate(0 -162)" gradientUnits="userSpaceOnUse"><stop offset="0" stop-color="#e39a65"/><stop offset="0.47" stop-color="#a92ffb"/><stop offset="0.57" stop-color="#891cfb"/><stop offset="0.68" stop-color="#6507fa"/><stop offset="0.74" stop-color="#0d0c6f"/></radialGradient><radialGradient id="Dégradé_sans_nom_10" cx="186.83" cy="315.37" r="218.96" gradientTransform="translate(0 -162)" gradientUnits="userSpaceOnUse"><stop offset="0" stop-color="#e39a65"/><stop offset="0.47" stop-color="#a92ffb"/><stop offset="0.59" stop-color="#891cfb"/><stop offset="0.73" stop-color="#6507fa"/><stop offset="1" stop-color="#3919bb"/></radialGradient><radialGradient id="Dégradé_sans_nom_10-2" cx="241.38" cy="69.63" r="223.34" gradientTransform="matrix(1, 0, 0, -1, 0, 376.9)" xlink:href="#Dégradé_sans_nom_10"/><linearGradient id="Dégradé_sans_nom_9" x1="265.93" y1="290.26" x2="444.89" y2="290.26" gradientTransform="translate(0 -162)" gradientUnits="userSpaceOnUse"><stop offset="0" stop-color="#3919bb"/><stop offset="1" stop-color="#6507fa"/></linearGradient><radialGradient id="Dégradé_sans_nom_10-3" cx="159.85" cy="21.94" r="347.85" gradientTransform="matrix(1, 0, 0, -1, 0, 376.9)" xlink:href="#Dégradé_sans_nom_10"/><linearGradient id="Dégradé_sans_nom_11-5" x1="143.95" y1="314.74" x2="220.67" y2="314.74" xlink:href="#Dégradé_sans_nom_11"/><radialGradient id="Dégradé_sans_nom_12" cx="150.72" cy="252.12" r="165.35" gradientTransform="translate(0 -162)" gradientUnits="userSpaceOnUse"><stop offset="0" stop-color="#e39a65"/><stop offset="0.15" stop-color="#a92ffb"/><stop offset="0.41" stop-color="#3919bb"/><stop offset="0.93" stop-color="#3919bb"/></radialGradient><linearGradient id="Dégradé_sans_nom_13" x1="153.64" y1="231.68" x2="212.95" y2="231.68" gradientTransform="translate(0 -162)" gradientUnits="userSpaceOnUse"><stop offset="0" stop-color="#e39a65"/><stop offset="0.25" stop-color="#a92ffb"/><stop offset="0.56" stop-color="#3919bb"/></linearGradient><linearGradient id="Dégradé_sans_nom_15" x1="159.21" y1="228.62" x2="207.39" y2="228.62" gradientTransform="translate(0 -162)" gradientUnits="userSpaceOnUse"><stop offset="0" stop-color="#4f1fec"/><stop offset="1" stop-color="#a92ffb"/></linearGradient><linearGradient id="Dégradé_sans_nom_15-2" x1="158.06" y1="228.62" x2="206.24" y2="228.62" xlink:href="#Dégradé_sans_nom_15"/><linearGradient id="Dégradé_sans_nom_18" x1="159.18" y1="222.29" x2="219.93" y2="222.29" gradientTransform="translate(0 -162)" gradientUnits="userSpaceOnUse"><stop offset="0" stop-color="#131060"/><stop offset="0.19" stop-color="#141062"/><stop offset="0.28" stop-color="#19106a"/><stop offset="0.36" stop-color="#221078"/><stop offset="0.42" stop-color="#2e0f8b"/><stop offset="0.48" stop-color="#3e0fa3"/><stop offset="0.54" stop-color="#510ec2"/><stop offset="0.58" stop-color="#680de5"/><stop offset="0.61" stop-color="#740df8"/><stop offset="0.62" stop-color="#7a14f0"/><stop offset="0.68" stop-color="#9b3cc3"/><stop offset="0.75" stop-color="#b75d9d"/><stop offset="0.81" stop-color="#cc7680"/><stop offset="0.88" stop-color="#dc886c"/><stop offset="0.94" stop-color="#e5935f"/><stop offset="1" stop-color="#e8975b"/></linearGradient><radialGradient id="Dégradé_sans_nom_17" cx="146.24" cy="214.85" r="108.16" gradientTransform="translate(0 -162)" gradientUnits="userSpaceOnUse"><stop offset="0" stop-color="#e39a65"/><stop offset="0.25" stop-color="#a92ffb"/><stop offset="0.74" stop-color="#3919bb"/></radialGradient><linearGradient id="Dégradé_sans_nom_18-2" x1="179.48" y1="241.91" x2="187.89" y2="241.91" xlink:href="#Dégradé_sans_nom_18"/></defs><g id="Calque_2" data-name="Calque 2"><g id="Ñëîé_1" data-name="Ñëîé 1"><path d="M497.86,279a7,7,0,0,1-3.48-.94l-11.73-6.77a2.17,2.17,0,0,1-.81-3,2.1,2.1,0,0,1,.81-.81l11.73-6.77a7,7,0,0,1,7,0l11.7,6.74a2.17,2.17,0,0,1,.81,3,2.1,2.1,0,0,1-.81.81L501.35,278A7,7,0,0,1,497.86,279Zm0-17.32a5,5,0,0,0-2.55.68l-11.73,6.77a.3.3,0,0,0-.16.27.32.32,0,0,0,.16.28l11.73,6.81h0a5.1,5.1,0,0,0,5.1,0l11.73-6.77a.32.32,0,0,0,.16-.28.3.3,0,0,0-.16-.27l-11.73-6.77A5.08,5.08,0,0,0,497.86,261.64Z" style="fill:url(#Dégradé_sans_nom_11)"/><path d="M464.3,240.5a11.34,11.34,0,0,1-5.66-1.51l-20.2-11.66a3.07,3.07,0,0,1-1.11-4.2,3,3,0,0,1,1.11-1.11l20.2-11.67a11.36,11.36,0,0,1,11.31,0L490.15,222a3.06,3.06,0,0,1,0,5.31L470,239A11.33,11.33,0,0,1,464.3,240.5Zm-4.73-3.12a9.49,9.49,0,0,0,9.45,0l20.2-11.66a1.21,1.21,0,0,0,.44-1.65,1.24,1.24,0,0,0-.44-.44L469,212a9.49,9.49,0,0,0-9.45,0l-20.2,11.67a1.17,1.17,0,0,0-.6,1,1.2,1.2,0,0,0,.6,1Z" style="fill:url(#Dégradé_sans_nom_11-2)"/><path d="M103.07,258.86a11.33,11.33,0,0,1-5.65-1.51l-20.2-11.67a3.06,3.06,0,0,1,0-5.31l20.2-11.66a11.31,11.31,0,0,1,11.31,0l20.2,11.66a3.07,3.07,0,0,1,1.11,4.2,3,3,0,0,1-1.11,1.11l-20.2,11.66A11.25,11.25,0,0,1,103.07,258.86Zm0-29.8a9.43,9.43,0,0,0-4.72,1.26L78.15,242a1.18,1.18,0,0,0,0,2.05l20.2,11.67h0a9.49,9.49,0,0,0,9.45,0L128,244a1.17,1.17,0,0,0,.6-1A1.23,1.23,0,0,0,128,242l-20.2-11.66a9.46,9.46,0,0,0-4.73-1.26Z" style="fill:url(#Dégradé_sans_nom_11-3)"/><path d="M307.62,309.73,163.19,226.34c-2.1-1.21-1.84-3.34.59-4.74l92.72-53.52c2.43-1.4,6.1-1.55,8.21-.34l144.43,83.39c2.11,1.22,1.84,3.34-.59,4.74l-92.7,53.52C313.4,310.79,309.73,311,307.62,309.73Z" style="fill:#020230;opacity:0.6000000238418579;isolation:isolate"/><path d="M310.93,324.78a9.35,9.35,0,0,1-4.55-1.06h0L141.55,228.55a3.68,3.68,0,0,1-2.05-3.1c0-1.45,1-2.86,2.76-3.87l112.36-65.83c3.08-1.78,7.61-2,10.31-.4l164.8,95.1a3.68,3.68,0,0,1,2.09,3.16c0,1.44-1,2.85-2.76,3.87L316.69,323.33A11.74,11.74,0,0,1,310.93,324.78ZM260.37,156.11a10,10,0,0,0-4.85,1.19L143.16,223.13c-1.15.67-1.84,1.51-1.84,2.26a2,2,0,0,0,1.16,1.55l164.84,95.17h0c2.1,1.22,6,1,8.44-.39l112.36-65.83c1.15-.67,1.84-1.51,1.84-2.26a2,2,0,0,0-1.16-1.55L264,156.91A7.35,7.35,0,0,0,260.37,156.11Z" style="fill:url(#Dégradé_sans_nom_11-4)"/><path d="M447.5,111.33,303.63,28.27a3.74,3.74,0,0,0-2.94-.42h0l-2.67.93L299,29a4.65,4.65,0,0,0-.88,1.64L265.5,136.28a6.37,6.37,0,0,0,2.64,7.11L412,226.45a4.07,4.07,0,0,0,1.06.43l-.36.78,2.55-.9h0a4.13,4.13,0,0,0,2.32-2.69l32.52-105.62A6.4,6.4,0,0,0,447.5,111.33Z" style="fill:url(#Dégradé_sans_nom_5)"/><path d="M406.89,230.39l.05.06-142.1-82c-2.09-1.2-5.74-1-8.15.34l-91.81,53-3.06-1.17.86,4.29h0a2.57,2.57,0,0,0,1.38,1.72L307.5,289.45c2.09,1.21,5.74,1.05,8.16-.34l92-53.14a3.7,3.7,0,0,0,1.95-2.27h0l.89-4.25Z" style="fill:url(#Dégradé_sans_nom_6)"/><path d="M307.62,285.62,163.19,202.23c-2.1-1.21-1.84-3.33.59-4.74L256.5,144c2.43-1.4,6.1-1.55,8.21-.34L409.14,227c2.11,1.22,1.84,3.34-.59,4.74l-92.7,53.52C313.4,286.68,309.73,286.84,307.62,285.62Z" style="fill:url(#Dégradé_sans_nom_10)"/><path d="M408.5,230.64l-92.7,53.52c-2.43,1.4-6.1,1.55-8.21.34l-144.4-83.39a2.69,2.69,0,0,1-1.31-1.5,2.25,2.25,0,0,0,1.31,2.62l144.43,83.39c2.11,1.21,5.78,1.06,8.21-.34l92.67-53.52c1.6-.92,2.24-2.16,1.9-3.24A3.87,3.87,0,0,1,408.5,230.64Z" style="fill:#fff"/><g style="opacity:0.4000000059604645"><path d="M232.08,188.7l-4.88-2.81c-.39-.23-.34-.62.11-.89l5.76-3.32a1.69,1.69,0,0,1,1.53-.06l4.9,2.83c.4.23.35.62-.11.89l-5.75,3.32A1.69,1.69,0,0,1,232.08,188.7Z" style="fill:#06033e"/><path d="M239.61,193.05l-4.88-2.82c-.39-.22-.34-.62.11-.88L240.6,186a1.69,1.69,0,0,1,1.53-.06l4.87,2.81c.4.23.35.62-.11.88L241.14,193A1.72,1.72,0,0,1,239.61,193.05Z" style="fill:#06033e"/><path d="M247.14,197.45l-4.87-2.82c-.4-.23-.35-.62.11-.88l5.75-3.32a1.72,1.72,0,0,1,1.53-.07l4.87,2.82c.4.22.35.62-.11.88l-5.75,3.32A1.72,1.72,0,0,1,247.14,197.45Z" style="fill:#06033e"/><path d="M257.56,193.81,252.68,191c-.39-.22-.34-.62.11-.88l4.83-2.79a1.69,1.69,0,0,1,1.53-.06l4.88,2.81c.39.23.34.62-.11.88l-4.84,2.79A1.7,1.7,0,0,1,257.56,193.81Z" style="fill:#06033e"/><path d="M265.09,198.15l-4.88-2.81c-.39-.23-.34-.62.11-.88l4.83-2.79a1.72,1.72,0,0,1,1.53-.07l4.88,2.82c.39.23.34.62-.11.88l-4.84,2.79A1.66,1.66,0,0,1,265.09,198.15Z" style="fill:#06033e"/><path d="M272.62,202.5l-4.88-2.81c-.39-.23-.34-.63.11-.89l4.83-2.79a1.72,1.72,0,0,1,1.53-.06l4.88,2.82c.39.22.34.62-.11.88l-4.84,2.8A1.66,1.66,0,0,1,272.62,202.5Z" style="fill:#06033e"/><path d="M280.15,206.85,275.27,204c-.39-.22-.34-.62.11-.88l4.83-2.79a1.69,1.69,0,0,1,1.53-.06l4.87,2.81c.4.23.35.63-.1.89l-4.84,2.79A1.7,1.7,0,0,1,280.15,206.85Z" style="fill:#06033e"/><path d="M287.68,211.2l-4.88-2.82c-.39-.22-.34-.62.11-.88l4.83-2.79a1.69,1.69,0,0,1,1.53-.06l4.88,2.81c.39.23.34.62-.11.88l-4.83,2.79A1.72,1.72,0,0,1,287.68,211.2Z" style="fill:#06033e"/><path d="M295.21,215.54l-4.88-2.81c-.39-.23-.34-.62.11-.88l4.83-2.79a1.72,1.72,0,0,1,1.53-.07l4.88,2.82c.39.23.34.62-.11.88l-4.83,2.76A1.69,1.69,0,0,1,295.21,215.54Z" style="fill:#06033e"/><path d="M302.74,219.89l-4.88-2.81c-.39-.23-.34-.62.11-.89l4.83-2.74a1.72,1.72,0,0,1,1.53-.07l4.88,2.82c.39.22.34.62-.11.88l-4.84,2.79A1.66,1.66,0,0,1,302.74,219.89Z" style="fill:#06033e"/><path d="M310.27,224.24l-4.88-2.79c-.39-.22-.34-.62.11-.88l4.83-2.79a1.69,1.69,0,0,1,1.53-.06l4.88,2.81c.39.23.34.63-.11.89l-4.83,2.79A1.72,1.72,0,0,1,310.27,224.24Z" style="fill:#06033e"/><path d="M317.8,228.59l-4.88-2.82c-.39-.22-.34-.62.11-.88l4.83-2.79a1.69,1.69,0,0,1,1.53-.06l4.88,2.81c.39.23.34.62-.11.89l-4.83,2.78A1.72,1.72,0,0,1,317.8,228.59Z" style="fill:#06033e"/><path d="M325.33,232.93l-4.83-2.81c-.39-.23-.34-.62.11-.88l4.83-2.79a1.69,1.69,0,0,1,1.53-.06l4.88,2.81c.39.23.34.62-.11.88l-4.83,2.79A1.7,1.7,0,0,1,325.33,232.93Z" style="fill:#06033e"/><path d="M268.65,191.75l-4.87-2.82c-.4-.22-.35-.62.11-.88l4.83-2.79a1.66,1.66,0,0,1,1.52-.06l4.88,2.81c.39.23.34.62-.11.89l-4.83,2.79A1.78,1.78,0,0,1,268.65,191.75Z" style="fill:#06033e"/><path d="M261,187.33l-4.88-2.81c-.39-.23-.34-.62.11-.88l4.83-2.79a1.72,1.72,0,0,1,1.53-.07l4.88,2.82c.39.23.34.62-.11.88l-4.87,2.79A1.7,1.7,0,0,1,261,187.33Z" style="fill:#06033e"/><path d="M253.35,182.91l-10.5-6.06c-.39-.22-.34-.62.11-.88l4.83-2.79a1.69,1.69,0,0,1,1.53-.06l10.5,6.06c.39.23.34.62-.11.88l-4.83,2.79A1.69,1.69,0,0,1,253.35,182.91Z" style="fill:#06033e"/><path d="M258.7,177.54l-8.52-4.92c-.39-.23-.34-.62.11-.88l4.83-2.79a1.72,1.72,0,0,1,1.53-.07l8.52,4.92c.39.23.35.63-.11.89l-4.83,2.76A1.69,1.69,0,0,1,258.7,177.54Z" style="fill:#06033e"/><path d="M276.18,196.1l-4.87-2.82c-.4-.23-.35-.62.11-.88l4.83-2.79a1.66,1.66,0,0,1,1.52-.06l4.88,2.81c.39.23.34.62-.11.88L277.71,196A1.72,1.72,0,0,1,276.18,196.1Z" style="fill:#06033e"/><path d="M283.71,200.45l-4.87-2.81c-.39-.23-.35-.62.11-.88l4.83-2.79a1.67,1.67,0,0,1,1.52-.07l4.88,2.82c.39.22.34.62-.11.88l-4.83,2.79A1.69,1.69,0,0,1,283.71,200.45Z" style="fill:#06033e"/><path d="M291.24,204.79,286.37,202c-.39-.22-.35-.62.11-.88l4.83-2.79a1.69,1.69,0,0,1,1.53-.06l4.87,2.82c.39.22.34.62-.11.88l-4.83,2.79A1.69,1.69,0,0,1,291.24,204.79Z" style="fill:#06033e"/><path d="M298.77,209.14l-4.87-2.82c-.39-.22-.35-.62.11-.88l4.83-2.79a1.69,1.69,0,0,1,1.53-.06l4.87,2.81c.39.23.34.62-.11.89l-4.83,2.78A1.72,1.72,0,0,1,298.77,209.14Z" style="fill:#06033e"/><path d="M306.3,213.45l-4.87-2.82c-.39-.23-.35-.62.11-.88l4.83-2.79a1.66,1.66,0,0,1,1.52-.06l4.88,2.81c.39.23.34.62-.11.88l-4.83,2.86A1.72,1.72,0,0,1,306.3,213.45Z" style="fill:#06033e"/><path d="M313.83,217.83,309,215c-.39-.23-.35-.62.11-.88l4.83-2.79a1.72,1.72,0,0,1,1.53-.07l4.87,2.82c.39.22.34.62-.11.88l-4.83,2.79A1.69,1.69,0,0,1,313.83,217.83Z" style="fill:#06033e"/><path d="M321.36,222.18l-4.86-2.81c-.39-.23-.34-.63.11-.89l4.83-2.79a1.72,1.72,0,0,1,1.53-.06l4.87,2.82c.4.22.35.62-.11.88l-4.83,2.79A1.68,1.68,0,0,1,321.36,222.18Z" style="fill:#06033e"/><path d="M328.89,226.53,324,223.71c-.39-.22-.34-.62.11-.88L329,220a1.69,1.69,0,0,1,1.53-.06l4.87,2.81c.4.23.35.63-.11.89l-4.83,2.77A1.75,1.75,0,0,1,328.89,226.53Z" style="fill:#06033e"/><path d="M336.42,230.88l-4.87-2.82c-.39-.23-.34-.62.11-.88l4.83-2.79a1.69,1.69,0,0,1,1.53-.06l4.87,2.81c.39.23.35.62-.11.88L338,230.81A1.72,1.72,0,0,1,336.42,230.88Z" style="fill:#06033e"/><path d="M349.81,238.6l-10.64-6.15c-.39-.22-.34-.62.11-.88l4.83-2.79a1.69,1.69,0,0,1,1.53-.06l10.64,6.14c.39.23.34.62-.11.88l-4.83,2.79A1.69,1.69,0,0,1,349.81,238.6Z" style="fill:#06033e"/><path d="M364.5,230.14l-9-5.18c-.39-.23-.34-.62.11-.89l4.83-2.78a1.72,1.72,0,0,1,1.53-.07l9,5.19c.39.22.34.62-.11.88L366,230.08A1.69,1.69,0,0,1,364.5,230.14Z" style="fill:#06033e"/><path d="M289.37,195.24l-4.87-2.79c-.39-.23-.34-.62.11-.88l4.83-2.79a1.69,1.69,0,0,1,1.53-.06l4.88,2.81c.39.23.34.62-.11.88l-4.83,2.79A1.68,1.68,0,0,1,289.37,195.24Z" style="fill:#06033e"/><path d="M281.65,190.79,276.78,188c-.4-.22-.35-.62.11-.88l4.83-2.79a1.66,1.66,0,0,1,1.52-.06l4.88,2.81c.39.23.34.63-.11.89l-4.83,2.79A1.69,1.69,0,0,1,281.65,190.79Z" style="fill:#06033e"/><path d="M273.93,186.33l-4.87-2.81c-.39-.23-.34-.62.11-.88l4.83-2.79a1.72,1.72,0,0,1,1.53-.07l4.87,2.82c.39.22.34.62-.11.88l-4.79,2.79A1.68,1.68,0,0,1,273.93,186.33Z" style="fill:#06033e"/><path d="M266.22,181.88l-4.88-2.82c-.39-.22-.34-.62.11-.88l4.83-2.79a1.69,1.69,0,0,1,1.53-.06l4.87,2.81c.4.23.35.62-.1.88l-4.84,2.79A1.7,1.7,0,0,1,266.22,181.88Z" style="fill:#06033e"/><path d="M296.9,199.59,292,196.78c-.39-.23-.34-.62.11-.89L297,193.1a1.7,1.7,0,0,1,1.52-.06l4.88,2.82c.39.22.34.62-.11.88l-4.83,2.79A1.69,1.69,0,0,1,296.9,199.59Z" style="fill:#06033e"/><path d="M304.43,203.94l-4.88-2.81c-.39-.23-.34-.63.11-.89l4.84-2.79a1.69,1.69,0,0,1,1.53-.06l4.88,2.82c.39.22.34.62-.11.88L306,203.88A1.68,1.68,0,0,1,304.43,203.94Z" style="fill:#06033e"/><path d="M312,208.29l-4.88-2.84c-.39-.22-.34-.62.11-.88l4.83-2.79a1.69,1.69,0,0,1,1.53-.06l4.88,2.81c.39.23.34.62-.11.88l-4.82,2.81A1.71,1.71,0,0,1,312,208.29Z" style="fill:#06033e"/><path d="M319.5,212.63l-4.88-2.81c-.39-.23-.34-.62.11-.88l4.83-2.79a1.72,1.72,0,0,1,1.53-.07L326,208.9c.39.23.34.62-.11.88L321,212.57A1.69,1.69,0,0,1,319.5,212.63Z" style="fill:#06033e"/><path d="M327,217l-4.88-2.81c-.39-.23-.34-.62.11-.88l4.84-2.79a1.7,1.7,0,0,1,1.52-.07l4.89,2.82c.39.22.34.62-.11.88l-4.83,2.79A1.68,1.68,0,0,1,327,217Z" style="fill:#06033e"/><path d="M334.55,221.33l-4.88-2.81c-.39-.23-.34-.63.11-.89l4.84-2.79a1.66,1.66,0,0,1,1.52-.06L341,217.6c.39.22.34.62-.11.88l-4.83,2.79A1.69,1.69,0,0,1,334.55,221.33Z" style="fill:#06033e"/><path d="M342.08,225.68l-4.88-2.82c-.39-.22-.34-.62.11-.88l4.84-2.79a1.66,1.66,0,0,1,1.52-.06l4.88,2.81c.39.23.34.63-.11.89l-4.83,2.79A1.72,1.72,0,0,1,342.08,225.68Z" style="fill:#06033e"/><path d="M349.61,230l-4.87-2.82c-.39-.23-.35-.62.11-.88l4.83-2.79a1.66,1.66,0,0,1,1.52-.06l4.88,2.81c.39.23.34.62-.11.88L351.14,230A1.72,1.72,0,0,1,349.61,230Z" style="fill:#06033e"/><path d="M357.14,234.37l-4.87-2.81c-.4-.23-.35-.62.11-.88l4.83-2.79a1.7,1.7,0,0,1,1.52-.07l4.88,2.82c.39.23.34.62-.11.88l-4.83,2.79A1.69,1.69,0,0,1,357.14,234.37Z" style="fill:#06033e"/><path d="M285.4,184.45l-4.9-2.77c-.39-.23-.34-.63.11-.89l4.83-2.79a1.72,1.72,0,0,1,1.53-.06l4.87,2.82c.39.22.34.62-.11.88l-4.8,2.81A1.72,1.72,0,0,1,285.4,184.45Z" style="fill:#06033e"/><path d="M277.91,180.16,273,177.35c-.4-.23-.35-.62.1-.88l4.84-2.79a1.7,1.7,0,0,1,1.52-.07l4.88,2.82c.39.23.34.62-.11.88l-4.83,2.79A1.69,1.69,0,0,1,277.91,180.16Z" style="fill:#06033e"/><path d="M270.42,175.84,265.5,173c-.39-.22-.34-.62.11-.88l4.89-2.79a1.69,1.69,0,0,1,1.53-.06l4.88,2.81c.39.23.34.63-.11.89L272,175.78A1.7,1.7,0,0,1,270.42,175.84Z" style="fill:#06033e"/><path d="M262.93,171.51l-4.88-2.81c-.39-.23-.34-.62.11-.88L263,165a1.72,1.72,0,0,1,1.53-.07l4.87,2.82c.4.22.35.62-.11.88l-4.78,2.79A1.68,1.68,0,0,1,262.93,171.51Z" style="fill:#06033e"/><path d="M270.63,167.07l-4.87-2.82c-.4-.23-.35-.62.1-.88l1.64-.92a1.72,1.72,0,0,1,1.53-.07l4.87,2.82c.4.22.35.62-.1.88l-1.6.92A1.74,1.74,0,0,1,270.63,167.07Z" style="fill:#06033e"/><path d="M280.41,172.71l-4.91-2.82c-.39-.22-.34-.62.11-.88l1.6-.92a1.69,1.69,0,0,1,1.53-.06l4.87,2.81c.39.23.34.62-.11.88l-1.59.93A1.69,1.69,0,0,1,280.41,172.71Z" style="fill:#06033e"/><path d="M287.87,177,283,174.2c-.39-.22-.34-.62.11-.88l1.6-.92a1.69,1.69,0,0,1,1.53-.06l4.87,2.81c.4.23.35.62-.11.88l-1.59.92A1.72,1.72,0,0,1,287.87,177Z" style="fill:#06033e"/><path d="M295.33,181.33l-4.83-2.82c-.39-.22-.35-.62.11-.88l1.59-.92a1.72,1.72,0,0,1,1.53-.07l4.88,2.82c.39.23.34.62-.11.88l-1.6.92A1.74,1.74,0,0,1,295.33,181.33Z" style="fill:#06033e"/><path d="M302.79,185.63l-4.87-2.81c-.39-.23-.35-.62.11-.88l1.59-.92a1.72,1.72,0,0,1,1.53-.07l4.88,2.82c.39.22.34.62-.11.88l-1.6.92A1.69,1.69,0,0,1,302.79,185.63Z" style="fill:#06033e"/><path d="M344.5,209.69l-4.88-2.82c-.39-.23-.34-.62.11-.88l1.6-.92a1.72,1.72,0,0,1,1.53-.07l4.87,2.82c.4.22.35.62-.11.88l-1.59.92A1.72,1.72,0,0,1,344.5,209.69Z" style="fill:#06033e"/><path d="M351.91,214,347,211.18c-.4-.23-.35-.62.11-.88l1.59-.93a1.69,1.69,0,0,1,1.53-.06l4.88,2.82c.39.22.34.62-.11.88l-1.6.92A1.69,1.69,0,0,1,351.91,214Z" style="fill:#06033e"/><path d="M359.37,218.3l-4.87-2.85c-.39-.23-.34-.63.11-.89l1.59-.92a1.69,1.69,0,0,1,1.53-.06l4.88,2.81c.39.23.34.62-.11.89l-1.6.92A1.69,1.69,0,0,1,359.37,218.3Z" style="fill:#06033e"/><path d="M366.83,222.61,362,219.79c-.39-.22-.34-.62.11-.88l1.6-.92a1.66,1.66,0,0,1,1.52-.06l4.88,2.81c.39.23.34.62-.11.88l-1.6.92A1.69,1.69,0,0,1,366.83,222.61Z" style="fill:#06033e"/><path d="M292.93,188.84,288.06,186c-.39-.22-.34-.62.11-.88l4.83-2.79a1.69,1.69,0,0,1,1.53-.06l4.87,2.81c.39.23.34.63-.11.89l-4.79,2.79A1.68,1.68,0,0,1,292.93,188.84Z" style="fill:#06033e"/><path d="M300.5,193.19l-4.87-2.82c-.39-.23-.34-.62.11-.88l4.83-2.79a1.69,1.69,0,0,1,1.53-.06l4.87,2.81c.39.23.34.62-.11.88L302,193.12A1.72,1.72,0,0,1,300.5,193.19Z" style="fill:#06033e"/><path d="M308,197.53l-4.87-2.81c-.39-.23-.34-.62.11-.88l4.83-2.79a1.72,1.72,0,0,1,1.53-.07l4.87,2.82c.39.23.34.62-.11.88l-4.85,2.77A1.71,1.71,0,0,1,308,197.53Z" style="fill:#06033e"/><path d="M315.5,201.88l-4.87-2.81c-.39-.23-.34-.62.11-.88l4.83-2.79a1.72,1.72,0,0,1,1.53-.07l4.87,2.82c.4.22.35.62-.11.88L317,201.82A1.69,1.69,0,0,1,315.5,201.88Z" style="fill:#06033e"/><path d="M323.06,206.23l-4.88-2.78c-.39-.22-.34-.62.11-.88l4.83-2.79a1.69,1.69,0,0,1,1.53-.06l4.85,2.73c.4.23.35.63-.1.89l-4.84,2.79A1.66,1.66,0,0,1,323.06,206.23Z" style="fill:#06033e"/><path d="M330.59,210.58l-4.88-2.82c-.39-.22-.34-.62.11-.88l4.83-2.79a1.69,1.69,0,0,1,1.53-.06l4.87,2.81c.4.23.35.62-.1.88l-4.84,2.79A1.7,1.7,0,0,1,330.59,210.58Z" style="fill:#06033e"/><path d="M338.12,214.92l-4.88-2.81c-.39-.23-.34-.62.11-.88l4.83-2.79a1.72,1.72,0,0,1,1.53-.07l4.87,2.82c.4.23.35.62-.1.88l-4.84,2.79A1.66,1.66,0,0,1,338.12,214.92Z" style="fill:#06033e"/><path d="M345.65,219.27l-4.88-2.82c-.39-.23-.34-.62.11-.89l4.83-2.78a1.72,1.72,0,0,1,1.53-.07l4.87,2.82c.4.22.35.62-.11.88l-4.83,2.79A1.67,1.67,0,0,1,345.65,219.27Z" style="fill:#06033e"/><path d="M353.18,223.62l-4.88-2.82c-.39-.22-.34-.62.11-.88l4.83-2.79a1.69,1.69,0,0,1,1.53-.06l4.88,2.81c.39.23.34.63-.11.89l-4.83,2.79A1.69,1.69,0,0,1,353.18,223.62Z" style="fill:#06033e"/><path d="M249.88,189.38l-14.38-8.3c-.39-.22-.34-.62.11-.88l4.89-2.75a1.69,1.69,0,0,1,1.53-.06l14.36,8.29c.39.23.34.62-.11.88l-4.83,2.79A1.74,1.74,0,0,1,249.88,189.38Z" style="fill:#06033e"/><path d="M342.39,242.79,328,234.5c-.39-.23-.34-.62.11-.89l4.84-2.78a1.67,1.67,0,0,1,1.52-.07l14.36,8.29c.4.23.35.62-.11.89l-4.83,2.78A1.72,1.72,0,0,1,342.39,242.79Z" style="fill:#06033e"/><path d="M312.28,235l-4.88-2.81c-.39-.23-.34-.62.11-.88l5.76-3.33a1.69,1.69,0,0,1,1.53-.06l4.87,2.82c.39.22.34.62-.11.88l-5.75,3.32A1.69,1.69,0,0,1,312.28,235Z" style="fill:#06033e"/><path d="M257.59,203.45,249.8,199c-.4-.23-.35-.62.11-.88l5.75-3.33a1.72,1.72,0,0,1,1.53-.06l7.8,4.5c.39.23.34.62-.11.89l-5.76,3.32A1.69,1.69,0,0,1,257.59,203.45Z" style="fill:#06033e"/><path d="M305,230.81l-7.79-4.5c-.4-.22-.35-.62.11-.88l5.75-3.32a1.69,1.69,0,0,1,1.53-.06l7.8,4.5c.39.22.34.62-.11.88l-5.76,3.32A1.69,1.69,0,0,1,305,230.81Z" style="fill:#06033e"/><path d="M268.5,209.7l-7.8-4.5c-.39-.22-.34-.62.11-.88l5.76-3.32a1.7,1.7,0,0,1,1.52-.07l7.8,4.51c.39.22.34.62-.11.88L270,209.64A1.69,1.69,0,0,1,268.5,209.7Z" style="fill:#06033e"/><path d="M268.11,201,302,220.54a.46.46,0,0,1,0,.88l-5.87,3.39a1.69,1.69,0,0,1-1.52,0l-33.91-19.58Z" style="fill:#06033e"/><path d="M333.33,242.89l5.43,3.13c.32.19.28.51-.09.72l-2.36,1.36a1.38,1.38,0,0,1-1.25.06L329.63,245c-.32-.18-.28-.51.09-.72l2.35-1.36A1.37,1.37,0,0,1,333.33,242.89Z" style="fill:#06033e"/><path d="M325.73,238.5l5.43,3.14c.33.18.29.51-.09.72l-2.35,1.36a1.38,1.38,0,0,1-1.25.05L322,240.64c-.32-.19-.28-.51.09-.73l2.37-1.36A1.43,1.43,0,0,1,325.73,238.5Z" style="fill:#06033e"/><path d="M318.2,234.15l5.43,3.14c.33.19.29.51-.09.72l-2.35,1.36a1.35,1.35,0,0,1-1.25,0l-5.44-3.13c-.33-.19-.29-.51.09-.72l2.35-1.36A1.4,1.4,0,0,1,318.2,234.15Z" style="fill:#06033e"/><path d="M329.89,236.1l5.43,3.14c.32.18.28.51-.09.72l-2.35,1.36a1.4,1.4,0,0,1-1.26.05l-5.43-3.13c-.32-.19-.28-.51.09-.73l2.36-1.36A1.41,1.41,0,0,1,329.89,236.1Z" style="fill:#06033e"/></g><g style="opacity:0.4000000059604645"><path d="M232.08,188.7l-4.88-2.81c-.39-.23-.34-.62.11-.89l5.76-3.32a1.69,1.69,0,0,1,1.53-.06l4.9,2.83c.4.23.35.62-.11.89l-5.75,3.32A1.69,1.69,0,0,1,232.08,188.7Z" style="fill:#06033e"/><path d="M239.61,193.05l-4.88-2.82c-.39-.22-.34-.62.11-.88L240.6,186a1.69,1.69,0,0,1,1.53-.06l4.87,2.81c.4.23.35.62-.11.88L241.14,193A1.72,1.72,0,0,1,239.61,193.05Z" style="fill:#06033e"/><path d="M247.14,197.45l-4.87-2.82c-.4-.23-.35-.62.11-.88l5.75-3.32a1.72,1.72,0,0,1,1.53-.07l4.87,2.82c.4.22.35.62-.11.88l-5.75,3.32A1.72,1.72,0,0,1,247.14,197.45Z" style="fill:#06033e"/><path d="M257.56,193.81,252.68,191c-.39-.22-.34-.62.11-.88l4.83-2.79a1.69,1.69,0,0,1,1.53-.06l4.88,2.81c.39.23.34.62-.11.88l-4.84,2.79A1.7,1.7,0,0,1,257.56,193.81Z" style="fill:#06033e"/><path d="M265.09,198.15l-4.88-2.81c-.39-.23-.34-.62.11-.88l4.83-2.79a1.72,1.72,0,0,1,1.53-.07l4.88,2.82c.39.23.34.62-.11.88l-4.84,2.79A1.66,1.66,0,0,1,265.09,198.15Z" style="fill:#06033e"/><path d="M272.62,202.5l-4.88-2.81c-.39-.23-.34-.63.11-.89l4.83-2.79a1.72,1.72,0,0,1,1.53-.06l4.88,2.82c.39.22.34.62-.11.88l-4.84,2.8A1.66,1.66,0,0,1,272.62,202.5Z" style="fill:#06033e"/><path d="M280.15,206.85,275.27,204c-.39-.22-.34-.62.11-.88l4.83-2.79a1.69,1.69,0,0,1,1.53-.06l4.87,2.81c.4.23.35.63-.1.89l-4.84,2.79A1.7,1.7,0,0,1,280.15,206.85Z" style="fill:#06033e"/><path d="M287.68,211.2l-4.88-2.82c-.39-.22-.34-.62.11-.88l4.83-2.79a1.69,1.69,0,0,1,1.53-.06l4.88,2.81c.39.23.34.62-.11.88l-4.83,2.79A1.72,1.72,0,0,1,287.68,211.2Z" style="fill:#06033e"/><path d="M295.21,215.54l-4.88-2.81c-.39-.23-.34-.62.11-.88l4.83-2.79a1.72,1.72,0,0,1,1.53-.07l4.88,2.82c.39.23.34.62-.11.88l-4.83,2.76A1.69,1.69,0,0,1,295.21,215.54Z" style="fill:#06033e"/><path d="M302.74,219.89l-4.88-2.81c-.39-.23-.34-.62.11-.89l4.83-2.74a1.72,1.72,0,0,1,1.53-.07l4.88,2.82c.39.22.34.62-.11.88l-4.84,2.79A1.66,1.66,0,0,1,302.74,219.89Z" style="fill:#06033e"/><path d="M310.27,224.24l-4.88-2.79c-.39-.22-.34-.62.11-.88l4.83-2.79a1.69,1.69,0,0,1,1.53-.06l4.88,2.81c.39.23.34.63-.11.89l-4.83,2.79A1.72,1.72,0,0,1,310.27,224.24Z" style="fill:#06033e"/><path d="M317.8,228.59l-4.88-2.82c-.39-.22-.34-.62.11-.88l4.83-2.79a1.69,1.69,0,0,1,1.53-.06l4.88,2.81c.39.23.34.62-.11.89l-4.83,2.78A1.72,1.72,0,0,1,317.8,228.59Z" style="fill:#06033e"/><path d="M325.33,232.93l-4.83-2.81c-.39-.23-.34-.62.11-.88l4.83-2.79a1.69,1.69,0,0,1,1.53-.06l4.88,2.81c.39.23.34.62-.11.88l-4.83,2.79A1.7,1.7,0,0,1,325.33,232.93Z" style="fill:#06033e"/><path d="M268.65,191.75l-4.87-2.82c-.4-.22-.35-.62.11-.88l4.83-2.79a1.66,1.66,0,0,1,1.52-.06l4.88,2.81c.39.23.34.62-.11.89l-4.83,2.79A1.78,1.78,0,0,1,268.65,191.75Z" style="fill:#06033e"/><path d="M261,187.33l-4.88-2.81c-.39-.23-.34-.62.11-.88l4.83-2.79a1.72,1.72,0,0,1,1.53-.07l4.88,2.82c.39.23.34.62-.11.88l-4.87,2.79A1.7,1.7,0,0,1,261,187.33Z" style="fill:#06033e"/><path d="M253.35,182.91l-10.5-6.06c-.39-.22-.34-.62.11-.88l4.83-2.79a1.69,1.69,0,0,1,1.53-.06l10.5,6.06c.39.23.34.62-.11.88l-4.83,2.79A1.69,1.69,0,0,1,253.35,182.91Z" style="fill:#06033e"/><path d="M258.7,177.54l-8.52-4.92c-.39-.23-.34-.62.11-.88l4.83-2.79a1.72,1.72,0,0,1,1.53-.07l8.52,4.92c.39.23.35.63-.11.89l-4.83,2.76A1.69,1.69,0,0,1,258.7,177.54Z" style="fill:#06033e"/><path d="M276.18,196.1l-4.87-2.82c-.4-.23-.35-.62.11-.88l4.83-2.79a1.66,1.66,0,0,1,1.52-.06l4.88,2.81c.39.23.34.62-.11.88L277.71,196A1.72,1.72,0,0,1,276.18,196.1Z" style="fill:#06033e"/><path d="M283.71,200.45l-4.87-2.81c-.39-.23-.35-.62.11-.88l4.83-2.79a1.67,1.67,0,0,1,1.52-.07l4.88,2.82c.39.22.34.62-.11.88l-4.83,2.79A1.69,1.69,0,0,1,283.71,200.45Z" style="fill:#06033e"/><path d="M291.24,204.79,286.37,202c-.39-.22-.35-.62.11-.88l4.83-2.79a1.69,1.69,0,0,1,1.53-.06l4.87,2.82c.39.22.34.62-.11.88l-4.83,2.79A1.69,1.69,0,0,1,291.24,204.79Z" style="fill:#06033e"/><path d="M298.77,209.14l-4.87-2.82c-.39-.22-.35-.62.11-.88l4.83-2.79a1.69,1.69,0,0,1,1.53-.06l4.87,2.81c.39.23.34.62-.11.89l-4.83,2.78A1.72,1.72,0,0,1,298.77,209.14Z" style="fill:#06033e"/><path d="M306.3,213.45l-4.87-2.82c-.39-.23-.35-.62.11-.88l4.83-2.79a1.66,1.66,0,0,1,1.52-.06l4.88,2.81c.39.23.34.62-.11.88l-4.83,2.86A1.72,1.72,0,0,1,306.3,213.45Z" style="fill:#06033e"/><path d="M313.83,217.83,309,215c-.39-.23-.35-.62.11-.88l4.83-2.79a1.72,1.72,0,0,1,1.53-.07l4.87,2.82c.39.22.34.62-.11.88l-4.83,2.79A1.69,1.69,0,0,1,313.83,217.83Z" style="fill:#06033e"/><path d="M321.36,222.18l-4.86-2.81c-.39-.23-.34-.63.11-.89l4.83-2.79a1.72,1.72,0,0,1,1.53-.06l4.87,2.82c.4.22.35.62-.11.88l-4.83,2.79A1.68,1.68,0,0,1,321.36,222.18Z" style="fill:#06033e"/><path d="M328.89,226.53,324,223.71c-.39-.22-.34-.62.11-.88L329,220a1.69,1.69,0,0,1,1.53-.06l4.87,2.81c.4.23.35.63-.11.89l-4.83,2.77A1.75,1.75,0,0,1,328.89,226.53Z" style="fill:#06033e"/><path d="M336.42,230.88l-4.87-2.82c-.39-.23-.34-.62.11-.88l4.83-2.79a1.69,1.69,0,0,1,1.53-.06l4.87,2.81c.39.23.35.62-.11.88L338,230.81A1.72,1.72,0,0,1,336.42,230.88Z" style="fill:#06033e"/><path d="M349.81,238.6l-10.64-6.15c-.39-.22-.34-.62.11-.88l4.83-2.79a1.69,1.69,0,0,1,1.53-.06l10.64,6.14c.39.23.34.62-.11.88l-4.83,2.79A1.69,1.69,0,0,1,349.81,238.6Z" style="fill:#06033e"/><path d="M364.5,230.14l-9-5.18c-.39-.23-.34-.62.11-.89l4.83-2.78a1.72,1.72,0,0,1,1.53-.07l9,5.19c.39.22.34.62-.11.88L366,230.08A1.69,1.69,0,0,1,364.5,230.14Z" style="fill:#06033e"/><path d="M289.37,195.24l-4.87-2.79c-.39-.23-.34-.62.11-.88l4.83-2.79a1.69,1.69,0,0,1,1.53-.06l4.88,2.81c.39.23.34.62-.11.88l-4.83,2.79A1.68,1.68,0,0,1,289.37,195.24Z" style="fill:#06033e"/><path d="M281.65,190.79,276.78,188c-.4-.22-.35-.62.11-.88l4.83-2.79a1.66,1.66,0,0,1,1.52-.06l4.88,2.81c.39.23.34.63-.11.89l-4.83,2.79A1.69,1.69,0,0,1,281.65,190.79Z" style="fill:#06033e"/><path d="M273.93,186.33l-4.87-2.81c-.39-.23-.34-.62.11-.88l4.83-2.79a1.72,1.72,0,0,1,1.53-.07l4.87,2.82c.39.22.34.62-.11.88l-4.79,2.79A1.68,1.68,0,0,1,273.93,186.33Z" style="fill:#06033e"/><path d="M266.22,181.88l-4.88-2.82c-.39-.22-.34-.62.11-.88l4.83-2.79a1.69,1.69,0,0,1,1.53-.06l4.87,2.81c.4.23.35.62-.1.88l-4.84,2.79A1.7,1.7,0,0,1,266.22,181.88Z" style="fill:#06033e"/><path d="M296.9,199.59,292,196.78c-.39-.23-.34-.62.11-.89L297,193.1a1.7,1.7,0,0,1,1.52-.06l4.88,2.82c.39.22.34.62-.11.88l-4.83,2.79A1.69,1.69,0,0,1,296.9,199.59Z" style="fill:#06033e"/><path d="M304.43,203.94l-4.88-2.81c-.39-.23-.34-.63.11-.89l4.84-2.79a1.69,1.69,0,0,1,1.53-.06l4.88,2.82c.39.22.34.62-.11.88L306,203.88A1.68,1.68,0,0,1,304.43,203.94Z" style="fill:#06033e"/><path d="M312,208.29l-4.88-2.84c-.39-.22-.34-.62.11-.88l4.83-2.79a1.69,1.69,0,0,1,1.53-.06l4.88,2.81c.39.23.34.62-.11.88l-4.82,2.81A1.71,1.71,0,0,1,312,208.29Z" style="fill:#06033e"/><path d="M319.5,212.63l-4.88-2.81c-.39-.23-.34-.62.11-.88l4.83-2.79a1.72,1.72,0,0,1,1.53-.07L326,208.9c.39.23.34.62-.11.88L321,212.57A1.69,1.69,0,0,1,319.5,212.63Z" style="fill:#06033e"/><path d="M327,217l-4.88-2.81c-.39-.23-.34-.62.11-.88l4.84-2.79a1.7,1.7,0,0,1,1.52-.07l4.89,2.82c.39.22.34.62-.11.88l-4.83,2.79A1.68,1.68,0,0,1,327,217Z" style="fill:#06033e"/><path d="M334.55,221.33l-4.88-2.81c-.39-.23-.34-.63.11-.89l4.84-2.79a1.66,1.66,0,0,1,1.52-.06L341,217.6c.39.22.34.62-.11.88l-4.83,2.79A1.69,1.69,0,0,1,334.55,221.33Z" style="fill:#06033e"/><path d="M342.08,225.68l-4.88-2.82c-.39-.22-.34-.62.11-.88l4.84-2.79a1.66,1.66,0,0,1,1.52-.06l4.88,2.81c.39.23.34.63-.11.89l-4.83,2.79A1.72,1.72,0,0,1,342.08,225.68Z" style="fill:#06033e"/><path d="M349.61,230l-4.87-2.82c-.39-.23-.35-.62.11-.88l4.83-2.79a1.66,1.66,0,0,1,1.52-.06l4.88,2.81c.39.23.34.62-.11.88L351.14,230A1.72,1.72,0,0,1,349.61,230Z" style="fill:#06033e"/><path d="M357.14,234.37l-4.87-2.81c-.4-.23-.35-.62.11-.88l4.83-2.79a1.7,1.7,0,0,1,1.52-.07l4.88,2.82c.39.23.34.62-.11.88l-4.83,2.79A1.69,1.69,0,0,1,357.14,234.37Z" style="fill:#06033e"/><path d="M285.4,184.45l-4.9-2.77c-.39-.23-.34-.63.11-.89l4.83-2.79a1.72,1.72,0,0,1,1.53-.06l4.87,2.82c.39.22.34.62-.11.88l-4.8,2.81A1.72,1.72,0,0,1,285.4,184.45Z" style="fill:#06033e"/><path d="M277.91,180.16,273,177.35c-.4-.23-.35-.62.1-.88l4.84-2.79a1.7,1.7,0,0,1,1.52-.07l4.88,2.82c.39.23.34.62-.11.88l-4.83,2.79A1.69,1.69,0,0,1,277.91,180.16Z" style="fill:#06033e"/><path d="M270.42,175.84,265.5,173c-.39-.22-.34-.62.11-.88l4.89-2.79a1.69,1.69,0,0,1,1.53-.06l4.88,2.81c.39.23.34.63-.11.89L272,175.78A1.7,1.7,0,0,1,270.42,175.84Z" style="fill:#06033e"/><path d="M262.93,171.51l-4.88-2.81c-.39-.23-.34-.62.11-.88L263,165a1.72,1.72,0,0,1,1.53-.07l4.87,2.82c.4.22.35.62-.11.88l-4.78,2.79A1.68,1.68,0,0,1,262.93,171.51Z" style="fill:#06033e"/><path d="M270.63,167.07l-4.87-2.82c-.4-.23-.35-.62.1-.88l1.64-.92a1.72,1.72,0,0,1,1.53-.07l4.87,2.82c.4.22.35.62-.1.88l-1.6.92A1.74,1.74,0,0,1,270.63,167.07Z" style="fill:#06033e"/><path d="M280.41,172.71l-4.91-2.82c-.39-.22-.34-.62.11-.88l1.6-.92a1.69,1.69,0,0,1,1.53-.06l4.87,2.81c.39.23.34.62-.11.88l-1.59.93A1.69,1.69,0,0,1,280.41,172.71Z" style="fill:#06033e"/><path d="M287.87,177,283,174.2c-.39-.22-.34-.62.11-.88l1.6-.92a1.69,1.69,0,0,1,1.53-.06l4.87,2.81c.4.23.35.62-.11.88l-1.59.92A1.72,1.72,0,0,1,287.87,177Z" style="fill:#06033e"/><path d="M295.33,181.33l-4.83-2.82c-.39-.22-.35-.62.11-.88l1.59-.92a1.72,1.72,0,0,1,1.53-.07l4.88,2.82c.39.23.34.62-.11.88l-1.6.92A1.74,1.74,0,0,1,295.33,181.33Z" style="fill:#06033e"/><path d="M302.79,185.63l-4.87-2.81c-.39-.23-.35-.62.11-.88l1.59-.92a1.72,1.72,0,0,1,1.53-.07l4.88,2.82c.39.22.34.62-.11.88l-1.6.92A1.69,1.69,0,0,1,302.79,185.63Z" style="fill:#06033e"/><path d="M344.5,209.69l-4.88-2.82c-.39-.23-.34-.62.11-.88l1.6-.92a1.72,1.72,0,0,1,1.53-.07l4.87,2.82c.4.22.35.62-.11.88l-1.59.92A1.72,1.72,0,0,1,344.5,209.69Z" style="fill:#06033e"/><path d="M351.91,214,347,211.18c-.4-.23-.35-.62.11-.88l1.59-.93a1.69,1.69,0,0,1,1.53-.06l4.88,2.82c.39.22.34.62-.11.88l-1.6.92A1.69,1.69,0,0,1,351.91,214Z" style="fill:#06033e"/><path d="M359.37,218.3l-4.87-2.85c-.39-.23-.34-.63.11-.89l1.59-.92a1.69,1.69,0,0,1,1.53-.06l4.88,2.81c.39.23.34.62-.11.89l-1.6.92A1.69,1.69,0,0,1,359.37,218.3Z" style="fill:#06033e"/><path d="M366.83,222.61,362,219.79c-.39-.22-.34-.62.11-.88l1.6-.92a1.66,1.66,0,0,1,1.52-.06l4.88,2.81c.39.23.34.62-.11.88l-1.6.92A1.69,1.69,0,0,1,366.83,222.61Z" style="fill:#06033e"/><path d="M292.93,188.84,288.06,186c-.39-.22-.34-.62.11-.88l4.83-2.79a1.69,1.69,0,0,1,1.53-.06l4.87,2.81c.39.23.34.63-.11.89l-4.79,2.79A1.68,1.68,0,0,1,292.93,188.84Z" style="fill:#06033e"/><path d="M300.5,193.19l-4.87-2.82c-.39-.23-.34-.62.11-.88l4.83-2.79a1.69,1.69,0,0,1,1.53-.06l4.87,2.81c.39.23.34.62-.11.88L302,193.12A1.72,1.72,0,0,1,300.5,193.19Z" style="fill:#06033e"/><path d="M308,197.53l-4.87-2.81c-.39-.23-.34-.62.11-.88l4.83-2.79a1.72,1.72,0,0,1,1.53-.07l4.87,2.82c.39.23.34.62-.11.88l-4.85,2.77A1.71,1.71,0,0,1,308,197.53Z" style="fill:#06033e"/><path d="M315.5,201.88l-4.87-2.81c-.39-.23-.34-.62.11-.88l4.83-2.79a1.72,1.72,0,0,1,1.53-.07l4.87,2.82c.4.22.35.62-.11.88L317,201.82A1.69,1.69,0,0,1,315.5,201.88Z" style="fill:#06033e"/><path d="M323.06,206.23l-4.88-2.78c-.39-.22-.34-.62.11-.88l4.83-2.79a1.69,1.69,0,0,1,1.53-.06l4.85,2.73c.4.23.35.63-.1.89l-4.84,2.79A1.66,1.66,0,0,1,323.06,206.23Z" style="fill:#06033e"/><path d="M330.59,210.58l-4.88-2.82c-.39-.22-.34-.62.11-.88l4.83-2.79a1.69,1.69,0,0,1,1.53-.06l4.87,2.81c.4.23.35.62-.1.88l-4.84,2.79A1.7,1.7,0,0,1,330.59,210.58Z" style="fill:#06033e"/><path d="M338.12,214.92l-4.88-2.81c-.39-.23-.34-.62.11-.88l4.83-2.79a1.72,1.72,0,0,1,1.53-.07l4.87,2.82c.4.23.35.62-.1.88l-4.84,2.79A1.66,1.66,0,0,1,338.12,214.92Z" style="fill:#06033e"/><path d="M345.65,219.27l-4.88-2.82c-.39-.23-.34-.62.11-.89l4.83-2.78a1.72,1.72,0,0,1,1.53-.07l4.87,2.82c.4.22.35.62-.11.88l-4.83,2.79A1.67,1.67,0,0,1,345.65,219.27Z" style="fill:#06033e"/><path d="M353.18,223.62l-4.88-2.82c-.39-.22-.34-.62.11-.88l4.83-2.79a1.69,1.69,0,0,1,1.53-.06l4.88,2.81c.39.23.34.63-.11.89l-4.83,2.79A1.69,1.69,0,0,1,353.18,223.62Z" style="fill:#06033e"/><path d="M249.88,189.38l-14.38-8.3c-.39-.22-.34-.62.11-.88l4.89-2.75a1.69,1.69,0,0,1,1.53-.06l14.36,8.29c.39.23.34.62-.11.88l-4.83,2.79A1.74,1.74,0,0,1,249.88,189.38Z" style="fill:#06033e"/><path d="M342.39,242.79,328,234.5c-.39-.23-.34-.62.11-.89l4.84-2.78a1.67,1.67,0,0,1,1.52-.07l14.36,8.29c.4.23.35.62-.11.89l-4.83,2.78A1.72,1.72,0,0,1,342.39,242.79Z" style="fill:#06033e"/><path d="M312.28,235l-4.88-2.81c-.39-.23-.34-.62.11-.88l5.76-3.33a1.69,1.69,0,0,1,1.53-.06l4.87,2.82c.39.22.34.62-.11.88l-5.75,3.32A1.69,1.69,0,0,1,312.28,235Z" style="fill:#06033e"/><path d="M257.59,203.45,249.8,199c-.4-.23-.35-.62.11-.88l5.75-3.33a1.72,1.72,0,0,1,1.53-.06l7.8,4.5c.39.23.34.62-.11.89l-5.76,3.32A1.69,1.69,0,0,1,257.59,203.45Z" style="fill:#06033e"/><path d="M305,230.81l-7.79-4.5c-.4-.22-.35-.62.11-.88l5.75-3.32a1.69,1.69,0,0,1,1.53-.06l7.8,4.5c.39.22.34.62-.11.88l-5.76,3.32A1.69,1.69,0,0,1,305,230.81Z" style="fill:#06033e"/><path d="M268.5,209.7l-7.8-4.5c-.39-.22-.34-.62.11-.88l5.76-3.32a1.7,1.7,0,0,1,1.52-.07l7.8,4.51c.39.22.34.62-.11.88L270,209.64A1.69,1.69,0,0,1,268.5,209.7Z" style="fill:#06033e"/><path d="M268.11,201,302,220.54a.46.46,0,0,1,0,.88l-5.87,3.39a1.69,1.69,0,0,1-1.52,0l-33.91-19.58Z" style="fill:#06033e"/><path d="M333.33,242.89l5.43,3.13c.32.19.28.51-.09.72l-2.36,1.36a1.38,1.38,0,0,1-1.25.06L329.63,245c-.32-.18-.28-.51.09-.72l2.35-1.36A1.37,1.37,0,0,1,333.33,242.89Z" style="fill:#06033e"/><path d="M325.73,238.5l5.43,3.14c.33.18.29.51-.09.72l-2.35,1.36a1.38,1.38,0,0,1-1.25.05L322,240.64c-.32-.19-.28-.51.09-.73l2.37-1.36A1.43,1.43,0,0,1,325.73,238.5Z" style="fill:#06033e"/><path d="M318.2,234.15l5.43,3.14c.33.19.29.51-.09.72l-2.35,1.36a1.35,1.35,0,0,1-1.25,0l-5.44-3.13c-.33-.19-.29-.51.09-.72l2.35-1.36A1.4,1.4,0,0,1,318.2,234.15Z" style="fill:#06033e"/><path d="M329.89,236.1l5.43,3.14c.32.18.28.51-.09.72l-2.35,1.36a1.4,1.4,0,0,1-1.26.05l-5.43-3.13c-.32-.19-.28-.51.09-.73l2.36-1.36A1.41,1.41,0,0,1,329.89,236.1Z" style="fill:#06033e"/></g><path d="M409.59,227.31,265.72,144.25a6.38,6.38,0,0,1-2.63-7.11L295.62,31.51c.81-2.62,3.29-3.69,5.56-2.38L445,112.19a6.35,6.35,0,0,1,2.63,7.11L415.14,224.93C414.34,227.55,411.85,228.61,409.59,227.31Z" style="fill:url(#Dégradé_sans_nom_10-2)"/><path d="M408.23,223.61,268.69,143a6.11,6.11,0,0,1-2.52-6.8l31.1-101a3.54,3.54,0,0,1,4.2-2.72,3.66,3.66,0,0,1,1.12.45l139.54,80.64a6.11,6.11,0,0,1,2.52,6.8l-31.1,101A3.54,3.54,0,0,1,408.23,223.61Z" style="fill:url(#Dégradé_sans_nom_9)"/><path d="M408.23,223.61,268.69,143a6.11,6.11,0,0,1-2.52-6.8l31.1-101a3.54,3.54,0,0,1,4.2-2.72,3.66,3.66,0,0,1,1.12.45l139.54,80.64a6.11,6.11,0,0,1,2.52,6.8l-31.1,101A3.54,3.54,0,0,1,408.23,223.61Z" style="fill:#06033e;opacity:0.4000000059604645;isolation:isolate"/><path d="M408.23,223.61,268.69,143a6.11,6.11,0,0,1-2.52-6.8l31.1-101a3.54,3.54,0,0,1,4.2-2.72,3.66,3.66,0,0,1,1.12.45l139.54,80.64a6.11,6.11,0,0,1,2.52,6.8l-31.1,101A3.54,3.54,0,0,1,408.23,223.61Z" style="fill:#06033e;opacity:0.4000000059604645;isolation:isolate"/><path d="M400.73,192.75l-94.46-54.54a4.19,4.19,0,0,1-1.73-4.67L325.9,64.19a2.44,2.44,0,0,1,3.65-1.57L424,117.16a4.19,4.19,0,0,1,1.73,4.67l-21.36,69.35a2.42,2.42,0,0,1-3.65,1.57Z" style="fill:#06033e;opacity:0.5;isolation:isolate"/><path d="M388,194.45,293.5,139.88a4.18,4.18,0,0,1-1.73-4.66l21.36-69.36A2.42,2.42,0,0,1,316,64a2.48,2.48,0,0,1,.79.32l94.46,54.54A4.18,4.18,0,0,1,413,123.5l-21.36,69.36a2.42,2.42,0,0,1-2.85,1.9A2.25,2.25,0,0,1,388,194.45Z" style="fill:url(#Dégradé_sans_nom_10-3)"/><g style="opacity:0.5"><path d="M388,194.45,293.5,139.88a4.18,4.18,0,0,1-1.73-4.66l21.36-69.36A2.42,2.42,0,0,1,316,64a2.48,2.48,0,0,1,.79.32l94.46,54.54A4.18,4.18,0,0,1,413,123.5l-21.36,69.36a2.42,2.42,0,0,1-2.85,1.9A2.25,2.25,0,0,1,388,194.45Z" style="fill:#06033e"/></g><path d="M411.25,118.83,316.79,64.3a2.33,2.33,0,0,0-2.66.09,2.41,2.41,0,0,1,1.36.35L410,119.27a4.19,4.19,0,0,1,1.73,4.67L390.32,193.3a2.88,2.88,0,0,1-1,1.47,2.51,2.51,0,0,0,2.29-1.91L413,123.5A4.19,4.19,0,0,0,411.25,118.83Z" style="fill:#fff"/><path d="M268.83,251.06a7.11,7.11,0,0,1-3.5-.82h0L227.5,228.39a2.75,2.75,0,0,1-1.56-2.33,3.6,3.6,0,0,1,2.09-2.9l19.47-11.24a8.7,8.7,0,0,1,8-.31l37.8,21.84a2.75,2.75,0,0,1,1.56,2.33,3.57,3.57,0,0,1-2.09,2.89l-19.48,11.25A9,9,0,0,1,268.83,251.06ZM252,211.9a8.06,8.06,0,0,0-3.93,1l-19.48,11.24c-1,.57-1.54,1.28-1.54,2a1.69,1.69,0,0,0,1,1.38l37.84,21.85a7.77,7.77,0,0,0,6.86-.3l19.48-11.25c1-.57,1.55-1.28,1.55-2a1.74,1.74,0,0,0-1-1.38l-37.85-21.85a6,6,0,0,0-2.93-.64Z" style="fill:#06033e;opacity:0.4000000059604645;isolation:isolate"/><path d="M339.8,100.69,334,97.31a1.5,1.5,0,0,1-.65-1.68h0a.86.86,0,0,1,1-.66.81.81,0,0,1,.29.12l5.88,3.36a1.53,1.53,0,0,1,.65,1.68h0a.87.87,0,0,1-1,.7A.85.85,0,0,1,339.8,100.69Z" style="fill:#fff"/><path d="M353.71,108.72l-8.61-5a1.5,1.5,0,0,1-.65-1.67h0a.85.85,0,0,1,1-.67.79.79,0,0,1,.3.12l8.61,5a1.53,1.53,0,0,1,.65,1.68h0a.86.86,0,0,1-1,.66A.81.81,0,0,1,353.71,108.72Z" style="fill:#fff"/><path d="M328,126.69l-5.84-3.38a1.53,1.53,0,0,1-.65-1.68h0a.86.86,0,0,1,1-.66.81.81,0,0,1,.29.12l5.84,3.37a1.53,1.53,0,0,1,.65,1.68h0a.86.86,0,0,1-1,.66A.9.9,0,0,1,328,126.69Z" style="fill:#fff"/><path d="M340.42,133.85l-8.61-5a1.52,1.52,0,0,1-.65-1.67h0a.85.85,0,0,1,1-.67.79.79,0,0,1,.3.12l8.61,5a1.53,1.53,0,0,1,.65,1.68h0a.87.87,0,0,1-1,.65A.81.81,0,0,1,340.42,133.85Z" style="fill:#fff"/><path d="M322.3,96.05,318.65,94a1.51,1.51,0,0,1-.64-1.68h0a.85.85,0,0,1,1-.67.79.79,0,0,1,.3.12L323,93.83a1.51,1.51,0,0,1,.64,1.68h0a.86.86,0,0,1-1,.66A.81.81,0,0,1,322.3,96.05Z" style="fill:#fff"/><path d="M333.28,107.86l-11.15-6.41a1.53,1.53,0,0,1-.65-1.68h0a.88.88,0,0,1,1-.66,1,1,0,0,1,.28.12l11.14,6.43a1.53,1.53,0,0,1,.65,1.68h0a.86.86,0,0,1-1,.64A.7.7,0,0,1,333.28,107.86Z" style="fill:#fff"/><path d="M323,112.85l-3.65-2.1a1.53,1.53,0,0,1-.65-1.68h0a.85.85,0,0,1,1-.67.79.79,0,0,1,.3.12l3.65,2.11a1.53,1.53,0,0,1,.65,1.68h0a.86.86,0,0,1-1,.66A.81.81,0,0,1,323,112.85Z" style="fill:#fff"/><path d="M341.76,145.55,332,139.93a1.53,1.53,0,0,1-.65-1.68h0a.85.85,0,0,1,1-.67.79.79,0,0,1,.3.12l9.75,5.63a1.53,1.53,0,0,1,.65,1.68h0a.88.88,0,0,1-1,.66A.77.77,0,0,1,341.76,145.55Z" style="fill:#fff"/><path d="M318.91,121.45l-2.34-1.36a1.52,1.52,0,0,1-.65-1.67h0a.85.85,0,0,1,1-.67.79.79,0,0,1,.3.12l2.34,1.35a1.52,1.52,0,0,1,.65,1.68h0a.86.86,0,0,1-1,.66A.9.9,0,0,1,318.91,121.45Z" style="fill:#fff"/><path d="M316.69,131.08l-2.9-1.68a1.5,1.5,0,0,1-.65-1.68h0a.86.86,0,0,1,1-.66.81.81,0,0,1,.29.12l2.91,1.67a1.53,1.53,0,0,1,.65,1.68h0a.87.87,0,0,1-1,.67A.74.74,0,0,1,316.69,131.08Z" style="fill:#fff"/><path d="M328,137.61l-7.67-4.42a1.53,1.53,0,0,1-.65-1.68h0a.85.85,0,0,1,1-.67.79.79,0,0,1,.3.12l7.67,4.43a1.53,1.53,0,0,1,.65,1.68h0a.86.86,0,0,1-1,.66A.81.81,0,0,1,328,137.61Z" style="fill:#fff"/><path d="M317.91,137.25l-5.51-3.19a1.5,1.5,0,0,1-.65-1.68h0a.86.86,0,0,1,1-.66.81.81,0,0,1,.29.12l5.51,3.18a1.53,1.53,0,0,1,.65,1.68h0a.85.85,0,0,1-1,.67A.79.79,0,0,1,317.91,137.25Z" style="fill:#fff"/><path d="M350.12,150.45l-3.54-2a1.53,1.53,0,0,1-.65-1.68h0a.88.88,0,0,1,1.06-.66.85.85,0,0,1,.26.11l3.54,2a1.51,1.51,0,0,1,.64,1.68h0a.85.85,0,0,1-1,.67A.79.79,0,0,1,350.12,150.45Z" style="fill:#fff"/><path d="M336.57,120.69l-9.74-5.63a1.5,1.5,0,0,1-.65-1.68h0a.86.86,0,0,1,1-.66.81.81,0,0,1,.29.12l9.74,5.62a1.53,1.53,0,0,1,.65,1.68h0a.85.85,0,0,1-1,.67A.79.79,0,0,1,336.57,120.69Z" style="fill:#fff"/><path d="M337.72,115.89l-17-9.81a1.52,1.52,0,0,1-.65-1.67h0a.87.87,0,0,1,1-.67.74.74,0,0,1,.29.12l17,9.8a1.53,1.53,0,0,1,.65,1.68h0a.87.87,0,0,1-1,.67A.74.74,0,0,1,337.72,115.89Z" style="fill:#e8975b"/><path d="M327.7,121,318,115.45a1.53,1.53,0,0,1-.65-1.68h0a.86.86,0,0,1,1-.66.81.81,0,0,1,.29.12l9.75,5.62a1.53,1.53,0,0,1,.65,1.68h0a.87.87,0,0,1-1.32.51Z" style="fill:#e8975b"/><path d="M344,125l-3.54-2a1.53,1.53,0,0,1-.65-1.68h0a.86.86,0,0,1,1-.66.81.81,0,0,1,.29.12l3.54,2a1.5,1.5,0,0,1,.65,1.68h0a.87.87,0,0,1-1,.65A.81.81,0,0,1,344,125Z" style="fill:#e8975b"/><path d="M380,123.88l-21-12.1a1.52,1.52,0,0,1-.65-1.68h0a.85.85,0,0,1,1-.67.79.79,0,0,1,.3.12l21,12.11a1.5,1.5,0,0,1,.65,1.67h0a.85.85,0,0,1-1,.67A.79.79,0,0,1,380,123.88Z" style="fill:#e8975b"/><path d="M326.89,131.5l-11.71-6.76a1.53,1.53,0,0,1-.65-1.68h0a.85.85,0,0,1,1-.67.79.79,0,0,1,.3.12l11.71,6.76a1.52,1.52,0,0,1,.65,1.68h0a.85.85,0,0,1-1,.67A.79.79,0,0,1,326.89,131.5Z" style="fill:#f8359e"/><path d="M328.66,94.25l-8.61-5a1.5,1.5,0,0,1-.65-1.68h0a.86.86,0,0,1,1-.66.81.81,0,0,1,.29.12l8.61,5a1.53,1.53,0,0,1,.65,1.68h0a.86.86,0,0,1-1,.66A.81.81,0,0,1,328.66,94.25Z" style="fill:#f8359e"/><path d="M316.11,141.67l-10-5.75a1.53,1.53,0,0,1-.65-1.68h0a.87.87,0,0,1,1-.67.74.74,0,0,1,.29.12l10,5.76a1.53,1.53,0,0,1,.65,1.68h0a.87.87,0,0,1-1,.67A1,1,0,0,1,316.11,141.67Z" style="fill:#e8975b"/><path d="M382.32,113.1l-4.26-2.47a1.1,1.1,0,0,1-.48-1.22h0a.63.63,0,0,1,.72-.52.7.7,0,0,1,.28.12l4.27,2.46a1.11,1.11,0,0,1,.47,1.23h0a.63.63,0,0,1-.73.52A.72.72,0,0,1,382.32,113.1Z" style="fill:#fff"/><path d="M390.5,117.8l-4.27-2.46a1.13,1.13,0,0,1-.48-1.23h0a.63.63,0,0,1,.73-.52.72.72,0,0,1,.27.12l4.27,2.46a1.11,1.11,0,0,1,.47,1.23h0a.62.62,0,0,1-.71.52A.58.58,0,0,1,390.5,117.8Z" style="fill:#fff"/><path d="M398.61,122.5,394.34,120a1.11,1.11,0,0,1-.47-1.23h0a.63.63,0,0,1,.73-.52.72.72,0,0,1,.27.12l4.26,2.46a1.13,1.13,0,0,1,.48,1.23h0a.63.63,0,0,1-.72.52A.7.7,0,0,1,398.61,122.5Z" style="fill:#fff"/><path d="M402.61,124.81l-.13-.07a1.11,1.11,0,0,1-.47-1.23h0a.63.63,0,0,1,.72-.52.7.7,0,0,1,.28.12l.13.08a1.12,1.12,0,0,1,.47,1.22h0a.63.63,0,0,1-.73.52A.72.72,0,0,1,402.61,124.81Z" style="fill:#f8359e"/><path d="M182.3,174.77a15.62,15.62,0,0,1-7.81-2.09h0l-28.6-16.51a4,4,0,0,1-1.37-5.49,4.08,4.08,0,0,1,1.37-1.37L174.5,132.8a15.69,15.69,0,0,1,15.63,0l28.6,16.51a4,4,0,0,1,1.37,5.49,4.08,4.08,0,0,1-1.37,1.37l-28.6,16.51A15.69,15.69,0,0,1,182.3,174.77Zm-6.89-3.7a13.82,13.82,0,0,0,13.77,0l28.6-16.51a2.1,2.1,0,0,0,.76-2.87,2.05,2.05,0,0,0-.76-.76l-28.6-16.48a13.77,13.77,0,0,0-13.77,0L146.82,151a2.09,2.09,0,0,0-.78,2.85,2.16,2.16,0,0,0,.78.78Z" style="fill:url(#Dégradé_sans_nom_11-5)"/><path d="M196,161.15c-7.67,4.43-20.11,4.43-27.78,0s-7.66-11.61,0-16,20.11-4.43,27.78,0S203.71,156.72,196,161.15Z" style="fill:#020230;opacity:0.6000000238418579;isolation:isolate"/><path d="M211.27,72.31h-56l5.23,60.57h0c0,3.37,2.22,6.73,6.67,9.3,8.89,5.13,23.31,5.13,32.2,0,4.44-2.57,6.67-5.93,6.66-9.3Z" style="fill:url(#Dégradé_sans_nom_12)"/><path d="M211.27,72.31h-56l.86,10A21.74,21.74,0,0,0,161.32,87c10.69,7.09,28.32,8.46,40.36,3.35l-1.86,44.3a8.74,8.74,0,0,1-2,5.29c-1.81,2.13-5.3,4.64-12,6.06a31.61,31.61,0,0,0,13.54-3.76c4.44-2.57,6.67-5.93,6.67-9.3l4.17-48.57h0Z" style="fill:#06033e;opacity:0.4000000059604645;isolation:isolate"/><ellipse cx="183.3" cy="72.31" rx="27.97" ry="16.15" style="fill:#06033e;opacity:0.4000000059604645;isolation:isolate"/><ellipse cx="183.3" cy="66.62" rx="24.09" ry="13.91" style="fill:#06033e;opacity:0.4000000059604645;isolation:isolate"/><path d="M212.92,71.55h0v-.09L212.39,66v.06c-.24-4.1-3.06-8.17-8.49-11.3-11.36-6.56-29.77-6.56-41.13,0-5.56,3.21-8.39,7.4-8.5,11.61h0l-.51,4.83v.45h0c-.31,4.6,2.57,9.26,8.66,12.77,11.58,6.69,30.36,6.69,41.94,0C210.39,80.88,213.27,76.18,212.92,71.55Z" style="fill:url(#Dégradé_sans_nom_13)"/><ellipse cx="183.3" cy="66.62" rx="24.09" ry="13.91" style="fill:url(#Dégradé_sans_nom_15)"/><ellipse cx="182.15" cy="66.62" rx="24.09" ry="13.91" style="fill:url(#Dégradé_sans_nom_15-2)"/><path d="M169.12,58.86c9.41-5.44,24.66-5.44,34.07,0l.34.21a19.44,19.44,0,0,0-3.2-2.29c-9.41-5.43-24.66-5.43-34.07,0s-9.39,14-.34,19.46C159.88,70.85,160.94,63.58,169.12,58.86Z" style="fill:#06033e;opacity:0.4000000059604645;isolation:isolate"/><path d="M166.26,59.2c9.41-5.43,24.66-5.43,34.07,0,4.17,2.41,6.49,5.48,7,8.63.6-3.95-1.72-8-7-11-9.41-5.43-24.66-5.43-34.07,0-5.24,3-7.55,7.1-7,11C159.77,64.68,162.09,61.61,166.26,59.2Z" style="fill:url(#Dégradé_sans_nom_18)"/><path d="M204,54.89c-11.34-6.68-29.82-6.85-41.28-.37s-11.55,17.15-.21,23.83,29.82,6.85,41.28.37S215.38,61.57,204,54.89Zm-3.71,21.56a31.46,31.46,0,0,1-11,3.61l-.44-1.44a1.38,1.38,0,0,0-1.32-1h-8.65a1.39,1.39,0,0,0-1.32,1l-.43,1.44a31.46,31.46,0,0,1-11-3.61c-9.41-5.43-9.41-14.24,0-19.67s24.66-5.44,34.07,0S209.74,71,200.33,76.45Z" style="fill:url(#Dégradé_sans_nom_17)"/><path d="M200.33,55.76c-9.41-5.44-24.66-5.44-34.07,0-4.93,2.84-7.27,6.62-7,10.35.22-3.39,2.56-6.74,7-9.32,9.41-5.44,24.66-5.44,34.07,0,4.48,2.58,6.82,5.93,7,9.32C207.6,62.38,205.26,58.6,200.33,55.76Z" style="fill:#fff"/><path d="M203.83,77.69c-11.46,6.48-29.94,6.32-41.28-.37-5.39-3.18-8.2-7.26-8.42-11.36-.23,4.44,2.57,9,8.42,12.39,11.34,6.69,29.82,6.85,41.28.37,6-3.4,8.88-8,8.63-12.47C212.25,70.45,209.38,74.55,203.83,77.69Z" style="fill:#fff"/><path d="M185.88,80.82h-5.17a.66.66,0,0,1-.65-.66v-.09a.65.65,0,0,1,.65-.65h5.17a.65.65,0,0,1,.65.65v.09a.65.65,0,0,1-.64.66Z" style="fill:#0c0a78"/><path d="M185.88,79.45h-5.17a.65.65,0,0,0-.65.65v.09a.54.54,0,0,0,0,.18.64.64,0,0,1,.62-.48h5.17a.64.64,0,0,1,.62.48.54.54,0,0,0,0-.18V80.1A.64.64,0,0,0,185.88,79.45Z" style="fill:url(#Dégradé_sans_nom_18-2)"/><path d="M184.09,126.66a4.47,4.47,0,1,1-8.64-2.3c.63-2.38,2.88-3.06,5.27-2.42S184.72,124.27,184.09,126.66Z" style="fill:#e8975b"/><path d="M187.61,122a2,2,0,1,1-3.17-2.44,1.85,1.85,0,0,1,.4-.39c.9-.88,2.61-1.31,3.37-.53S188.5,121.07,187.61,122Z" style="fill:#e8975b"/><path d="M182.93,118.21a2,2,0,0,1-4-.07,1.88,1.88,0,0,1,.11-.62c.22-1.24,1.36-2.59,2.43-2.39S183.15,117,182.93,118.21Z" style="fill:#e8975b"/><path d="M177.17,117.64a2,2,0,1,1-3.48,2,1.86,1.86,0,0,1-.19-.46c-.48-1.17-.24-2.92.77-3.33S176.69,116.45,177.17,117.64Z" style="fill:#e8975b"/><path d="M185.13,80.12s15.64-5.24,9.31-23.21-18.67-23.46-13.7-37.83c0,0-7.78,11.64-.51,27.38S189.1,60.4,189,67.93a13.59,13.59,0,0,1-7.32,12.19Z" style="fill:#fff;opacity:0.5;isolation:isolate"/><path d="M186.5,21.58S184.87,10.83,195,0c0,0-8.92,19.92-6,29.75C189,29.75,186.63,23.5,186.5,21.58Z" style="fill:#fff;opacity:0.5;isolation:isolate"/><rect x="0.5" y="27.85" width="600" height="296.93" style="fill:none;stroke:#282828;stroke-miterlimit:10"/></g></g></svg>